<svg width="250" height="450" viewBox="0 0 390 550" fill="none" xmlns="http://www.w3.org/2000/svg">
<g clip-path="url(#clip0_2_2)">
<path d="M6.63957e-05 548.813C-0.000402203 548.969 0.0298558 549.123 0.0891005 549.266C0.148345 549.41 0.235422 549.541 0.34536 549.651C0.455298 549.761 0.585917 549.849 0.72981 549.909C0.873703 549.968 1.02805 550 1.18399 550H388.809C389.125 550 389.428 549.875 389.651 549.652C389.875 549.43 390 549.128 390 548.813C390 548.499 389.875 548.197 389.651 547.974C389.428 547.752 389.125 547.627 388.809 547.627H1.19108C1.03513 547.626 0.880598 547.656 0.736346 547.715C0.592094 547.774 0.460934 547.861 0.350338 547.971C0.239742 548.08 0.15189 548.21 0.0917883 548.354C0.0316868 548.497 0.000523107 548.651 6.63957e-05 548.806V548.813Z" fill="#CCCCCC"/>
<path opacity="0.5" d="M154.903 386.284C159.126 385.433 163.451 385.199 167.742 385.59C168.139 385.587 168.519 385.428 168.8 385.149C169.081 384.869 169.24 384.49 169.243 384.094C169.235 383.7 169.074 383.324 168.794 383.045C168.514 382.767 168.137 382.606 167.742 382.598C163.181 382.204 158.587 382.474 154.105 383.4C153.721 383.505 153.396 383.758 153.199 384.103C153.003 384.448 152.952 384.857 153.058 385.239C153.164 385.621 153.417 385.946 153.763 386.142C154.109 386.338 154.519 386.389 154.903 386.284H154.903Z" fill="#CCCCCC"/>
<path d="M51.8401 360.264C43.5843 349.322 38.8126 337.087 38.6563 323.137C38.3903 322.386 38.4345 321.56 38.779 320.84C39.1236 320.121 39.7405 319.567 40.4944 319.3L68.6344 309.38C69.3889 309.115 70.218 309.159 70.9399 309.502C71.6619 309.845 72.2177 310.46 72.4854 311.211L85.6692 348.337C85.9352 349.089 85.8911 349.915 85.5465 350.634C85.2019 351.354 84.585 351.907 83.8312 352.174L55.6911 362.095C54.9367 362.36 54.1075 362.316 53.3855 361.973C52.6636 361.629 52.1078 361.015 51.8401 360.264V360.264Z" fill="white"/>
<path opacity="0.2" d="M58.1932 359.602C57.4388 359.867 56.6096 359.823 55.8877 359.48C55.1657 359.136 54.6099 358.522 54.3422 357.77C46.0864 346.829 41.3148 334.594 41.1584 320.644C40.9862 320.15 40.9482 319.619 41.0481 319.105L40.4944 319.3C39.7405 319.567 39.1237 320.121 38.7791 320.84C38.4345 321.56 38.3903 322.386 38.6563 323.137C38.8126 337.087 43.5843 349.322 51.8401 360.263C52.1078 361.015 52.6636 361.629 53.3856 361.973C54.1075 362.316 54.9367 362.36 55.6911 362.095L83.8311 352.174C84.3304 351.996 84.7735 351.69 85.1157 351.286C85.4579 350.883 85.6869 350.396 85.7795 349.876L58.1932 359.602Z" fill="black"/>
<path d="M71.3767 331.814L52.538 338.514C52.2382 338.62 51.9082 338.604 51.6206 338.468C51.3329 338.332 51.1112 338.088 51.0042 337.79C50.8972 337.491 50.9136 337.162 51.0499 336.875C51.1862 336.589 51.4312 336.368 51.731 336.261L70.5697 329.561C70.8692 329.456 71.1986 329.473 71.4856 329.609C71.7726 329.744 71.9937 329.988 72.1006 330.286C72.2074 330.585 72.1912 330.913 72.0555 331.199C71.9198 331.485 71.6756 331.706 71.3766 331.814H71.3767Z" fill="#141850"/>
<path d="M54.4698 330.863L50.3253 332.337C50.177 332.391 50.0195 332.415 49.862 332.408C49.7044 332.4 49.5498 332.362 49.407 332.296C49.2642 332.229 49.136 332.135 49.0298 332.018C48.9235 331.902 48.8413 331.766 48.7878 331.619C48.7343 331.471 48.7106 331.314 48.718 331.157C48.7254 331 48.7638 330.846 48.831 330.704C48.8982 330.561 48.9928 330.434 49.1096 330.328C49.2263 330.222 49.3628 330.141 49.5112 330.088L49.5184 330.085L53.6629 328.611C53.9624 328.505 54.2917 328.523 54.5785 328.659C54.8654 328.795 55.0864 329.038 55.1932 329.336C55.3 329.635 55.2838 329.963 55.1482 330.249C55.0126 330.535 54.7687 330.756 54.4698 330.863V330.863Z" fill="#141850"/>
<path d="M74.9241 341.716L56.0855 348.416C55.7859 348.522 55.4567 348.505 55.1698 348.369C54.883 348.233 54.6619 347.989 54.5551 347.691C54.4483 347.393 54.4645 347.065 54.6001 346.778C54.7357 346.492 54.9797 346.271 55.2785 346.164L74.1172 339.464C74.4166 339.357 74.7463 339.372 75.034 339.507C75.3218 339.642 75.544 339.885 75.6519 340.184C75.7597 340.482 75.7444 340.81 75.6093 341.097C75.4742 341.384 75.2304 341.606 74.9313 341.714L74.9241 341.716Z" fill="#141850"/>
<path d="M73.1504 336.765L54.3117 343.465C54.0121 343.572 53.682 343.556 53.3942 343.421C53.1064 343.285 52.8844 343.041 52.777 342.743C52.6696 342.444 52.6857 342.115 52.8217 341.829C52.9576 341.542 53.2024 341.321 53.502 341.214L53.5047 341.213L72.3434 334.512C72.6429 334.407 72.9723 334.424 73.2593 334.56C73.5463 334.696 73.7674 334.94 73.8743 335.238C73.9811 335.536 73.9649 335.864 73.8292 336.15C73.6934 336.437 73.4493 336.658 73.1503 336.765H73.1504Z" fill="#141850"/>
<path d="M53.8151 319.684C56.5789 319.684 58.8194 317.452 58.8194 314.698C58.8194 311.944 56.5789 309.712 53.8151 309.712C51.0514 309.712 48.8109 311.944 48.8109 314.698C48.8109 317.452 51.0514 319.684 53.8151 319.684Z" fill="#CCCCCC"/>
<path d="M236.97 99.3359C237.05 106.636 239.382 121.833 237.711 128.984L237.441 128.385C236.051 129.483 234.575 130.467 233.027 131.327C231.91 128.62 230.24 126.175 228.123 124.147C228.401 127.503 228.003 130.88 226.952 134.079C220.696 136.323 209.717 129.253 202.911 129.103C191.962 128.854 181.293 126.142 170.834 123.27C167.121 122.252 163.038 120.926 161.356 117.855C159.675 114.783 162.684 111.468 162.487 108.002C161.085 83.3148 172.886 79.1767 184.115 72.5802C186.587 71.1286 187.799 68.0029 190.591 66.7863C194.464 65.101 199.078 65.9087 203.292 66.7564C202.245 66.4129 201.305 65.8067 200.562 64.9963C199.819 64.1859 199.297 63.1985 199.048 62.1292C198.872 61.0811 198.991 60.005 199.39 59.0196C199.789 58.0342 200.453 57.1777 201.31 56.5447C203.632 54.7597 207.095 54.5403 210.057 55.2982C212.919 56.19 215.627 57.5152 218.084 59.2273C219.753 60.1393 221.244 61.3416 222.488 62.7774C223.074 63.4569 223.437 64.2984 223.53 65.1894C223.623 66.0804 223.441 66.9785 223.008 67.7636C222.474 68.4365 221.794 68.9807 221.02 69.3553C220.245 69.73 219.396 69.9257 218.535 69.9276C217.208 69.9661 215.882 69.8286 214.591 69.5187C220.506 70.9726 225.837 74.1866 229.874 78.7331C234.888 84.547 236.88 92.0362 236.97 99.3359Z" fill="#2F2E41"/>
<path d="M62.0226 169.685C63.0403 171.838 64.8607 173.509 67.0965 174.344C69.3322 175.18 71.8069 175.113 73.9939 174.158C74.4353 173.957 74.8593 173.72 75.2615 173.449L101.032 192.315L115.241 182.653L77.1337 160.613C75.8777 159.038 74.1338 157.922 72.1742 157.438C70.2146 156.955 68.1495 157.131 66.3011 157.94C65.2538 158.411 64.3097 159.082 63.5228 159.916C62.7359 160.75 62.1215 161.73 61.7148 162.8C61.3081 163.871 61.1169 165.011 61.1523 166.155C61.1877 167.299 61.4488 168.425 61.9209 169.468V169.468C61.9538 169.541 61.9877 169.614 62.0226 169.685Z" fill="#FFB6B6"/>
<path d="M327.637 152.564C325.267 152.858 323.107 154.062 321.614 155.919C320.122 157.777 319.416 160.141 319.647 162.509C319.701 162.99 319.795 163.465 319.929 163.93L293.917 182.465L298.712 198.925L331.59 169.696C333.483 168.997 335.09 167.692 336.161 165.987C337.231 164.282 337.705 162.271 337.509 160.269C337.386 159.131 337.039 158.028 336.489 157.024C335.938 156.019 335.194 155.133 334.3 154.414C333.405 153.696 332.377 153.161 331.275 152.838C330.173 152.516 329.018 152.413 327.875 152.535C327.796 152.544 327.716 152.553 327.637 152.564Z" fill="#FFB6B6"/>
<path d="M139.015 532.424L130.637 532.353L126.93 499.411L139.293 499.514L139.015 532.424Z" fill="#FFB6B6"/>
<path d="M112.184 545.696C112.176 546.685 112.563 547.637 113.259 548.343C113.955 549.048 114.904 549.45 115.897 549.46L132.551 549.598L135.466 543.71L136.537 549.628L142.821 549.685L141.234 528.576L139.048 528.431L130.131 527.819L127.254 527.627L127.203 533.599L113.825 542.641C113.324 542.98 112.912 543.435 112.627 543.967C112.341 544.499 112.189 545.092 112.184 545.696Z" fill="#2F2E41"/>
<path d="M249.432 495.45L242.593 500.268L220.266 475.693L230.36 468.579L249.432 495.45Z" fill="#FFB6B6"/>
<path d="M235.44 521.84C236.014 522.647 236.886 523.195 237.865 523.362C238.844 523.529 239.849 523.303 240.661 522.733L254.258 513.15L253.171 506.674L257.51 510.854L262.644 507.241L248.978 491.034L247.118 492.189L239.522 496.884L237.075 498.403L240.536 503.279L234.981 518.405C234.773 518.972 234.706 519.581 234.786 520.179C234.866 520.777 235.09 521.347 235.44 521.84V521.84Z" fill="#2F2E41"/>
<path d="M145.297 265.337L169.628 209.039H225.672L209.507 267.794L145.297 265.337Z" fill="#FFB6B6"/>
<path d="M93.8513 532.676C93.3861 532.698 92.9255 532.576 92.532 532.328C92.1386 532.08 91.8312 531.717 91.6515 531.289C91.4719 530.861 91.4286 530.388 91.5277 529.934C91.6267 529.481 91.8632 529.069 92.2052 528.754L92.3608 528.138C92.3404 528.088 92.3197 528.039 92.299 527.99C91.8303 526.887 91.045 525.946 90.0417 525.286C89.0383 524.627 87.8617 524.277 86.6596 524.282C85.4575 524.286 84.2835 524.644 83.2851 525.311C82.2868 525.979 81.5085 526.925 81.0481 528.031C79.2079 532.447 76.8651 536.871 76.2882 541.54C76.0342 543.604 76.1413 545.696 76.605 547.723C72.283 538.329 70.0387 528.119 70.0243 517.785C70.0234 515.192 70.168 512.601 70.4574 510.024C70.6966 507.911 71.0285 505.814 71.453 503.731C73.7695 492.431 78.7431 481.84 85.9654 472.827C89.461 470.927 92.2879 468.004 94.0652 464.454C94.7091 463.177 95.1641 461.815 95.4163 460.409C95.0219 460.46 93.9294 454.477 94.2269 454.11C93.6773 453.279 92.6938 452.866 92.0936 452.055C89.1088 448.023 84.9964 448.727 82.8496 454.206C78.2635 456.512 78.2191 460.337 81.0331 464.016C82.8234 466.356 83.0693 469.523 84.6402 472.028C84.4786 472.235 84.3105 472.434 84.1489 472.64C81.1947 476.425 78.6199 480.49 76.4614 484.775C76.9863 479.974 76.3598 475.118 74.6334 470.605C72.8837 466.399 69.6043 462.857 66.7163 459.222C65.9524 458.245 64.9151 457.516 63.7355 457.126C62.5559 456.737 61.2868 456.705 60.0888 457.034C58.8908 457.363 57.8176 458.039 57.0049 458.975C56.1922 459.912 55.6764 461.068 55.5228 462.296C55.5169 462.35 55.5111 462.404 55.5055 462.457C55.9345 462.698 56.3544 462.954 56.7652 463.225C57.2813 463.568 57.6812 464.059 57.9125 464.633C58.1439 465.207 58.1958 465.837 58.0615 466.441C57.9273 467.045 57.6131 467.594 57.1601 468.017C56.7071 468.44 56.1365 468.717 55.5231 468.811L55.4602 468.821C55.6131 470.361 55.8832 471.888 56.2683 473.387C52.5633 487.664 60.562 492.863 71.983 493.097C72.2352 493.226 72.4808 493.354 72.7329 493.477C70.5643 499.6 69.204 505.979 68.6862 512.452C68.3931 516.271 68.4104 520.107 68.738 523.923L68.7186 523.788C67.891 519.545 65.6191 515.716 62.2865 512.948C57.3367 508.897 50.3436 507.405 45.0036 504.148C44.4361 503.785 43.7763 503.591 43.1019 503.59C42.4274 503.588 41.7666 503.779 41.1973 504.139C40.628 504.499 40.174 505.014 39.8889 505.623C39.6037 506.232 39.4992 506.91 39.5878 507.576L39.6097 507.718C40.4057 508.041 41.1808 508.413 41.9303 508.832C42.3593 509.073 42.7792 509.329 43.19 509.6C43.7062 509.944 44.1061 510.434 44.3374 511.008C44.5687 511.582 44.6206 512.213 44.4864 512.816C44.3521 513.42 44.0379 513.97 43.5849 514.392C43.132 514.815 42.5614 515.092 41.9479 515.186L41.885 515.196C41.8398 515.202 41.801 515.209 41.7558 515.215C43.1159 518.451 45.0249 521.429 47.3991 524.02C49.7157 536.483 59.6655 537.665 70.3087 534.036H70.3152C71.483 539.092 73.1749 544.014 75.3638 548.721H93.3993C93.4639 548.522 93.5221 548.315 93.5803 548.116C91.9109 548.22 90.2349 548.121 88.5898 547.82C89.9279 546.183 91.2661 544.535 92.6042 542.899C92.6341 542.868 92.6621 542.836 92.6883 542.802C93.367 541.965 94.0523 541.134 94.731 540.296L94.7314 540.295C94.7676 537.729 94.472 535.168 93.8519 532.677L93.8513 532.676Z" fill="#5FA054"/>
<path d="M289.012 532.676C289.477 532.698 289.938 532.576 290.331 532.328C290.725 532.08 291.032 531.717 291.212 531.289C291.391 530.861 291.435 530.388 291.336 529.934C291.237 529.481 291 529.069 290.658 528.754L290.502 528.138C290.523 528.088 290.543 528.039 290.564 527.99C291.033 526.887 291.818 525.946 292.822 525.286C293.825 524.627 295.001 524.277 296.204 524.282C297.406 524.286 298.58 524.644 299.578 525.311C300.576 525.979 301.355 526.925 301.815 528.031C303.655 532.447 305.998 536.871 306.575 541.54C306.829 543.604 306.722 545.696 306.258 547.723C310.58 538.329 312.824 528.119 312.839 517.785C312.84 515.192 312.695 512.601 312.406 510.024C312.167 507.911 311.835 505.814 311.41 503.731C309.094 492.431 304.12 481.84 296.898 472.827C293.402 470.927 290.575 468.004 288.798 464.454C288.154 463.178 287.699 461.815 287.447 460.409C287.841 460.46 288.934 454.477 288.636 454.11C289.186 453.279 290.169 452.866 290.77 452.055C293.754 448.023 297.867 448.727 300.014 454.206C304.6 456.513 304.644 460.337 301.83 464.016C300.04 466.356 299.794 469.523 298.223 472.028C298.385 472.235 298.553 472.434 298.714 472.64C301.669 476.425 304.243 480.49 306.402 484.775C305.877 479.974 306.503 475.118 308.23 470.605C309.979 466.399 313.259 462.857 316.147 459.222C316.911 458.245 317.948 457.516 319.128 457.126C320.307 456.737 321.576 456.705 322.774 457.034C323.972 457.363 325.046 458.039 325.858 458.975C326.671 459.912 327.187 461.068 327.34 462.296C327.346 462.35 327.352 462.404 327.358 462.457C326.929 462.698 326.509 462.954 326.098 463.225C325.582 463.569 325.182 464.059 324.951 464.633C324.719 465.207 324.667 465.838 324.802 466.441C324.936 467.045 325.25 467.595 325.703 468.017C326.156 468.44 326.727 468.717 327.34 468.811L327.403 468.821C327.25 470.361 326.98 471.888 326.595 473.388C330.3 487.664 322.301 492.863 310.88 493.097C310.628 493.226 310.382 493.355 310.13 493.477C312.299 499.601 313.659 505.979 314.177 512.452C314.47 516.271 314.453 520.107 314.125 523.923L314.145 523.788C314.972 519.545 317.244 515.716 320.577 512.948C325.526 508.897 332.52 507.405 337.86 504.148C338.427 503.785 339.087 503.591 339.761 503.59C340.436 503.588 341.097 503.779 341.666 504.139C342.235 504.499 342.689 505.014 342.974 505.623C343.259 506.232 343.364 506.91 343.275 507.576L343.253 507.718C342.457 508.041 341.682 508.413 340.933 508.832C340.504 509.073 340.084 509.329 339.673 509.6C339.157 509.944 338.757 510.434 338.526 511.008C338.294 511.582 338.242 512.213 338.377 512.816C338.511 513.42 338.825 513.97 339.278 514.392C339.731 514.815 340.302 515.092 340.915 515.186L340.978 515.196C341.023 515.202 341.062 515.209 341.107 515.215C339.747 518.451 337.838 521.429 335.464 524.02C333.147 536.483 323.198 537.665 312.554 534.036H312.548C311.38 539.092 309.688 544.014 307.499 548.721H289.464C289.399 548.522 289.341 548.315 289.283 548.116C290.952 548.22 292.628 548.121 294.273 547.82C292.935 546.183 291.597 544.535 290.259 542.899C290.229 542.868 290.201 542.836 290.175 542.802C289.496 541.965 288.811 541.134 288.132 540.296L288.132 540.295C288.096 537.729 288.391 535.168 289.011 532.677L289.012 532.676Z" fill="#5FA054"/>
<path d="M145.297 261.11L121.14 311.322L122.864 511.424H143.555C143.555 511.424 147.578 506.018 147.578 502.23C147.578 498.442 140.735 497.892 145.297 493.243C149.859 488.593 151.38 487.078 151.38 482.532V409.81L167.695 339.314L165.97 416.773L224.595 486.488L238.251 472.881C238.251 472.881 242.245 471.127 238.251 467.36C234.258 463.592 231.767 470.246 231.492 459.722C231.216 449.198 233.497 451.471 231.216 449.198C228.935 446.925 197.007 408.948 197.007 408.948C197.007 408.948 225.894 286.314 211.447 262.829L145.297 261.11Z" fill="#2F2E41"/>
<path d="M212.968 266.617C212.968 266.617 150.62 244.646 155.182 232.525C159.744 220.403 167.407 222.736 158.253 218.918C149.099 215.1 143.034 214.342 148.728 209.039C154.422 203.736 162.785 198.433 162.785 193.13C162.785 187.826 169.628 146.159 169.628 146.159H180.583L191.678 127.219H207.352L215.249 144.643H231.923L232.737 171.159C232.737 171.159 233.815 222.384 228.714 224.424C223.613 226.464 219.051 226.464 223.613 231.01C228.175 235.555 230.773 237.906 228.714 242.034C226.654 246.162 212.968 266.617 212.968 266.617Z" fill="#5FA054"/>
<path d="M222.092 152.219L231.923 144.643C231.923 144.643 248.704 144.643 250.985 153.735C253.266 162.826 266.996 185.058 266.996 185.058C266.996 185.058 280.639 177.22 285.961 177.22C291.284 177.22 295.085 181.008 295.085 176.462C295.085 171.917 292.044 171.159 296.606 171.159C301.168 171.159 313.334 166.614 313.334 166.614L326.31 179.544C326.31 179.544 324.739 191.614 319.416 190.857C314.094 190.099 311.052 186.311 311.052 190.857C311.052 195.402 314.094 202.221 307.251 202.978C300.408 203.736 254.787 215.1 254.787 215.1L223.613 169.644L222.092 152.219Z" fill="#5FA054"/>
<path d="M182.554 152.219L172.724 144.643C172.724 144.643 155.942 144.643 153.661 153.735C151.38 162.826 136.885 185.058 136.885 185.058C136.885 185.058 124.008 177.22 118.685 177.22C113.363 177.22 109.561 181.008 109.561 176.462C109.561 171.917 112.603 171.159 108.041 171.159C103.478 171.159 91.3129 166.614 91.3129 166.614L78.3362 179.544C78.3362 179.544 79.9078 191.614 85.2302 190.857C90.5526 190.099 93.594 186.311 93.594 190.857C93.594 195.402 90.5526 202.221 97.3957 202.978C104.239 203.736 149.859 215.1 149.859 215.1L181.034 169.644L182.554 152.219Z" fill="#5FA054"/>
<path d="M197.693 123.104C211.094 123.104 221.957 112.28 221.957 98.927C221.957 85.5745 211.094 74.7501 197.693 74.7501C184.292 74.7501 173.428 85.5745 173.428 98.927C173.428 112.28 184.292 123.104 197.693 123.104Z" fill="#FFB6B6"/>
<path d="M224.169 95.2772C221.317 98.7176 217.073 98.5381 213.3 97.9897C212.109 97.8201 210.918 97.6306 209.727 97.4113C209.517 96.7431 209.277 96.075 209.007 95.4268C207.89 92.7201 206.22 90.2748 204.102 88.2467C204.325 90.8983 204.119 93.5684 203.492 96.1548C201.28 95.6462 199.078 95.0777 196.886 94.4495C194.947 94.1353 193.203 93.0908 192.015 91.5318C190.826 89.9728 190.284 88.0185 190.501 86.0727C187.348 88.4661 183.915 90.5403 180.312 90.5802C178.281 90.5277 176.321 89.8284 174.718 88.5847C173.115 87.341 171.954 85.6184 171.405 83.6694C170.424 80.6777 170.574 77.2273 170.974 73.9963C171.455 70.1569 172.536 65.9386 175.138 64.3929C177.23 63.1364 179.642 64.0339 181.794 65.0511C186.534 67.318 191.028 70.0649 195.205 73.2483L195.255 74.2954C196.336 69.1397 199.909 65.1608 203.802 64.7619C206.424 64.5026 208.987 65.7093 211.459 66.9259C214.69 68.3462 217.694 70.2311 220.376 72.5204C223.406 75.2665 225.51 78.8783 226.401 82.8616C227.332 87.1797 226.631 92.3055 224.169 95.2772Z" fill="#2F2E41"/>
<path d="M200.15 61.7244C200.398 61.7452 199.787 61.6055 199.986 61.6886C199.888 61.6442 199.795 61.5921 199.706 61.5326C199.691 61.5229 199.494 61.3641 199.623 61.4746C199.326 61.2444 199.102 60.9335 198.979 60.5794C198.703 59.719 198.575 58.8185 198.599 57.9156C198.649 56.7291 198.446 55.5455 198.003 54.4426C197.872 54.144 197.672 53.8803 197.42 53.6731C197.167 53.4659 196.869 53.3209 196.55 53.2499C196.231 53.179 195.899 53.1841 195.582 53.2648C195.265 53.3454 194.972 53.4995 194.726 53.7143C193.907 54.5145 193.842 55.8663 193.784 56.9415C193.721 58.0578 193.84 59.1768 194.135 60.2553C194.643 62.0288 195.658 63.6168 197.056 64.8257C198.67 66.2344 200.697 67.0871 202.836 67.2572C203.13 67.2506 203.416 67.159 203.658 66.9936C203.901 66.8281 204.09 66.5959 204.202 66.3253C204.315 66.0546 204.346 65.7572 204.292 65.4693C204.238 65.1814 204.101 64.9153 203.898 64.7036L201.211 62.1625C200.93 61.882 200.548 61.7244 200.15 61.7244C199.752 61.7244 199.37 61.882 199.088 62.1625C198.807 62.443 198.648 62.8235 198.648 63.2202C198.648 63.617 198.807 63.9974 199.088 64.2779L201.775 66.8191L202.836 64.2655C202.393 64.2257 201.955 64.1366 201.532 64C201.073 63.8728 200.634 63.6813 200.229 63.431C199.832 63.2143 199.46 62.9552 199.119 62.6582C198.901 62.4674 198.693 62.2657 198.496 62.0538C198.424 61.9768 198.354 61.8986 198.285 61.8189C198.29 61.8246 198.003 61.4649 198.126 61.6294C197.816 61.2062 197.545 60.755 197.319 60.2818C197.239 60.1142 197.173 59.9404 197.122 59.7621C197.027 59.4688 196.949 59.1702 196.889 58.8678C196.775 58.2325 196.74 57.5854 196.786 56.9416C196.799 56.6685 196.827 56.3964 196.868 56.1261C196.906 55.9837 196.934 55.8388 196.952 55.6925C196.957 55.3293 196.902 55.8864 196.712 55.971L195.954 56.1753C195.831 56.1652 195.711 56.1277 195.605 56.0653C195.498 56.003 195.406 55.9175 195.337 55.8152C195.306 55.6903 195.315 55.7125 195.364 55.8816C195.421 56.0802 195.465 56.2821 195.496 56.4862C195.554 56.9607 195.588 57.4378 195.597 57.9157C195.606 58.9281 195.724 59.9366 195.949 60.9241C196.159 61.9163 196.678 62.8171 197.433 63.4981C198.187 64.179 199.138 64.6053 200.15 64.7161C200.547 64.713 200.927 64.5544 201.208 64.2745C201.489 63.9947 201.648 63.616 201.651 63.2203C201.643 62.826 201.482 62.4501 201.203 62.1713C200.923 61.8924 200.545 61.7323 200.15 61.7244V61.7244Z" fill="#2F2E41"/>
<path d="M324.07 158.823C315.815 147.881 311.043 135.646 310.887 121.697C310.621 120.945 310.665 120.119 311.009 119.399C311.354 118.68 311.971 118.126 312.725 117.859L340.865 107.939C341.619 107.674 342.448 107.718 343.17 108.061C343.892 108.404 344.448 109.019 344.716 109.77L357.899 146.896C358.165 147.648 358.121 148.474 357.777 149.193C357.432 149.913 356.815 150.467 356.061 150.733L327.921 160.654C327.167 160.919 326.338 160.875 325.616 160.532C324.894 160.188 324.338 159.574 324.07 158.823V158.823Z" fill="#5FA054"/>
<path opacity="0.2" d="M330.424 158.161C329.669 158.426 328.84 158.382 328.118 158.039C327.396 157.695 326.84 157.081 326.573 156.33C318.317 145.388 313.545 133.153 313.389 119.203C313.217 118.709 313.179 118.178 313.278 117.664L312.725 117.859C311.971 118.126 311.354 118.68 311.009 119.399C310.665 120.119 310.621 120.945 310.887 121.697C311.043 135.646 315.815 147.881 324.07 158.823C324.338 159.574 324.894 160.188 325.616 160.532C326.338 160.875 327.167 160.919 327.921 160.654L356.062 150.733C356.561 150.555 357.004 150.249 357.346 149.846C357.688 149.442 357.917 148.956 358.01 148.435L330.424 158.161Z" fill="black"/>
<path d="M343.607 130.373L324.768 137.073C324.468 137.18 324.138 137.163 323.851 137.027C323.563 136.892 323.341 136.647 323.234 136.349C323.127 136.05 323.144 135.721 323.28 135.435C323.416 135.148 323.661 134.927 323.961 134.821L342.8 128.12C342.948 128.068 343.106 128.044 343.263 128.052C343.421 128.06 343.575 128.099 343.717 128.166C343.86 128.233 343.988 128.328 344.093 128.444C344.199 128.561 344.281 128.697 344.334 128.845C344.387 128.992 344.41 129.149 344.402 129.306C344.394 129.463 344.356 129.617 344.288 129.759C344.221 129.901 344.126 130.028 344.009 130.133C343.892 130.239 343.755 130.32 343.607 130.373V130.373Z" fill="white"/>
<path d="M326.7 129.423L322.556 130.897C322.407 130.95 322.25 130.973 322.092 130.965C321.935 130.958 321.781 130.919 321.638 130.852C321.496 130.785 321.368 130.691 321.262 130.574C321.156 130.458 321.074 130.322 321.021 130.174C320.968 130.026 320.944 129.87 320.952 129.713C320.96 129.556 320.998 129.402 321.066 129.26C321.133 129.118 321.228 128.991 321.344 128.885C321.461 128.78 321.597 128.698 321.746 128.645L321.749 128.644L325.893 127.17C326.193 127.064 326.523 127.081 326.81 127.216C327.097 127.352 327.319 127.596 327.426 127.895C327.533 128.193 327.516 128.522 327.38 128.808C327.244 129.095 327 129.316 326.7 129.423V129.423Z" fill="white"/>
<path d="M347.154 140.275L328.316 146.976C328.016 147.083 327.686 147.066 327.398 146.931C327.11 146.796 326.888 146.552 326.781 146.253C326.674 145.955 326.69 145.626 326.826 145.339C326.962 145.052 327.206 144.831 327.506 144.724L327.509 144.723L346.347 138.023C346.647 137.917 346.977 137.933 347.264 138.069C347.552 138.205 347.773 138.449 347.88 138.747C347.987 139.046 347.971 139.375 347.835 139.661C347.699 139.948 347.454 140.168 347.154 140.275V140.275Z" fill="white"/>
<path d="M345.381 135.324L326.542 142.024C326.394 142.077 326.236 142.101 326.079 142.093C325.921 142.085 325.767 142.047 325.625 141.98C325.482 141.913 325.354 141.818 325.248 141.702C325.142 141.586 325.061 141.45 325.007 141.302C324.954 141.154 324.931 140.997 324.938 140.84C324.946 140.684 324.985 140.53 325.052 140.388C325.119 140.246 325.214 140.118 325.331 140.013C325.448 139.907 325.584 139.826 325.732 139.773L325.735 139.772L344.574 133.072C344.722 133.019 344.88 132.995 345.037 133.003C345.194 133.011 345.349 133.049 345.491 133.116C345.634 133.183 345.762 133.278 345.868 133.394C345.973 133.51 346.055 133.646 346.108 133.794C346.162 133.942 346.185 134.099 346.177 134.256C346.17 134.412 346.131 134.566 346.064 134.708C345.996 134.85 345.902 134.978 345.785 135.083C345.668 135.189 345.532 135.27 345.383 135.323L345.381 135.324Z" fill="white"/>
<path d="M326.045 118.243C328.809 118.243 331.05 116.011 331.05 113.257C331.05 110.504 328.809 108.271 326.045 108.271C323.282 108.271 321.041 110.504 321.041 113.257C321.041 116.011 323.282 118.243 326.045 118.243Z" fill="#3F3D56"/>
<path d="M78.9382 31.7311C83.9783 18.9967 91.9476 8.54415 103.797 1.11425C104.301 0.495126 105.031 0.10044 105.826 0.016752C106.622 -0.0669354 107.418 0.167219 108.041 0.667853L131.247 19.3741C131.869 19.8762 132.265 20.6033 132.349 21.396C132.433 22.1886 132.198 22.9821 131.695 23.6024L106.836 54.2192C106.332 54.8383 105.603 55.233 104.807 55.3167C104.011 55.4004 103.215 55.1663 102.593 54.6656L79.3863 35.9593C78.7649 35.4573 78.3688 34.7302 78.2848 33.9375C78.2008 33.1448 78.4358 32.3513 78.9382 31.7311Z" fill="#5FA054"/>
<path opacity="0.2" d="M82.8276 36.7799C82.2063 36.2778 81.8102 35.5507 81.7262 34.758C81.6422 33.9654 81.8772 33.1719 82.3796 32.5516C87.4196 19.8172 95.389 9.36465 107.239 1.93475C107.572 1.5299 108.006 1.21985 108.498 1.03595L108.041 0.667819C107.418 0.167193 106.622 -0.0669768 105.826 0.0167028C105.031 0.100382 104.301 0.495079 103.797 1.11418C91.9476 8.5441 83.9783 18.9966 78.9382 31.731C78.4358 32.3513 78.2008 33.1448 78.2848 33.9375C78.3688 34.7301 78.7649 35.4573 79.3863 35.9593L102.593 54.6656C103.006 54.9964 103.5 55.2126 104.024 55.292C104.548 55.3715 105.084 55.3115 105.577 55.118L82.8276 36.7799Z" fill="black"/>
<path d="M113.493 33.4386L97.9069 20.946C97.6597 20.747 97.5019 20.4584 97.4681 20.1435C97.4342 19.8287 97.5271 19.5133 97.7263 19.2666C97.9254 19.0199 98.2147 18.8619 98.5306 18.8274C98.8465 18.7929 99.1633 18.8847 99.4114 19.0825L114.997 31.575C115.244 31.7741 115.402 32.0627 115.436 32.3775C115.47 32.6923 115.377 33.0076 115.178 33.2543C114.979 33.501 114.689 33.6589 114.373 33.6935C114.058 33.728 113.741 33.6363 113.493 33.4385L113.493 33.4386Z" fill="white"/>
<path d="M105.461 18.5845L102.032 15.8361C101.786 15.6369 101.628 15.3484 101.594 15.0337C101.561 14.7191 101.654 14.404 101.853 14.1574C102.052 13.9109 102.341 13.753 102.656 13.7183C102.972 13.6837 103.289 13.7751 103.537 13.9726L106.966 16.7209C107.213 16.9201 107.37 17.2086 107.404 17.5234C107.438 17.8381 107.345 18.1533 107.146 18.3999C106.947 18.6465 106.657 18.8044 106.342 18.839C106.026 18.8736 105.709 18.7821 105.461 18.5845L105.461 18.5845Z" fill="white"/>
<path d="M106.878 41.6311L91.2926 29.1387C91.0454 28.9396 90.8876 28.651 90.8538 28.3361C90.8199 28.0213 90.9127 27.7059 91.1119 27.4592C91.3111 27.2125 91.6004 27.0545 91.9163 27.02C92.2322 26.9855 92.549 27.0773 92.7971 27.2751L108.383 39.7676C108.63 39.9668 108.787 40.2553 108.821 40.57C108.854 40.8846 108.762 41.1997 108.563 41.4463C108.363 41.6929 108.074 41.8508 107.759 41.8854C107.443 41.92 107.127 41.8286 106.878 41.6311H106.878Z" fill="white"/>
<path d="M110.186 37.5349L94.5997 25.0424C94.4766 24.9443 94.3741 24.823 94.2981 24.6854C94.2221 24.5479 94.174 24.3967 94.1566 24.2407C94.1214 23.9254 94.2134 23.6092 94.4122 23.3615C94.6111 23.1139 94.9005 22.9551 95.2169 22.9201C95.5332 22.885 95.8506 22.9767 96.0992 23.1748L96.1042 23.1788L111.69 35.6713C111.939 35.8695 112.098 36.1579 112.133 36.4731C112.168 36.7883 112.076 37.1045 111.877 37.3522C111.679 37.5998 111.389 37.7586 111.073 37.7937C110.756 37.8287 110.439 37.7371 110.191 37.5389L110.186 37.5349V37.5349Z" fill="white"/>
<path d="M118.946 14.5583C121.709 14.5583 123.95 12.326 123.95 9.57217C123.95 6.81839 121.709 4.58601 118.946 4.58601C116.182 4.58601 113.941 6.81839 113.941 9.57217C113.941 12.326 116.182 14.5583 118.946 14.5583Z" fill="#3F3D56"/>
<path d="M21.5365 180.799C9.32507 164.615 2.26707 146.517 2.03577 125.884C1.64234 124.772 1.70763 123.55 2.21732 122.486C2.72701 121.422 3.63948 120.603 4.75453 120.209L46.3776 105.534C47.4935 105.142 48.72 105.207 49.7879 105.715C50.8557 106.223 51.6778 107.132 52.0738 108.243L71.5745 163.158C71.9679 164.27 71.9026 165.492 71.3929 166.556C70.8832 167.62 69.9708 168.439 68.8557 168.834L27.2327 183.508C26.1167 183.9 24.8903 183.835 23.8224 183.327C22.7545 182.819 21.9325 181.91 21.5365 180.799Z" fill="#5FA054"/>
<path opacity="0.2" d="M30.9336 179.82C29.8177 180.212 28.5913 180.147 27.5234 179.639C26.4555 179.131 25.6335 178.222 25.2375 177.111C13.0261 160.927 5.96809 142.829 5.73671 122.197C5.48204 121.465 5.42574 120.68 5.57355 119.92L4.75446 120.209C3.63942 120.603 2.72698 121.422 2.21728 122.486C1.70759 123.55 1.64228 124.772 2.03567 125.884C2.26698 146.517 9.32492 164.615 21.5364 180.799C21.9324 181.91 22.7545 182.819 23.8224 183.327C24.8902 183.835 26.1167 183.9 27.2326 183.508L68.8557 168.834C69.5941 168.57 70.2496 168.117 70.7557 167.521C71.2618 166.924 71.6005 166.204 71.7376 165.435L30.9336 179.82Z" fill="black"/>
<path d="M50.4338 138.718L22.5688 148.628C22.349 148.707 22.1158 148.742 21.8825 148.731C21.6492 148.72 21.4204 148.663 21.2092 148.564C20.9979 148.464 20.8085 148.324 20.6516 148.152C20.4948 147.979 20.3736 147.778 20.2951 147.559C20.2166 147.339 20.1822 147.107 20.194 146.875C20.2059 146.642 20.2636 146.414 20.3639 146.204C20.4643 145.994 20.6052 145.806 20.7788 145.65C20.9523 145.494 21.155 145.374 21.3752 145.296L49.2402 135.386C49.4598 135.308 49.6926 135.274 49.9255 135.285C50.1583 135.297 50.3866 135.354 50.5972 135.453C50.8079 135.553 50.9968 135.693 51.1532 135.865C51.3097 136.037 51.4305 136.238 51.5089 136.457C51.5873 136.676 51.6216 136.908 51.61 137.14C51.5984 137.372 51.541 137.599 51.4412 137.809C51.3414 138.019 51.201 138.207 51.0282 138.363C50.8553 138.519 50.6534 138.64 50.4338 138.718V138.718Z" fill="white"/>
<path d="M25.4262 137.312L19.2959 139.492C18.8528 139.649 18.3658 139.623 17.9414 139.422C17.5171 139.221 17.1901 138.86 17.0321 138.419C16.8741 137.978 16.8981 137.493 17.0987 137.07C17.2993 136.646 17.6602 136.319 18.1023 136.161V136.161L24.2326 133.98C24.6756 133.824 25.1627 133.85 25.587 134.051C26.0114 134.252 26.3384 134.612 26.4964 135.053C26.6543 135.494 26.6304 135.98 26.4298 136.403C26.2292 136.827 25.8683 137.153 25.4262 137.312V137.312Z" fill="white"/>
<path d="M55.681 153.365L27.816 163.275C27.3726 163.433 26.8845 163.409 26.459 163.208C26.0335 163.007 25.7056 162.646 25.5473 162.204C25.389 161.762 25.4134 161.276 25.615 160.852C25.8166 160.428 26.179 160.101 26.6224 159.943V159.943L54.4875 150.033C54.707 149.955 54.9399 149.921 55.1727 149.932C55.4055 149.944 55.6338 150.001 55.8445 150.1C56.0551 150.2 56.2441 150.34 56.4005 150.512C56.5569 150.684 56.6778 150.886 56.7562 151.104C56.8345 151.323 56.8689 151.555 56.8573 151.787C56.8456 152.019 56.7883 152.246 56.6884 152.456C56.5886 152.666 56.4483 152.855 56.2754 153.01C56.1026 153.166 55.9006 153.287 55.681 153.365V153.365Z" fill="white"/>
<path d="M53.0574 146.041L25.1923 155.952C24.9728 156.03 24.7399 156.064 24.5071 156.052C24.2743 156.041 24.046 155.984 23.8353 155.884C23.6247 155.785 23.4357 155.645 23.2793 155.473C23.1229 155.3 23.002 155.099 22.9236 154.88C22.8453 154.662 22.8109 154.43 22.8225 154.198C22.8341 153.966 22.8915 153.738 22.9913 153.528C23.0912 153.318 23.2315 153.13 23.4044 152.974C23.5772 152.818 23.7792 152.698 23.9988 152.62V152.62L51.8638 142.709C52.0834 142.631 52.3162 142.597 52.549 142.609C52.7819 142.62 53.0101 142.677 53.2208 142.777C53.4315 142.876 53.6204 143.016 53.7769 143.188C53.9333 143.361 54.0541 143.562 54.1325 143.781C54.2109 143.999 54.2452 144.231 54.2336 144.463C54.222 144.695 54.1646 144.923 54.0648 145.133C53.965 145.343 53.8246 145.531 53.6518 145.687C53.4789 145.843 53.2769 145.963 53.0574 146.041V146.041Z" fill="white"/>
<path d="M24.4578 120.777C28.5458 120.777 31.8598 117.475 31.8598 113.401C31.8598 109.328 28.5458 106.026 24.4578 106.026C20.3698 106.026 17.0558 109.328 17.0558 113.401C17.0558 117.475 20.3698 120.777 24.4578 120.777Z" fill="#3F3D56"/>
<path d="M296.208 447.543C282.47 447.474 269.806 443.858 258.564 435.543C257.802 435.299 257.169 434.764 256.802 434.056C256.436 433.347 256.367 432.522 256.61 431.763L265.706 403.436C265.95 402.677 266.487 402.046 267.198 401.681C267.909 401.315 268.737 401.246 269.499 401.488L307.143 413.489C307.905 413.733 308.539 414.268 308.905 414.976C309.271 415.685 309.341 416.509 309.098 417.269L300.002 445.596C299.757 446.355 299.22 446.986 298.509 447.351C297.798 447.716 296.971 447.786 296.208 447.543V447.543Z" fill="white"/>
<path opacity="0.2" d="M299.523 442.103C299.278 442.862 298.742 443.493 298.031 443.858C297.319 444.223 296.492 444.292 295.73 444.05C281.992 443.981 269.327 440.364 258.085 432.049C257.586 431.887 257.139 431.596 256.789 431.206L256.61 431.763C256.367 432.523 256.436 433.347 256.802 434.056C257.169 434.764 257.802 435.299 258.564 435.543C269.806 443.858 282.47 447.474 296.208 447.543C296.971 447.785 297.798 447.716 298.509 447.351C299.22 446.986 299.757 446.355 300.002 445.596L309.098 417.269C309.258 416.765 309.281 416.228 309.166 415.713C309.05 415.197 308.8 414.721 308.44 414.333L299.523 442.103Z" fill="black"/>
<path d="M285.292 414.832L279.25 433.832C279.203 433.982 279.127 434.121 279.026 434.242C278.925 434.363 278.801 434.463 278.661 434.536C278.522 434.609 278.369 434.654 278.212 434.668C278.055 434.682 277.896 434.665 277.746 434.618C277.595 434.571 277.455 434.495 277.334 434.395C277.213 434.294 277.113 434.17 277.04 434.031C276.967 433.892 276.922 433.739 276.908 433.583C276.894 433.426 276.911 433.268 276.959 433.119L276.962 433.109L283.004 414.11C283.102 413.809 283.315 413.559 283.597 413.414C283.879 413.269 284.207 413.241 284.509 413.336C284.812 413.432 285.064 413.643 285.211 413.923C285.358 414.204 285.387 414.53 285.292 414.832V414.832Z" fill="#141850"/>
<path d="M274.305 427.671L272.976 431.851C272.929 432.001 272.852 432.14 272.751 432.26C272.65 432.381 272.527 432.48 272.387 432.553C272.247 432.626 272.095 432.671 271.938 432.685C271.781 432.699 271.623 432.682 271.472 432.635C271.322 432.589 271.182 432.513 271.061 432.412C270.94 432.312 270.84 432.188 270.767 432.049C270.694 431.91 270.649 431.758 270.635 431.601C270.621 431.445 270.637 431.287 270.684 431.138L270.687 431.128L272.017 426.948C272.064 426.798 272.14 426.659 272.241 426.539C272.342 426.418 272.466 426.319 272.605 426.246C272.745 426.173 272.898 426.128 273.055 426.114C273.212 426.1 273.37 426.117 273.52 426.163C273.671 426.21 273.81 426.286 273.931 426.387C274.052 426.487 274.152 426.611 274.225 426.75C274.299 426.889 274.343 427.041 274.358 427.198C274.372 427.354 274.355 427.512 274.308 427.662L274.305 427.671Z" fill="#141850"/>
<path d="M295.352 418.009L289.309 437.008C289.262 437.158 289.186 437.297 289.085 437.418C288.984 437.538 288.86 437.638 288.721 437.711C288.581 437.784 288.429 437.828 288.272 437.842C288.115 437.857 287.956 437.84 287.806 437.793C287.656 437.746 287.516 437.67 287.395 437.57C287.274 437.469 287.174 437.346 287.101 437.206C287.028 437.067 286.983 436.915 286.969 436.759C286.954 436.602 286.971 436.445 287.018 436.295L287.021 436.286L293.064 417.286C293.111 417.136 293.187 416.996 293.288 416.875C293.388 416.755 293.512 416.655 293.652 416.582C293.792 416.508 293.945 416.463 294.102 416.449C294.259 416.435 294.417 416.452 294.568 416.499C294.719 416.546 294.859 416.622 294.98 416.723C295.101 416.823 295.201 416.947 295.274 417.086C295.347 417.226 295.392 417.378 295.406 417.535C295.42 417.691 295.402 417.849 295.355 417.999L295.352 418.009Z" fill="#141850"/>
<path d="M290.322 416.42L284.28 435.42C284.233 435.57 284.157 435.709 284.056 435.83C283.955 435.951 283.831 436.051 283.691 436.124C283.552 436.197 283.399 436.242 283.242 436.256C283.085 436.27 282.926 436.253 282.776 436.206C282.625 436.159 282.485 436.084 282.364 435.983C282.243 435.882 282.143 435.758 282.07 435.619C281.997 435.48 281.952 435.328 281.938 435.171C281.924 435.014 281.941 434.857 281.988 434.707L281.991 434.697L288.034 415.698C288.081 415.548 288.157 415.409 288.258 415.288C288.359 415.168 288.483 415.068 288.623 414.995C288.762 414.922 288.915 414.878 289.072 414.864C289.229 414.849 289.387 414.866 289.538 414.913C289.688 414.96 289.828 415.036 289.949 415.136C290.07 415.237 290.17 415.36 290.243 415.5C290.316 415.639 290.361 415.791 290.375 415.947C290.389 416.104 290.372 416.261 290.325 416.411L290.322 416.42Z" fill="#141850"/>
<path d="M260.991 423.397C263.754 423.397 265.995 421.164 265.995 418.411C265.995 415.657 263.754 413.424 260.991 413.424C258.227 413.424 255.986 415.657 255.986 418.411C255.986 421.164 258.227 423.397 260.991 423.397Z" fill="#CCCCCC"/>
<path d="M371.153 223.725C371.642 221.802 369.79 219.676 367.016 218.976C364.242 218.275 361.598 219.266 361.109 221.189C360.62 223.111 362.472 225.238 365.245 225.938C368.019 226.638 370.664 225.648 371.153 223.725Z" fill="#DAFFD4"/>
<path d="M337.281 223.508C337.77 221.585 335.918 219.459 333.144 218.758C330.37 218.058 327.725 219.049 327.236 220.971C326.747 222.894 328.599 225.02 331.373 225.72C334.147 226.421 336.792 225.43 337.281 223.508Z" fill="#3F3D56"/>
<path d="M377.509 251.726C377.998 249.803 376.146 247.677 373.373 246.976C370.599 246.276 367.954 247.267 367.465 249.189C366.976 251.112 368.828 253.238 371.602 253.939C374.376 254.639 377.02 253.648 377.509 251.726Z" fill="#FF6584"/>
<path d="M385.405 262.284C385.606 260.493 384.755 258.929 383.505 258.79C382.255 258.65 381.079 259.989 380.878 261.78C380.677 263.571 381.528 265.135 382.778 265.275C384.028 265.414 385.205 264.075 385.405 262.284Z" fill="#E6E6E6"/>
<path d="M388.191 283.433C388.391 281.643 387.541 280.078 386.291 279.939C385.04 279.8 383.864 281.139 383.663 282.929C383.462 284.72 384.313 286.284 385.563 286.424C386.814 286.563 387.99 285.224 388.191 283.433Z" fill="#3F3D56"/>
<path d="M353.561 243.129C353.762 241.339 352.911 239.774 351.661 239.635C350.411 239.496 349.234 240.835 349.034 242.625C348.833 244.416 349.683 245.981 350.934 246.12C352.184 246.259 353.36 244.92 353.561 243.129Z" fill="#E6E6E6"/>
<path d="M370.607 236.749C370.808 234.958 369.957 233.393 368.707 233.254C367.457 233.115 366.281 234.454 366.08 236.244C365.879 238.035 366.73 239.6 367.98 239.739C369.23 239.878 370.406 238.539 370.607 236.749Z" fill="#FF6584"/>
<path d="M349.607 219.51C349.808 217.719 348.957 216.155 347.707 216.015C346.457 215.876 345.28 217.215 345.08 219.006C344.879 220.797 345.73 222.361 346.98 222.5C348.23 222.639 349.406 221.301 349.607 219.51Z" fill="#3F3D56"/>
<path d="M54.8855 211.758C55.3745 209.836 53.5224 207.709 50.7487 207.009C47.975 206.309 45.3301 207.299 44.8411 209.222C44.3521 211.144 46.2042 213.271 48.9779 213.971C51.7516 214.672 54.3965 213.681 54.8855 211.758Z" fill="#DAFFD4"/>
<path d="M21.0132 211.541C21.5022 209.618 19.6501 207.492 16.8764 206.792C14.1027 206.091 11.4577 207.082 10.9688 209.005C10.4798 210.927 12.3319 213.053 15.1056 213.754C17.8793 214.454 20.5242 213.463 21.0132 211.541Z" fill="#3F3D56"/>
<path d="M61.2418 239.759C61.7308 237.837 59.8787 235.71 57.105 235.01C54.3313 234.31 51.6864 235.3 51.1974 237.223C50.7084 239.145 52.5605 241.272 55.3342 241.972C58.1079 242.672 60.7529 241.682 61.2418 239.759Z" fill="#FF6584"/>
<path d="M69.1379 250.317C69.3387 248.527 68.488 246.962 67.2377 246.823C65.9875 246.684 64.8112 248.023 64.6104 249.813C64.4096 251.604 65.2603 253.169 66.5105 253.308C67.7607 253.447 68.9371 252.108 69.1379 250.317Z" fill="#E6E6E6"/>
<path d="M71.9232 271.466C72.124 269.676 71.2733 268.111 70.023 267.972C68.7728 267.833 67.5965 269.172 67.3957 270.962C67.1948 272.753 68.0456 274.318 69.2958 274.457C70.546 274.596 71.7223 273.257 71.9232 271.466Z" fill="#3F3D56"/>
<path d="M37.2935 231.162C37.4943 229.372 36.6436 227.807 35.3934 227.668C34.1431 227.529 32.9668 228.868 32.766 230.658C32.5652 232.449 33.4159 234.014 34.6662 234.153C35.9164 234.292 37.0927 232.953 37.2935 231.162Z" fill="#E6E6E6"/>
<path d="M54.3396 224.782C54.5405 222.991 53.6897 221.427 52.4395 221.287C51.1893 221.148 50.013 222.487 49.8122 224.278C49.6113 226.069 50.4621 227.633 51.7123 227.772C52.9625 227.911 54.1388 226.573 54.3396 224.782Z" fill="#FF6584"/>
<path d="M33.3396 207.543C33.5404 205.752 32.6897 204.188 31.4395 204.049C30.1892 203.909 29.0129 205.248 28.8121 207.039C28.6113 208.83 29.462 210.394 30.7122 210.534C31.9625 210.673 33.1388 209.334 33.3396 207.543Z" fill="#3F3D56"/>
<path d="M271.025 307.41C262.77 296.469 257.998 284.233 257.842 270.284C257.576 269.532 257.62 268.706 257.964 267.987C258.309 267.267 258.926 266.714 259.68 266.447L287.82 256.526C288.574 256.261 289.403 256.305 290.125 256.649C290.847 256.992 291.403 257.607 291.671 258.358L304.855 295.484C305.121 296.235 305.076 297.062 304.732 297.781C304.387 298.5 303.77 299.054 303.017 299.321L274.876 309.242C274.122 309.507 273.293 309.463 272.571 309.119C271.849 308.776 271.293 308.161 271.025 307.41V307.41Z" fill="white"/>
<path opacity="0.2" d="M277.379 306.748C276.624 307.014 275.795 306.97 275.073 306.626C274.351 306.283 273.795 305.668 273.528 304.917C265.272 293.976 260.5 281.74 260.344 267.791C260.172 267.297 260.134 266.766 260.234 266.252L259.68 266.447C258.926 266.714 258.309 267.268 257.965 267.987C257.62 268.706 257.576 269.532 257.842 270.284C257.998 284.233 262.77 296.469 271.026 307.41C271.293 308.161 271.849 308.776 272.571 309.119C273.293 309.463 274.122 309.507 274.877 309.242L303.017 299.321C303.516 299.143 303.959 298.837 304.301 298.433C304.643 298.03 304.872 297.543 304.965 297.023L277.379 306.748Z" fill="black"/>
<path d="M290.562 278.96L271.723 285.661C271.424 285.767 271.094 285.751 270.806 285.615C270.518 285.479 270.297 285.235 270.19 284.936C270.083 284.638 270.099 284.309 270.235 284.022C270.372 283.736 270.617 283.515 270.916 283.408L289.755 276.708C289.904 276.655 290.061 276.632 290.218 276.64C290.376 276.648 290.53 276.686 290.673 276.753C290.815 276.821 290.943 276.915 291.049 277.032C291.154 277.148 291.236 277.284 291.289 277.432C291.342 277.58 291.365 277.737 291.357 277.894C291.349 278.051 291.311 278.204 291.243 278.346C291.176 278.488 291.081 278.615 290.964 278.721C290.847 278.826 290.711 278.908 290.562 278.96V278.96Z" fill="#141850"/>
<path d="M273.655 278.01L269.511 279.484C269.362 279.537 269.205 279.56 269.048 279.553C268.89 279.545 268.736 279.507 268.593 279.44C268.451 279.373 268.323 279.278 268.217 279.162C268.111 279.046 268.029 278.91 267.976 278.762C267.923 278.614 267.9 278.457 267.907 278.3C267.915 278.143 267.953 277.99 268.021 277.848C268.088 277.706 268.183 277.578 268.3 277.473C268.416 277.367 268.553 277.286 268.701 277.233L268.704 277.232L272.848 275.758C273.148 275.651 273.478 275.668 273.765 275.804C274.052 275.94 274.274 276.184 274.381 276.482C274.488 276.781 274.471 277.109 274.335 277.396C274.199 277.682 273.955 277.903 273.655 278.01V278.01Z" fill="#141850"/>
<path d="M294.11 288.863L275.271 295.563C275.123 295.616 274.965 295.639 274.808 295.632C274.65 295.624 274.496 295.586 274.353 295.519C274.211 295.451 274.083 295.357 273.977 295.241C273.871 295.124 273.789 294.988 273.736 294.841C273.683 294.693 273.66 294.536 273.667 294.379C273.675 294.222 273.714 294.068 273.781 293.926C273.848 293.784 273.943 293.657 274.06 293.552C274.176 293.446 274.313 293.364 274.461 293.312L274.464 293.311L293.303 286.61C293.602 286.504 293.932 286.521 294.219 286.657C294.507 286.793 294.728 287.037 294.835 287.335C294.942 287.634 294.926 287.962 294.79 288.249C294.654 288.535 294.409 288.756 294.11 288.863V288.863Z" fill="#141850"/>
<path d="M292.336 283.912L273.497 290.612C273.349 290.665 273.191 290.688 273.034 290.68C272.877 290.673 272.722 290.634 272.58 290.567C272.437 290.5 272.309 290.406 272.203 290.29C272.098 290.173 272.016 290.037 271.962 289.889C271.909 289.742 271.886 289.585 271.894 289.428C271.901 289.271 271.94 289.117 272.007 288.975C272.074 288.833 272.169 288.706 272.286 288.6C272.403 288.495 272.539 288.413 272.688 288.36L272.69 288.359L291.529 281.659C291.829 281.552 292.159 281.568 292.446 281.704C292.734 281.839 292.956 282.083 293.064 282.382C293.171 282.68 293.155 283.009 293.019 283.296C292.883 283.582 292.638 283.804 292.339 283.911L292.336 283.912Z" fill="#141850"/>
<path d="M273.001 266.831C275.764 266.831 278.005 264.599 278.005 261.845C278.005 259.091 275.764 256.859 273.001 256.859C270.237 256.859 267.996 259.091 267.996 261.845C267.996 264.599 270.237 266.831 273.001 266.831Z" fill="#CCCCCC"/>
</g>
<defs>
<clipPath id="clip0_2_2">
<rect width="390" height="550" fill="white"/>
</clipPath>
</defs>
</svg>
