<svg width="390" height="550" viewBox="0 0 390 550" fill="none" xmlns="http://www.w3.org/2000/svg">
<g clip-path="url(#clip0_215_14)">
<path d="M5.36057e-06 548.814C-0.000463238 548.969 0.0297948 549.123 0.0890394 549.267C0.148284 549.41 0.235361 549.541 0.345299 549.651C0.455237 549.762 0.585856 549.849 0.729749 549.909C0.873642 549.969 1.02799 550 1.18393 550H388.809C389.125 550 389.428 549.875 389.651 549.653C389.875 549.43 390 549.128 390 548.814C390 548.499 389.875 548.197 389.651 547.975C389.428 547.752 389.125 547.627 388.809 547.627H1.19102C1.03507 547.626 0.880537 547.657 0.736285 547.716C0.592033 547.775 0.460873 547.861 0.350277 547.971C0.239681 548.081 0.151829 548.211 0.0917273 548.354C0.0316257 548.498 0.000462072 548.651 5.36057e-06 548.807V548.814Z" fill="#CCCCCC"/>
<path opacity="0.5" d="M154.903 386.284C159.126 385.433 163.451 385.199 167.742 385.59C168.139 385.587 168.519 385.428 168.8 385.149C169.081 384.869 169.24 384.49 169.243 384.094C169.235 383.7 169.074 383.324 168.794 383.045C168.514 382.767 168.137 382.606 167.742 382.598C163.181 382.204 158.587 382.474 154.105 383.4C153.721 383.505 153.396 383.759 153.199 384.103C153.003 384.448 152.952 384.857 153.058 385.239C153.164 385.622 153.417 385.946 153.763 386.142C154.109 386.338 154.519 386.389 154.903 386.284H154.903Z" fill="#CCCCCC"/>
<path d="M51.84 360.263C43.5843 349.322 38.8126 337.086 38.6562 323.137C38.3903 322.385 38.4344 321.559 38.779 320.84C39.1236 320.121 39.7405 319.567 40.4943 319.3L68.6343 309.379C69.3888 309.114 70.2179 309.158 70.9399 309.502C71.6618 309.845 72.2176 310.46 72.4853 311.211L85.6692 348.337C85.9351 349.088 85.891 349.915 85.5464 350.634C85.2018 351.353 84.585 351.907 83.8311 352.174L55.6911 362.095C54.9366 362.36 54.1074 362.316 53.3855 361.972C52.6635 361.629 52.1078 361.014 51.84 360.263V360.263Z" fill="#A3A9FF"/>
<path opacity="0.2" d="M58.1932 359.602C57.4387 359.867 56.6096 359.823 55.8876 359.48C55.1657 359.137 54.6099 358.522 54.3422 357.771C46.0864 346.829 41.3147 334.594 41.1583 320.645C40.9861 320.15 40.9481 319.619 41.0481 319.105L40.4943 319.301C39.7405 319.567 39.1236 320.121 38.779 320.841C38.4344 321.56 38.3902 322.386 38.6562 323.138C38.8126 337.087 43.5843 349.322 51.8401 360.264C52.1078 361.015 52.6636 361.63 53.3855 361.973C54.1075 362.316 54.9366 362.36 55.691 362.095L83.8311 352.174C84.3303 351.997 84.7735 351.69 85.1156 351.287C85.4578 350.883 85.6868 350.397 85.7794 349.877L58.1932 359.602Z" fill="black"/>
<path d="M71.3769 331.813L52.5382 338.513C52.2384 338.62 51.9084 338.604 51.6208 338.468C51.3332 338.332 51.1114 338.088 51.0044 337.789C50.8974 337.49 50.9139 337.162 51.0502 336.875C51.1865 336.588 51.4315 336.368 51.7313 336.261L70.5699 329.561C70.8695 329.455 71.1989 329.472 71.4859 329.608C71.7729 329.744 71.994 329.988 72.1008 330.286C72.2076 330.584 72.1914 330.912 72.0557 331.199C71.92 331.485 71.6759 331.706 71.3769 331.813H71.3769Z" fill="white"/>
<path d="M54.47 330.864L50.3254 332.338C50.1771 332.391 50.0197 332.415 49.8621 332.408C49.7045 332.401 49.5499 332.363 49.4071 332.296C49.2643 332.229 49.1361 332.135 49.0299 332.019C48.9236 331.903 48.8414 331.767 48.7879 331.619C48.7344 331.471 48.7107 331.314 48.7181 331.157C48.7255 331 48.7639 330.846 48.8311 330.704C48.8983 330.562 48.993 330.434 49.1097 330.328C49.2264 330.223 49.3629 330.141 49.5114 330.088L49.5185 330.085L53.663 328.611C53.9625 328.506 54.2918 328.523 54.5786 328.659C54.8655 328.795 55.0865 329.039 55.1933 329.337C55.3001 329.635 55.2839 329.963 55.1483 330.249C55.0127 330.535 54.7688 330.756 54.47 330.864V330.864Z" fill="white"/>
<path d="M74.9241 341.716L56.0855 348.417C55.786 348.522 55.4567 348.505 55.1699 348.369C54.883 348.233 54.662 347.989 54.5552 347.691C54.4484 347.393 54.4646 347.065 54.6002 346.779C54.7358 346.492 54.9797 346.271 55.2786 346.164L74.1173 339.464C74.4166 339.357 74.7464 339.372 75.0341 339.507C75.3218 339.642 75.5441 339.886 75.6519 340.184C75.7598 340.482 75.7445 340.811 75.6094 341.097C75.4743 341.384 75.2304 341.606 74.9314 341.714L74.9241 341.716Z" fill="white"/>
<path d="M73.1508 336.765L54.3121 343.466C54.0124 343.573 53.6824 343.557 53.3946 343.421C53.1068 343.286 52.8847 343.042 52.7774 342.743C52.67 342.445 52.6861 342.116 52.822 341.829C52.958 341.542 53.2027 341.321 53.5024 341.214L53.5051 341.213L72.3438 334.513C72.6433 334.407 72.9727 334.424 73.2597 334.56C73.5466 334.696 73.7678 334.94 73.8746 335.238C73.9815 335.536 73.9652 335.865 73.8295 336.151C73.6938 336.437 73.4497 336.658 73.1507 336.765H73.1508Z" fill="white"/>
<path d="M53.8148 319.684C56.5785 319.684 58.819 317.452 58.819 314.698C58.819 311.944 56.5785 309.712 53.8148 309.712C51.051 309.712 48.8105 311.944 48.8105 314.698C48.8105 317.452 51.051 319.684 53.8148 319.684Z" fill="#CCCCCC"/>
<path d="M236.97 99.3359C237.051 106.636 239.382 121.833 237.711 128.984L237.441 128.385C236.052 129.483 234.575 130.466 233.027 131.327C231.91 128.62 230.24 126.175 228.123 124.147C228.402 127.503 228.004 130.88 226.952 134.079C220.697 136.323 209.717 129.253 202.912 129.103C191.962 128.854 181.293 126.141 170.835 123.269C167.121 122.252 163.038 120.926 161.356 117.854C159.675 114.783 162.684 111.468 162.487 108.002C161.085 83.3147 172.886 79.1767 184.116 72.5802C186.587 71.1285 187.799 68.0029 190.591 66.7862C194.465 65.1009 199.078 65.9087 203.292 66.7563C202.246 66.4128 201.305 65.8067 200.562 64.9963C199.819 64.1859 199.298 63.1985 199.048 62.1292C198.873 61.081 198.991 60.0049 199.39 59.0195C199.789 58.0341 200.454 57.1777 201.31 56.5447C203.632 54.7596 207.095 54.5402 210.058 55.2981C212.92 56.1899 215.627 57.5151 218.084 59.2272C219.753 60.1392 221.245 61.3416 222.488 62.7774C223.074 63.4569 223.438 64.2983 223.531 65.1894C223.624 66.0804 223.442 66.9785 223.009 67.7635C222.475 68.4365 221.795 68.9806 221.02 69.3553C220.245 69.73 219.396 69.9256 218.535 69.9275C217.208 69.966 215.882 69.8285 214.592 69.5187C220.507 70.9725 225.837 74.1865 229.874 78.7331C234.889 84.5469 236.88 92.0361 236.97 99.3359Z" fill="#2F2E41"/>
<path d="M62.0229 169.685C63.0406 171.837 64.861 173.509 67.0968 174.344C69.3325 175.179 71.8072 175.113 73.9942 174.158C74.4356 173.957 74.8596 173.719 75.2618 173.449L101.033 192.314L115.241 182.653L77.134 160.612C75.878 159.038 74.1341 157.921 72.1745 157.438C70.2149 156.954 68.1498 157.131 66.3014 157.94C65.2541 158.41 64.31 159.082 63.5231 159.916C62.7362 160.749 62.1218 161.73 61.7151 162.8C61.3084 163.871 61.1172 165.01 61.1526 166.155C61.188 167.299 61.4491 168.425 61.9212 169.468V169.468C61.9541 169.541 61.988 169.613 62.0229 169.685Z" fill="#FFB6B6"/>
<path d="M327.637 152.564C325.267 152.858 323.107 154.062 321.614 155.92C320.122 157.777 319.416 160.141 319.647 162.509C319.701 162.99 319.795 163.465 319.928 163.93L293.917 182.465L298.712 198.925L331.59 169.696C333.483 168.997 335.09 167.692 336.16 165.987C337.231 164.282 337.705 162.271 337.509 160.269C337.386 159.131 337.039 158.028 336.488 157.024C335.938 156.019 335.194 155.133 334.299 154.414C333.405 153.696 332.377 153.161 331.275 152.838C330.173 152.516 329.017 152.413 327.875 152.535C327.796 152.544 327.716 152.554 327.637 152.564Z" fill="#FFB6B6"/>
<path d="M139.015 532.424L130.638 532.354L126.931 499.411L139.293 499.515L139.015 532.424Z" fill="#FFB6B6"/>
<path d="M112.184 545.696C112.176 546.685 112.563 547.637 113.259 548.343C113.955 549.049 114.904 549.45 115.897 549.46L132.551 549.599L135.466 543.71L136.537 549.629L142.821 549.685L141.234 528.576L139.048 528.431L130.131 527.819L127.254 527.627L127.203 533.6L113.825 542.641C113.324 542.98 112.912 543.435 112.627 543.967C112.341 544.499 112.189 545.092 112.184 545.696Z" fill="#2F2E41"/>
<path d="M249.432 495.45L242.593 500.268L220.267 475.692L230.36 468.579L249.432 495.45Z" fill="#FFB6B6"/>
<path d="M235.44 521.84C236.014 522.647 236.886 523.195 237.865 523.362C238.844 523.53 239.849 523.304 240.661 522.733L254.258 513.15L253.171 506.674L257.51 510.854L262.643 507.242L248.977 491.034L247.118 492.189L239.522 496.884L237.075 498.403L240.536 503.279L234.981 518.405C234.773 518.972 234.706 519.581 234.786 520.179C234.866 520.777 235.09 521.347 235.44 521.84V521.84Z" fill="#2F2E41"/>
<path d="M145.297 265.338L169.628 209.039H225.672L209.507 267.794L145.297 265.338Z" fill="#FFB6B6"/>
<path d="M93.8517 532.677C93.3865 532.698 92.9259 532.576 92.5325 532.328C92.139 532.08 91.8316 531.717 91.6519 531.289C91.4723 530.861 91.429 530.388 91.5281 529.935C91.6271 529.481 91.8637 529.069 92.2056 528.754L92.3612 528.138C92.3408 528.088 92.3202 528.039 92.2994 527.99C91.8307 526.887 91.0454 525.946 90.0421 525.287C89.0387 524.627 87.8621 524.277 86.66 524.282C85.4579 524.286 84.284 524.644 83.2856 525.312C82.2872 525.979 81.5089 526.925 81.0485 528.031C79.2083 532.447 76.8655 536.871 76.2887 541.54C76.0346 543.604 76.1418 545.696 76.6054 547.723C72.2834 538.329 70.0392 528.119 70.0247 517.785C70.0238 515.192 70.1684 512.601 70.4578 510.024C70.697 507.911 71.0289 505.814 71.4534 503.731C73.7699 492.431 78.7435 481.84 85.9658 472.827C89.4614 470.927 92.2883 468.004 94.0656 464.454C94.7095 463.178 95.1646 461.815 95.4167 460.409C95.0224 460.46 93.9299 454.477 94.2273 454.11C93.6778 453.279 92.6942 452.866 92.0941 452.055C89.1092 448.023 84.9969 448.727 82.85 454.206C78.2639 456.513 78.2195 460.337 81.0335 464.016C82.8238 466.356 83.0698 469.523 84.6406 472.028C84.479 472.235 84.3109 472.434 84.1493 472.64C81.1951 476.425 78.6203 480.49 76.4618 484.775C76.9867 479.974 76.3602 475.118 74.6338 470.605C72.8842 466.399 69.6047 462.857 66.7167 459.222C65.9528 458.245 64.9156 457.516 63.7359 457.126C62.5563 456.737 61.2872 456.705 60.0893 457.034C58.8913 457.363 57.8181 458.039 57.0053 458.975C56.1926 459.912 55.6769 461.068 55.5232 462.296C55.5173 462.35 55.5115 462.404 55.5059 462.457C55.9349 462.698 56.3548 462.954 56.7656 463.225C57.2817 463.569 57.6817 464.059 57.913 464.633C58.1443 465.207 58.1962 465.837 58.062 466.441C57.9277 467.045 57.6135 467.595 57.1605 468.017C56.7076 468.44 56.137 468.717 55.5235 468.811L55.4607 468.821C55.6135 470.361 55.8836 471.888 56.2687 473.388C52.5638 487.664 60.5625 492.863 71.9835 493.097C72.2356 493.226 72.4813 493.355 72.7334 493.477C70.5647 499.601 69.2044 505.979 68.6867 512.452C68.3935 516.271 68.4108 520.107 68.7384 523.923L68.719 523.788C67.8915 519.545 65.6196 515.716 62.2869 512.948C57.3371 508.897 50.344 507.405 45.0041 504.148C44.4366 503.785 43.7767 503.591 43.1023 503.59C42.4279 503.588 41.767 503.779 41.1977 504.139C40.6285 504.499 40.1745 505.014 39.8893 505.623C39.6041 506.232 39.4997 506.91 39.5883 507.576L39.6101 507.718C40.4061 508.041 41.1812 508.413 41.9308 508.832C42.3597 509.073 42.7796 509.329 43.1905 509.6C43.7066 509.944 44.1065 510.435 44.3378 511.008C44.5691 511.582 44.6211 512.213 44.4868 512.816C44.3525 513.42 44.0383 513.97 43.5854 514.393C43.1324 514.815 42.5618 515.092 41.9483 515.186L41.8855 515.196C41.8402 515.202 41.8014 515.209 41.7562 515.215C43.1164 518.451 45.0253 521.43 47.3996 524.02C49.7162 536.483 59.6659 537.665 70.3092 534.036H70.3156C71.4834 539.092 73.1753 544.014 75.3642 548.721H93.3997C93.4644 548.522 93.5225 548.315 93.5808 548.116C91.9113 548.22 90.2354 548.121 88.5902 547.82C89.9284 546.184 91.2665 544.535 92.6046 542.899C92.6345 542.868 92.6626 542.836 92.6887 542.802C93.3674 541.965 94.0527 541.134 94.7314 540.297L94.7318 540.296C94.768 537.729 94.4724 535.168 93.8523 532.677L93.8517 532.677Z" fill="#5FA054"/>
<path d="M289.012 532.676C289.477 532.698 289.938 532.576 290.332 532.328C290.725 532.08 291.032 531.717 291.212 531.289C291.392 530.861 291.435 530.388 291.336 529.934C291.237 529.481 291 529.069 290.658 528.754L290.503 528.138C290.523 528.088 290.544 528.039 290.565 527.99C291.033 526.887 291.819 525.946 292.822 525.286C293.825 524.627 295.002 524.277 296.204 524.282C297.406 524.286 298.58 524.644 299.578 525.311C300.577 525.979 301.355 526.925 301.815 528.031C303.656 532.447 305.998 536.871 306.575 541.54C306.829 543.604 306.722 545.696 306.259 547.723C310.581 538.329 312.825 528.119 312.839 517.785C312.84 515.192 312.696 512.601 312.406 510.024C312.167 507.911 311.835 505.814 311.411 503.731C309.094 492.431 304.12 481.84 296.898 472.827C293.403 470.927 290.576 468.004 288.798 464.454C288.154 463.178 287.699 461.815 287.447 460.409C287.842 460.46 288.934 454.477 288.637 454.11C289.186 453.279 290.17 452.866 290.77 452.055C293.755 448.023 297.867 448.727 300.014 454.206C304.6 456.513 304.645 460.337 301.831 464.016C300.04 466.356 299.794 469.523 298.223 472.028C298.385 472.235 298.553 472.434 298.715 472.64C301.669 476.425 304.244 480.49 306.402 484.775C305.877 479.974 306.504 475.118 308.23 470.605C309.98 466.399 313.259 462.857 316.147 459.222C316.911 458.245 317.948 457.516 319.128 457.126C320.308 456.737 321.577 456.705 322.775 457.034C323.973 457.363 325.046 458.039 325.859 458.975C326.671 459.912 327.187 461.068 327.341 462.296C327.347 462.35 327.352 462.404 327.358 462.457C326.929 462.698 326.509 462.954 326.098 463.225C325.582 463.569 325.182 464.059 324.951 464.633C324.72 465.207 324.668 465.838 324.802 466.441C324.936 467.045 325.251 467.595 325.703 468.017C326.156 468.44 326.727 468.717 327.34 468.811L327.403 468.821C327.25 470.361 326.98 471.888 326.595 473.388C330.3 487.664 322.302 492.863 310.88 493.097C310.628 493.226 310.383 493.355 310.131 493.477C312.299 499.601 313.66 505.979 314.177 512.452C314.47 516.271 314.453 520.107 314.126 523.923L314.145 523.788C314.972 519.545 317.244 515.716 320.577 512.948C325.527 508.897 332.52 507.405 337.86 504.148C338.427 503.785 339.087 503.591 339.762 503.59C340.436 503.588 341.097 503.779 341.666 504.139C342.235 504.499 342.689 505.014 342.975 505.623C343.26 506.232 343.364 506.91 343.276 507.576L343.254 507.718C342.458 508.041 341.683 508.413 340.933 508.832C340.504 509.073 340.084 509.329 339.673 509.6C339.157 509.944 338.757 510.434 338.526 511.008C338.295 511.582 338.243 512.213 338.377 512.816C338.511 513.42 338.826 513.97 339.279 514.392C339.731 514.815 340.302 515.092 340.916 515.186L340.978 515.196C341.024 515.202 341.062 515.209 341.108 515.215C339.748 518.451 337.839 521.429 335.464 524.02C333.148 536.483 323.198 537.665 312.555 534.036H312.548C311.38 539.092 309.689 544.014 307.5 548.721H289.464C289.399 548.522 289.341 548.315 289.283 548.116C290.953 548.22 292.629 548.121 294.274 547.82C292.936 546.183 291.597 544.535 290.259 542.899C290.229 542.868 290.201 542.836 290.175 542.802C289.496 541.965 288.811 541.134 288.132 540.296L288.132 540.295C288.096 537.729 288.392 535.168 289.012 532.677L289.012 532.676Z" fill="#5FA054"/>
<path d="M145.297 261.109L121.14 311.322L122.864 511.423H143.555C143.555 511.423 147.578 506.017 147.578 502.229C147.578 498.441 140.735 497.892 145.297 493.242C149.859 488.593 151.38 487.077 151.38 482.532V409.81L167.694 339.314L165.97 416.773L224.594 486.488L238.251 472.881C238.251 472.881 242.245 471.127 238.251 467.359C234.257 463.592 231.767 470.246 231.491 459.722C231.216 449.197 233.497 451.47 231.216 449.198C228.935 446.925 197.006 408.948 197.006 408.948C197.006 408.948 225.893 286.314 211.447 262.828L145.297 261.109Z" fill="#2F2E41"/>
<path d="M212.968 266.617C212.968 266.617 150.619 244.646 155.181 232.525C159.744 220.403 167.407 222.736 158.253 218.918C149.099 215.1 143.034 214.342 148.728 209.039C154.421 203.736 162.785 198.433 162.785 193.13C162.785 187.827 169.628 146.159 169.628 146.159H180.583L191.678 127.219H207.352L215.249 144.644H231.922L232.737 171.159C232.737 171.159 233.814 222.384 228.713 224.424C223.613 226.464 219.05 226.464 223.613 231.01C228.175 235.555 230.773 237.906 228.713 242.034C226.654 246.162 212.968 266.617 212.968 266.617Z" fill="#5FA054"/>
<path d="M222.092 152.22L231.922 144.644C231.922 144.644 248.704 144.644 250.985 153.735C253.266 162.826 266.995 185.058 266.995 185.058C266.995 185.058 280.638 177.22 285.961 177.22C291.283 177.22 295.085 181.008 295.085 176.463C295.085 171.917 292.043 171.16 296.606 171.16C301.168 171.16 313.333 166.614 313.333 166.614L326.31 179.544C326.31 179.544 324.738 191.615 319.416 190.857C314.093 190.099 311.052 186.311 311.052 190.857C311.052 195.403 314.094 202.221 307.25 202.979C300.407 203.736 254.787 215.1 254.787 215.1L223.612 169.644L222.092 152.22Z" fill="#5FA054"/>
<path d="M182.554 152.22L172.723 144.644C172.723 144.644 155.942 144.644 153.661 153.735C151.38 162.826 136.885 185.058 136.885 185.058C136.885 185.058 124.008 177.22 118.685 177.22C113.363 177.22 109.561 181.008 109.561 176.463C109.561 171.917 112.602 171.16 108.04 171.16C103.478 171.16 91.3127 166.614 91.3127 166.614L78.3359 179.544C78.3359 179.544 79.9075 191.615 85.23 190.857C90.5524 190.099 93.5937 186.311 93.5937 190.857C93.5937 195.403 90.5524 202.221 97.3955 202.979C104.239 203.736 149.859 215.1 149.859 215.1L181.033 169.644L182.554 152.22Z" fill="#5FA054"/>
<path d="M197.692 123.104C211.093 123.104 221.957 112.28 221.957 98.927C221.957 85.5744 211.093 74.75 197.692 74.75C184.291 74.75 173.428 85.5744 173.428 98.927C173.428 112.28 184.291 123.104 197.692 123.104Z" fill="#FFB6B6"/>
<path d="M224.169 95.2776C221.317 98.718 217.073 98.5385 213.3 97.99C212.109 97.8205 210.918 97.631 209.727 97.4116C209.517 96.7435 209.277 96.0753 209.006 95.4271C207.89 92.7205 206.22 90.2752 204.102 88.2471C204.325 90.8986 204.119 93.5687 203.492 96.1551C201.28 95.6465 199.078 95.0781 196.886 94.4498C194.947 94.1357 193.203 93.0912 192.014 91.5322C190.826 89.9732 190.284 88.0189 190.501 86.0731C187.348 88.4665 183.915 90.5407 180.312 90.5806C178.281 90.5281 176.321 89.8287 174.718 88.5851C173.115 87.3414 171.953 85.6188 171.405 83.6698C170.424 80.6781 170.574 77.2277 170.974 73.9966C171.455 70.1573 172.536 65.939 175.138 64.3933C177.229 63.1368 179.642 64.0343 181.793 65.0515C186.534 67.3184 191.028 70.0653 195.205 73.2487L195.255 74.2958C196.336 69.1401 199.909 65.1612 203.802 64.7623C206.424 64.503 208.986 65.7096 211.458 66.9263C214.69 68.3465 217.694 70.2314 220.376 72.5207C223.406 75.2668 225.51 78.8786 226.401 82.862C227.332 87.1801 226.631 92.3058 224.169 95.2776Z" fill="#2F2E41"/>
<path d="M200.15 61.7244C200.398 61.7452 199.787 61.6055 199.986 61.6885C199.888 61.6442 199.795 61.592 199.706 61.5326C199.691 61.5228 199.493 61.364 199.622 61.4746C199.326 61.2444 199.102 60.9334 198.979 60.5794C198.703 59.719 198.575 58.8185 198.599 57.9156C198.648 56.729 198.445 55.5455 198.003 54.4426C197.872 54.1439 197.672 53.8803 197.42 53.6731C197.167 53.4658 196.869 53.3209 196.55 53.2499C196.231 53.1789 195.899 53.184 195.582 53.2647C195.265 53.3454 194.972 53.4994 194.726 53.7143C193.906 54.5145 193.842 55.8663 193.784 56.9415C193.721 58.0577 193.84 59.1767 194.135 60.2553C194.643 62.0288 195.658 63.6167 197.055 64.8257C198.67 66.2344 200.697 67.087 202.836 67.2571C203.13 67.2506 203.416 67.159 203.658 66.9935C203.901 66.8281 204.09 66.5959 204.202 66.3252C204.315 66.0546 204.346 65.7572 204.292 65.4692C204.238 65.1813 204.101 64.9153 203.897 64.7036L201.211 62.1625C200.93 61.8819 200.548 61.7243 200.15 61.7243C199.751 61.7243 199.369 61.8819 199.088 62.1624C198.806 62.443 198.648 62.8235 198.648 63.2202C198.648 63.6169 198.806 63.9974 199.088 64.2779L201.774 66.819L202.836 64.2655C202.393 64.2257 201.955 64.1366 201.532 63.9999C201.072 63.8728 200.634 63.6812 200.229 63.431C199.832 63.2143 199.46 62.9551 199.119 62.6582C198.901 62.4673 198.693 62.2656 198.496 62.0538C198.424 61.9768 198.354 61.8985 198.285 61.8189C198.29 61.8246 198.002 61.4648 198.126 61.6294C197.815 61.2061 197.545 60.755 197.319 60.2818C197.239 60.1142 197.173 59.9404 197.122 59.7621C197.027 59.4687 196.949 59.1701 196.889 58.8677C196.774 58.2324 196.74 57.5854 196.786 56.9415C196.799 56.6685 196.827 56.3963 196.868 56.1261C196.906 55.9836 196.934 55.8387 196.952 55.6924C196.957 55.3293 196.902 55.8864 196.712 55.971L195.954 56.1752C195.831 56.1652 195.711 56.1276 195.604 56.0653C195.498 56.0029 195.406 55.9175 195.337 55.8151C195.305 55.6903 195.314 55.7124 195.364 55.8816C195.421 56.0801 195.465 56.282 195.496 56.4862C195.554 56.9606 195.587 57.4377 195.597 57.9156C195.606 58.9281 195.724 59.9366 195.949 60.924C196.159 61.9163 196.678 62.8171 197.433 63.498C198.187 64.1789 199.138 64.6052 200.149 64.7161C200.547 64.7129 200.927 64.5543 201.207 64.2745C201.488 63.9946 201.648 63.616 201.651 63.2202C201.643 62.826 201.482 62.4501 201.202 62.1712C200.923 61.8924 200.545 61.7322 200.15 61.7244V61.7244Z" fill="#2F2E41"/>
<path d="M324.071 158.823C315.815 147.881 311.043 135.646 310.887 121.697C310.621 120.945 310.665 120.119 311.009 119.399C311.354 118.68 311.971 118.126 312.725 117.86L340.865 107.939C341.619 107.674 342.448 107.718 343.17 108.061C343.892 108.404 344.448 109.019 344.716 109.77L357.9 146.896C358.166 147.648 358.121 148.474 357.777 149.194C357.432 149.913 356.815 150.467 356.062 150.733L327.922 160.654C327.167 160.919 326.338 160.875 325.616 160.532C324.894 160.189 324.338 159.574 324.071 158.823V158.823Z" fill="#5FA054"/>
<path opacity="0.2" d="M330.424 158.161C329.669 158.426 328.84 158.382 328.118 158.038C327.396 157.695 326.84 157.08 326.573 156.329C318.317 145.388 313.545 133.153 313.389 119.203C313.217 118.709 313.179 118.178 313.279 117.664L312.725 117.859C311.971 118.126 311.354 118.68 311.009 119.399C310.665 120.118 310.621 120.945 310.887 121.696C311.043 135.646 315.815 147.881 324.071 158.822C324.338 159.574 324.894 160.188 325.616 160.532C326.338 160.875 327.167 160.919 327.922 160.654L356.062 150.733C356.561 150.555 357.004 150.249 357.346 149.845C357.688 149.442 357.917 148.955 358.01 148.435L330.424 158.161Z" fill="black"/>
<path d="M343.607 130.373L324.769 137.073C324.469 137.18 324.139 137.163 323.851 137.027C323.564 136.892 323.342 136.648 323.235 136.349C323.128 136.05 323.144 135.721 323.281 135.435C323.417 135.148 323.662 134.927 323.962 134.821L342.8 128.12C342.949 128.068 343.106 128.044 343.264 128.052C343.421 128.06 343.575 128.099 343.718 128.166C343.86 128.233 343.988 128.328 344.094 128.444C344.2 128.561 344.281 128.697 344.334 128.845C344.387 128.993 344.41 129.149 344.403 129.306C344.395 129.463 344.356 129.617 344.289 129.759C344.221 129.901 344.126 130.028 344.009 130.133C343.892 130.239 343.756 130.32 343.607 130.373V130.373Z" fill="white"/>
<path d="M326.7 129.422L322.555 130.896C322.407 130.949 322.249 130.973 322.092 130.965C321.935 130.957 321.78 130.919 321.638 130.852C321.495 130.785 321.367 130.69 321.261 130.574C321.156 130.458 321.074 130.322 321.021 130.174C320.967 130.026 320.944 129.869 320.952 129.712C320.959 129.556 320.998 129.402 321.065 129.26C321.132 129.118 321.227 128.99 321.344 128.885C321.461 128.779 321.597 128.698 321.746 128.645L321.748 128.644L325.893 127.17C326.192 127.064 326.522 127.08 326.81 127.216C327.097 127.352 327.318 127.596 327.425 127.894C327.532 128.193 327.516 128.521 327.38 128.808C327.244 129.094 326.999 129.315 326.7 129.422V129.422Z" fill="white"/>
<path d="M347.155 140.276L328.316 146.976C328.016 147.083 327.686 147.067 327.398 146.931C327.111 146.796 326.889 146.552 326.781 146.254C326.674 145.955 326.69 145.626 326.826 145.339C326.962 145.053 327.207 144.831 327.506 144.724L327.509 144.723L346.348 138.023C346.647 137.917 346.977 137.934 347.264 138.07C347.552 138.205 347.773 138.449 347.88 138.748C347.987 139.046 347.971 139.375 347.835 139.661C347.699 139.948 347.454 140.169 347.155 140.276V140.276Z" fill="white"/>
<path d="M345.38 135.325L326.542 142.025C326.393 142.078 326.236 142.101 326.078 142.093C325.921 142.086 325.767 142.047 325.624 141.98C325.482 141.913 325.354 141.819 325.248 141.702C325.142 141.586 325.06 141.45 325.007 141.302C324.954 141.154 324.93 140.998 324.938 140.841C324.946 140.684 324.984 140.53 325.052 140.388C325.119 140.246 325.214 140.119 325.33 140.013C325.447 139.908 325.584 139.826 325.732 139.773L325.735 139.772L344.573 133.072C344.722 133.019 344.879 132.996 345.036 133.003C345.194 133.011 345.348 133.049 345.491 133.117C345.633 133.184 345.761 133.278 345.867 133.394C345.973 133.511 346.055 133.647 346.108 133.794C346.161 133.942 346.185 134.099 346.177 134.256C346.169 134.413 346.131 134.567 346.063 134.709C345.996 134.851 345.901 134.978 345.785 135.084C345.668 135.189 345.531 135.271 345.383 135.324L345.38 135.325Z" fill="white"/>
<path d="M326.045 118.244C328.809 118.244 331.049 116.011 331.049 113.258C331.049 110.504 328.809 108.271 326.045 108.271C323.281 108.271 321.041 110.504 321.041 113.258C321.041 116.011 323.281 118.244 326.045 118.244Z" fill="#3F3D56"/>
<path d="M78.9378 31.731C83.9778 18.9966 91.9471 8.54404 103.797 1.11414C104.301 0.49502 105.03 0.100333 105.826 0.0166452C106.621 -0.0670423 107.418 0.167112 108.04 0.667746L131.247 19.374C131.868 19.8761 132.264 20.6032 132.348 21.3959C132.432 22.1885 132.197 22.982 131.695 23.6023L106.836 54.2191C106.332 54.8382 105.602 55.2329 104.807 55.3166C104.011 55.4003 103.215 55.1662 102.592 54.6655L79.3858 35.9592C78.7644 35.4572 78.3683 34.7301 78.2843 33.9374C78.2003 33.1447 78.4353 32.3512 78.9378 31.731Z" fill="#5FA054"/>
<path opacity="0.2" d="M82.8272 36.7798C82.2058 36.2778 81.8097 35.5507 81.7257 34.758C81.6417 33.9653 81.8767 33.1718 82.3791 32.5515C87.4192 19.8171 95.3885 9.36459 107.238 1.93469C107.571 1.52984 108.005 1.21979 108.497 1.03589L108.04 0.667758C107.418 0.167132 106.622 -0.0670378 105.826 0.0166417C105.03 0.100321 104.301 0.495018 103.797 1.11412C91.9471 8.54404 83.9778 18.9966 78.9378 31.731C78.4353 32.3512 78.2003 33.1447 78.2843 33.9374C78.3683 34.7301 78.7644 35.4572 79.3858 35.9592L102.592 54.6655C103.005 54.9964 103.499 55.2125 104.023 55.292C104.547 55.3714 105.083 55.3114 105.577 55.118L82.8272 36.7798Z" fill="black"/>
<path d="M113.492 33.4386L97.9066 20.9461C97.6594 20.747 97.5016 20.4584 97.4678 20.1435C97.4339 19.8287 97.5268 19.5133 97.726 19.2666C97.9251 19.0199 98.2144 18.8619 98.5303 18.8274C98.8462 18.7929 99.163 18.8847 99.4111 19.0825L114.997 31.575C115.244 31.7741 115.402 32.0627 115.436 32.3775C115.469 32.6923 115.377 33.0076 115.177 33.2543C114.978 33.501 114.689 33.6589 114.373 33.6935C114.057 33.728 113.741 33.6363 113.492 33.4385L113.492 33.4386Z" fill="white"/>
<path d="M105.461 18.5843L102.032 15.8359C101.786 15.6367 101.628 15.3482 101.595 15.0335C101.561 14.7189 101.654 14.4038 101.853 14.1572C102.052 13.9107 102.341 13.7528 102.657 13.7181C102.972 13.6835 103.289 13.7749 103.537 13.9724L106.966 16.7208C107.213 16.9199 107.37 17.2085 107.404 17.5232C107.438 17.8379 107.345 18.1531 107.146 18.3997C106.947 18.6463 106.658 18.8043 106.342 18.8388C106.026 18.8734 105.71 18.7819 105.461 18.5843L105.461 18.5843Z" fill="white"/>
<path d="M106.878 41.6309L91.2923 29.1385C91.0452 28.9394 90.8874 28.6508 90.8535 28.3359C90.8197 28.0211 90.9125 27.7057 91.1117 27.459C91.3109 27.2123 91.6002 27.0543 91.9161 27.0198C92.232 26.9853 92.5488 27.0771 92.7969 27.2749L108.383 39.7674C108.629 39.9666 108.787 40.2551 108.821 40.5698C108.854 40.8844 108.761 41.1995 108.562 41.4461C108.363 41.6927 108.074 41.8506 107.759 41.8852C107.443 41.9199 107.126 41.8284 106.878 41.6309H106.878Z" fill="white"/>
<path d="M110.186 37.5352L94.5999 25.0427C94.4768 24.9446 94.3743 24.8233 94.2983 24.6858C94.2223 24.5482 94.1742 24.3971 94.1568 24.241C94.1216 23.9258 94.2136 23.6096 94.4124 23.3619C94.6113 23.1142 94.9007 22.9554 95.217 22.9204C95.5334 22.8854 95.8508 22.977 96.0994 23.1751L96.1044 23.1792L111.69 35.6717C111.939 35.8698 112.098 36.1582 112.133 36.4734C112.168 36.7886 112.077 37.1049 111.878 37.3525C111.679 37.6002 111.389 37.759 111.073 37.794C110.757 37.829 110.439 37.7374 110.191 37.5393L110.186 37.5352V37.5352Z" fill="white"/>
<path d="M118.946 14.5583C121.709 14.5583 123.95 12.3259 123.95 9.5721C123.95 6.81832 121.709 4.58594 118.946 4.58594C116.182 4.58594 113.941 6.81832 113.941 9.5721C113.941 12.3259 116.182 14.5583 118.946 14.5583Z" fill="#3F3D56"/>
<path d="M21.5362 180.799C9.32476 164.615 2.26676 146.517 2.03546 125.884C1.64204 124.772 1.70733 123.55 2.21701 122.486C2.7267 121.422 3.63917 120.603 4.75423 120.209L46.3773 105.535C47.4932 105.143 48.7197 105.208 49.7875 105.715C50.8554 106.223 51.6775 107.132 52.0734 108.243L71.5742 163.158C71.9676 164.27 71.9023 165.492 71.3926 166.556C70.8829 167.62 69.9705 168.439 68.8554 168.834L27.2324 183.508C26.1164 183.9 24.89 183.835 23.8221 183.327C22.7542 182.819 21.9322 181.91 21.5362 180.799Z" fill="#5FA054"/>
<path opacity="0.2" d="M30.9334 179.82C29.8175 180.212 28.591 180.147 27.5232 179.639C26.4553 179.131 25.6332 178.222 25.2373 177.111C13.0258 160.927 5.96785 142.83 5.73646 122.197C5.4818 121.465 5.42549 120.68 5.5733 119.92L4.75422 120.209C3.63917 120.603 2.72674 121.422 2.21704 122.486C1.70734 123.55 1.64203 124.772 2.03543 125.884C2.26673 146.517 9.32467 164.615 21.5362 180.799C21.9322 181.91 22.7543 182.819 23.8221 183.327C24.89 183.835 26.1164 183.9 27.2324 183.508L68.8554 168.834C69.5939 168.571 70.2493 168.118 70.7555 167.521C71.2616 166.924 71.6003 166.204 71.7373 165.435L30.9334 179.82Z" fill="black"/>
<path d="M50.4334 138.718L22.5684 148.628C22.3487 148.707 22.1155 148.742 21.8821 148.731C21.6488 148.72 21.42 148.663 21.2088 148.564C20.9976 148.464 20.8081 148.325 20.6512 148.152C20.4944 147.98 20.3732 147.778 20.2947 147.559C20.2162 147.34 20.1819 147.107 20.1937 146.875C20.2055 146.642 20.2632 146.415 20.3636 146.204C20.4639 145.994 20.6049 145.806 20.7784 145.65C20.9519 145.494 21.1546 145.374 21.3748 145.297L49.2399 135.386C49.4594 135.308 49.6923 135.274 49.9251 135.285C50.1579 135.297 50.3862 135.354 50.5969 135.454C50.8075 135.553 50.9964 135.693 51.1529 135.865C51.3093 136.037 51.4302 136.239 51.5086 136.457C51.5869 136.676 51.6213 136.908 51.6097 137.14C51.598 137.372 51.5407 137.6 51.4408 137.81C51.341 138.019 51.2007 138.208 51.0278 138.364C50.8549 138.519 50.653 138.64 50.4334 138.718V138.718Z" fill="white"/>
<path d="M25.4261 137.312L19.2958 139.492C18.8528 139.648 18.3657 139.623 17.9414 139.422C17.517 139.221 17.19 138.86 17.032 138.419C16.8741 137.978 16.898 137.493 17.0986 137.069C17.2992 136.646 17.6601 136.319 18.1022 136.16V136.16L24.2325 133.98C24.6755 133.824 25.1626 133.849 25.587 134.05C26.0113 134.252 26.3383 134.612 26.4963 135.053C26.6543 135.494 26.6303 135.979 26.4297 136.403C26.2291 136.826 25.8682 137.153 25.4261 137.312V137.312Z" fill="white"/>
<path d="M55.6814 153.364L27.8164 163.275C27.3729 163.433 26.8848 163.408 26.4594 163.207C26.0339 163.007 25.7059 162.645 25.5477 162.204C25.3894 161.762 25.4137 161.275 25.6153 160.852C25.817 160.428 26.1794 160.101 26.6228 159.943V159.943L54.4878 150.033C54.7074 149.955 54.9402 149.92 55.1731 149.932C55.4059 149.943 55.6342 150.001 55.8448 150.1C56.0555 150.2 56.2445 150.339 56.4009 150.512C56.5573 150.684 56.6782 150.885 56.7565 151.104C56.8349 151.323 56.8692 151.555 56.8576 151.787C56.846 152.019 56.7887 152.246 56.6888 152.456C56.589 152.666 56.4486 152.854 56.2758 153.01C56.1029 153.166 55.901 153.286 55.6814 153.364V153.364Z" fill="white"/>
<path d="M53.0574 146.041L25.1923 155.952C24.9728 156.03 24.7399 156.064 24.5071 156.052C24.2743 156.041 24.046 155.984 23.8353 155.884C23.6247 155.785 23.4357 155.645 23.2793 155.473C23.1229 155.3 23.002 155.099 22.9236 154.88C22.8453 154.662 22.8109 154.43 22.8225 154.198C22.8341 153.966 22.8915 153.738 22.9913 153.528C23.0912 153.318 23.2315 153.13 23.4044 152.974C23.5772 152.818 23.7792 152.698 23.9988 152.62V152.62L51.8638 142.709C52.0834 142.631 52.3162 142.597 52.549 142.609C52.7819 142.62 53.0102 142.677 53.2208 142.777C53.4315 142.876 53.6204 143.016 53.7769 143.188C53.9333 143.361 54.0541 143.562 54.1325 143.781C54.2109 143.999 54.2452 144.231 54.2336 144.463C54.222 144.695 54.1646 144.923 54.0648 145.133C53.965 145.343 53.8246 145.531 53.6518 145.687C53.4789 145.843 53.2769 145.963 53.0574 146.041V146.041Z" fill="white"/>
<path d="M24.4576 120.777C28.5456 120.777 31.8596 117.475 31.8596 113.402C31.8596 109.328 28.5456 106.026 24.4576 106.026C20.3696 106.026 17.0557 109.328 17.0557 113.402C17.0557 117.475 20.3696 120.777 24.4576 120.777Z" fill="#3F3D56"/>
<path d="M296.208 447.544C282.47 447.474 269.806 443.858 258.564 435.543C257.802 435.299 257.169 434.764 256.802 434.056C256.436 433.347 256.367 432.523 256.609 431.763L265.706 403.436C265.95 402.677 266.487 402.046 267.198 401.681C267.909 401.316 268.737 401.247 269.499 401.489L307.143 413.49C307.905 413.733 308.539 414.268 308.905 414.977C309.271 415.685 309.341 416.51 309.098 417.269L300.002 445.597C299.757 446.355 299.22 446.987 298.509 447.352C297.798 447.717 296.97 447.786 296.208 447.544V447.544Z" fill="#A3A9FF"/>
<path opacity="0.2" d="M299.523 442.103C299.278 442.862 298.742 443.493 298.03 443.858C297.319 444.223 296.492 444.292 295.73 444.05C281.991 443.981 269.327 440.364 258.085 432.049C257.586 431.887 257.139 431.596 256.788 431.206L256.609 431.763C256.367 432.523 256.436 433.347 256.802 434.056C257.169 434.764 257.802 435.299 258.564 435.543C269.806 443.858 282.47 447.474 296.208 447.543C296.97 447.785 297.798 447.716 298.509 447.351C299.22 446.986 299.757 446.355 300.001 445.596L309.098 417.269C309.257 416.765 309.281 416.228 309.165 415.713C309.05 415.197 308.8 414.721 308.44 414.333L299.523 442.103Z" fill="black"/>
<path d="M285.292 414.832L279.25 433.831C279.203 433.981 279.127 434.121 279.026 434.242C278.925 434.362 278.801 434.462 278.661 434.535C278.522 434.608 278.369 434.653 278.212 434.667C278.055 434.682 277.896 434.665 277.746 434.618C277.595 434.571 277.455 434.495 277.334 434.394C277.213 434.294 277.113 434.17 277.04 434.031C276.967 433.891 276.922 433.739 276.908 433.582C276.894 433.426 276.911 433.268 276.958 433.118L276.961 433.109L283.004 414.109C283.101 413.809 283.314 413.558 283.596 413.413C283.878 413.268 284.206 413.241 284.509 413.336C284.811 413.432 285.064 413.643 285.21 413.923C285.357 414.203 285.387 414.53 285.292 414.832V414.832Z" fill="white"/>
<path d="M274.305 427.671L272.976 431.851C272.929 432.001 272.852 432.14 272.751 432.261C272.65 432.381 272.527 432.481 272.387 432.554C272.247 432.626 272.095 432.671 271.938 432.685C271.781 432.699 271.623 432.683 271.472 432.636C271.322 432.589 271.182 432.513 271.061 432.412C270.94 432.312 270.84 432.188 270.767 432.049C270.694 431.91 270.649 431.758 270.635 431.602C270.621 431.445 270.637 431.288 270.684 431.138L270.687 431.128L272.017 426.949C272.064 426.799 272.14 426.659 272.241 426.539C272.342 426.418 272.466 426.319 272.605 426.246C272.745 426.173 272.898 426.128 273.055 426.114C273.212 426.1 273.37 426.117 273.52 426.164C273.671 426.211 273.81 426.287 273.931 426.387C274.052 426.488 274.152 426.611 274.225 426.75C274.299 426.889 274.344 427.041 274.358 427.198C274.372 427.354 274.355 427.512 274.308 427.662L274.305 427.671Z" fill="white"/>
<path d="M295.352 418.009L289.31 437.008C289.263 437.158 289.186 437.297 289.085 437.418C288.984 437.538 288.861 437.638 288.721 437.711C288.581 437.784 288.429 437.828 288.272 437.842C288.115 437.857 287.957 437.84 287.806 437.793C287.656 437.746 287.516 437.67 287.395 437.57C287.274 437.469 287.174 437.345 287.101 437.206C287.028 437.067 286.983 436.915 286.969 436.759C286.955 436.602 286.971 436.445 287.018 436.295L287.021 436.286L293.064 417.286C293.111 417.136 293.187 416.996 293.288 416.875C293.389 416.755 293.512 416.655 293.652 416.582C293.792 416.508 293.945 416.463 294.102 416.449C294.259 416.435 294.418 416.452 294.568 416.499C294.719 416.546 294.859 416.622 294.98 416.723C295.101 416.823 295.201 416.947 295.274 417.086C295.347 417.226 295.392 417.378 295.406 417.535C295.42 417.691 295.403 417.849 295.355 417.999L295.352 418.009Z" fill="white"/>
<path d="M290.323 416.42L284.28 435.42C284.233 435.57 284.157 435.709 284.056 435.83C283.955 435.951 283.831 436.051 283.692 436.124C283.552 436.197 283.399 436.241 283.242 436.256C283.085 436.27 282.926 436.253 282.776 436.206C282.625 436.159 282.485 436.083 282.364 435.982C282.243 435.882 282.143 435.758 282.07 435.619C281.997 435.48 281.952 435.327 281.938 435.171C281.924 435.014 281.941 434.856 281.989 434.706L281.992 434.697L288.034 415.698C288.081 415.548 288.158 415.409 288.258 415.288C288.359 415.167 288.483 415.068 288.623 414.995C288.762 414.922 288.915 414.877 289.072 414.863C289.229 414.849 289.387 414.866 289.538 414.913C289.688 414.96 289.828 415.036 289.949 415.136C290.07 415.237 290.17 415.36 290.243 415.499C290.316 415.638 290.361 415.79 290.375 415.947C290.389 416.103 290.372 416.261 290.325 416.411L290.323 416.42Z" fill="white"/>
<path d="M260.991 423.397C263.754 423.397 265.995 421.165 265.995 418.411C265.995 415.657 263.754 413.425 260.991 413.425C258.227 413.425 255.986 415.657 255.986 418.411C255.986 421.165 258.227 423.397 260.991 423.397Z" fill="#CCCCCC"/>
<path d="M371.154 223.725C371.643 221.803 369.79 219.676 367.017 218.976C364.243 218.275 361.598 219.266 361.109 221.189C360.62 223.111 362.472 225.238 365.246 225.938C368.02 226.638 370.665 225.648 371.154 223.725Z" fill="#DAFFD4"/>
<path d="M337.28 223.507C337.769 221.585 335.917 219.458 333.144 218.758C330.37 218.058 327.725 219.048 327.236 220.971C326.747 222.894 328.599 225.02 331.373 225.72C334.147 226.421 336.792 225.43 337.28 223.507Z" fill="#3F3D56"/>
<path d="M377.509 251.726C377.998 249.803 376.146 247.677 373.372 246.977C370.598 246.276 367.953 247.267 367.464 249.19C366.976 251.112 368.828 253.239 371.601 253.939C374.375 254.639 377.02 253.649 377.509 251.726Z" fill="#FF6584"/>
<path d="M385.406 262.284C385.607 260.493 384.756 258.929 383.506 258.79C382.255 258.65 381.079 259.989 380.878 261.78C380.677 263.571 381.528 265.135 382.778 265.275C384.029 265.414 385.205 264.075 385.406 262.284Z" fill="#E6E6E6"/>
<path d="M388.191 283.434C388.392 281.643 387.541 280.079 386.291 279.939C385.041 279.8 383.864 281.139 383.663 282.93C383.463 284.72 384.313 286.285 385.564 286.424C386.814 286.563 387.99 285.224 388.191 283.434Z" fill="#3F3D56"/>
<path d="M353.561 243.129C353.762 241.338 352.911 239.774 351.661 239.634C350.411 239.495 349.234 240.834 349.034 242.625C348.833 244.416 349.683 245.98 350.934 246.119C352.184 246.258 353.36 244.92 353.561 243.129Z" fill="#E6E6E6"/>
<path d="M370.607 236.749C370.808 234.958 369.957 233.394 368.707 233.255C367.457 233.115 366.28 234.454 366.079 236.245C365.879 238.036 366.729 239.6 367.98 239.739C369.23 239.879 370.406 238.54 370.607 236.749Z" fill="#FF6584"/>
<path d="M349.607 219.51C349.808 217.719 348.957 216.155 347.707 216.015C346.457 215.876 345.28 217.215 345.079 219.006C344.879 220.796 345.729 222.361 346.98 222.5C348.23 222.639 349.406 221.3 349.607 219.51Z" fill="#3F3D56"/>
<path d="M54.8859 211.758C55.3749 209.836 53.5228 207.709 50.7491 207.009C47.9754 206.309 45.3304 207.299 44.8414 209.222C44.3525 211.145 46.2046 213.271 48.9783 213.971C51.752 214.672 54.3969 213.681 54.8859 211.758Z" fill="#DAFFD4"/>
<path d="M21.0129 211.541C21.5018 209.618 19.6497 207.492 16.876 206.791C14.1023 206.091 11.4574 207.082 10.9684 209.004C10.4794 210.927 12.3315 213.053 15.1052 213.753C17.8789 214.454 20.5239 213.463 21.0129 211.541Z" fill="#3F3D56"/>
<path d="M61.2423 239.759C61.7313 237.837 59.8792 235.711 57.1055 235.01C54.3318 234.31 51.6869 235.301 51.1979 237.223C50.7089 239.146 52.561 241.272 55.3347 241.972C58.1084 242.673 60.7533 241.682 61.2423 239.759Z" fill="#FF6584"/>
<path d="M69.1382 250.317C69.339 248.526 68.4883 246.962 67.238 246.823C65.9878 246.684 64.8115 248.022 64.6107 249.813C64.4099 251.604 65.2606 253.169 66.5108 253.308C67.7611 253.447 68.9374 252.108 69.1382 250.317Z" fill="#E6E6E6"/>
<path d="M71.9233 271.467C72.1242 269.676 71.2734 268.112 70.0232 267.972C68.773 267.833 67.5967 269.172 67.3958 270.963C67.195 272.753 68.0457 274.318 69.296 274.457C70.5462 274.596 71.7225 273.257 71.9233 271.467Z" fill="#3F3D56"/>
<path d="M37.2934 231.162C37.4943 229.371 36.6435 227.807 35.3933 227.668C34.1431 227.528 32.9668 228.867 32.766 230.658C32.5651 232.449 33.4159 234.013 34.6661 234.152C35.9163 234.292 37.0926 232.953 37.2934 231.162Z" fill="#E6E6E6"/>
<path d="M54.3394 224.782C54.5402 222.991 53.6894 221.427 52.4392 221.288C51.189 221.149 50.0127 222.487 49.8119 224.278C49.611 226.069 50.4618 227.633 51.712 227.773C52.9622 227.912 54.1385 226.573 54.3394 224.782Z" fill="#FF6584"/>
<path d="M33.3394 207.543C33.5402 205.752 32.6894 204.188 31.4392 204.048C30.189 203.909 29.0127 205.248 28.8119 207.039C28.611 208.83 29.4618 210.394 30.712 210.533C31.9622 210.672 33.1385 209.334 33.3394 207.543Z" fill="#3F3D56"/>
<path d="M271.026 307.411C262.77 296.469 257.998 284.234 257.842 270.285C257.576 269.533 257.62 268.707 257.965 267.987C258.309 267.268 258.926 266.714 259.68 266.447L287.82 256.527C288.574 256.262 289.404 256.306 290.126 256.649C290.847 256.992 291.403 257.607 291.671 258.358L304.855 295.484C305.121 296.236 305.077 297.062 304.732 297.781C304.387 298.501 303.771 299.055 303.017 299.321L274.877 309.242C274.122 309.507 273.293 309.463 272.571 309.12C271.849 308.776 271.293 308.162 271.026 307.411V307.411Z" fill="#A3A9FF"/>
<path opacity="0.2" d="M277.379 306.749C276.624 307.014 275.795 306.97 275.073 306.626C274.351 306.283 273.795 305.668 273.528 304.917C265.272 293.976 260.5 281.74 260.344 267.791C260.172 267.297 260.134 266.766 260.234 266.252L259.68 266.447C258.926 266.714 258.309 267.268 257.965 267.987C257.62 268.706 257.576 269.532 257.842 270.284C257.998 284.233 262.77 296.469 271.026 307.41C271.293 308.161 271.849 308.776 272.571 309.119C273.293 309.463 274.122 309.507 274.877 309.242L303.017 299.321C303.516 299.143 303.959 298.837 304.301 298.433C304.643 298.03 304.872 297.543 304.965 297.023L277.379 306.749Z" fill="black"/>
<path d="M290.562 278.961L271.724 285.661C271.424 285.768 271.094 285.751 270.806 285.615C270.519 285.48 270.297 285.235 270.19 284.937C270.083 284.638 270.099 284.309 270.236 284.023C270.372 283.736 270.617 283.515 270.917 283.408L289.755 276.708C289.904 276.656 290.061 276.632 290.219 276.64C290.376 276.648 290.531 276.687 290.673 276.754C290.815 276.821 290.943 276.916 291.049 277.032C291.155 277.149 291.236 277.285 291.289 277.433C291.342 277.58 291.366 277.737 291.358 277.894C291.35 278.051 291.311 278.205 291.244 278.347C291.176 278.489 291.081 278.616 290.964 278.721C290.847 278.827 290.711 278.908 290.562 278.961V278.961Z" fill="white"/>
<path d="M273.655 278.01L269.51 279.484C269.362 279.537 269.205 279.56 269.047 279.553C268.89 279.545 268.735 279.507 268.593 279.44C268.45 279.373 268.322 279.278 268.217 279.162C268.111 279.046 268.029 278.91 267.976 278.762C267.922 278.614 267.899 278.457 267.907 278.3C267.914 278.143 267.953 277.99 268.02 277.848C268.088 277.706 268.182 277.578 268.299 277.473C268.416 277.367 268.552 277.286 268.701 277.233L268.703 277.232L272.848 275.758C273.148 275.651 273.477 275.668 273.765 275.804C274.052 275.94 274.274 276.184 274.38 276.482C274.487 276.781 274.471 277.109 274.335 277.396C274.199 277.682 273.954 277.903 273.655 278.01V278.01Z" fill="white"/>
<path d="M294.11 288.863L275.271 295.563C275.123 295.616 274.965 295.639 274.808 295.632C274.65 295.624 274.496 295.585 274.354 295.518C274.211 295.451 274.083 295.357 273.977 295.241C273.871 295.124 273.79 294.988 273.736 294.84C273.683 294.693 273.66 294.536 273.667 294.379C273.675 294.222 273.714 294.068 273.781 293.926C273.848 293.784 273.943 293.657 274.06 293.551C274.177 293.446 274.313 293.364 274.461 293.311L274.464 293.31L293.303 286.61C293.602 286.504 293.932 286.521 294.22 286.656C294.507 286.792 294.728 287.036 294.835 287.335C294.942 287.633 294.926 287.962 294.79 288.248C294.654 288.535 294.409 288.756 294.11 288.863V288.863Z" fill="white"/>
<path d="M292.336 283.911L273.498 290.612C273.349 290.665 273.192 290.688 273.034 290.68C272.877 290.673 272.723 290.634 272.58 290.567C272.438 290.5 272.31 290.406 272.204 290.289C272.098 290.173 272.016 290.037 271.963 289.889C271.91 289.741 271.886 289.585 271.894 289.428C271.902 289.271 271.94 289.117 272.008 288.975C272.075 288.833 272.17 288.706 272.286 288.6C272.403 288.495 272.54 288.413 272.688 288.36L272.691 288.359L291.529 281.659C291.829 281.552 292.159 281.568 292.447 281.703C292.735 281.839 292.957 282.083 293.064 282.381C293.171 282.68 293.155 283.009 293.019 283.296C292.883 283.582 292.639 283.804 292.339 283.91L292.336 283.911Z" fill="white"/>
<path d="M273 266.831C275.764 266.831 278.005 264.598 278.005 261.845C278.005 259.091 275.764 256.858 273 256.858C270.237 256.858 267.996 259.091 267.996 261.845C267.996 264.598 270.237 266.831 273 266.831Z" fill="#CCCCCC"/>
</g>
<defs>
<clipPath id="clip0_215_14">
<rect width="390" height="550" fill="white"/>
</clipPath>
</defs>
</svg>
