<svg width="400" height="320" viewBox="0 0 606 564" fill="none" xmlns="http://www.w3.org/2000/svg">
<g clip-path="url(#clip0_2_264)">
<path d="M205.139 253.618C180.018 253.618 155.461 246.181 134.573 232.247C113.685 218.313 97.4055 198.508 87.792 175.337C78.1784 152.165 75.6631 126.668 80.564 102.07C85.465 77.4713 97.5621 54.8761 115.326 37.1415C133.089 19.407 155.721 7.32958 180.36 2.43662C204.999 -2.45633 230.537 0.0549175 253.746 9.65279C276.956 19.2507 296.793 35.5041 310.749 56.3577C324.706 77.2113 332.155 101.729 332.155 126.809C332.117 160.429 318.723 192.661 294.911 216.434C271.099 240.207 238.814 253.58 205.139 253.618V253.618ZM205.139 1.99702C180.414 1.99702 156.243 9.31712 135.684 23.0316C115.126 36.7462 99.1021 56.2391 89.64 79.0455C80.1778 101.852 77.7021 126.947 82.5259 151.159C87.3496 175.37 99.2562 197.609 116.74 215.064C134.224 232.52 156.499 244.407 180.75 249.223C205.001 254.039 230.137 251.567 252.981 242.12C275.825 232.674 295.349 216.676 309.086 196.151C322.823 175.626 330.155 151.494 330.155 126.809C330.155 93.7068 316.984 61.9604 293.539 38.5536C270.094 15.1468 238.296 1.99702 205.139 1.99702V1.99702Z" fill="#DAFFD4"/>
<path d="M125.491 131.355C121.961 118.507 150.43 107.49 157.906 117.836C158.945 116.365 162.787 115.472 164.549 115.923C166.275 116.495 167.869 117.403 169.241 118.594C171.229 120.12 173.29 121.699 174.51 123.892C175.74 126.076 175.93 129.054 174.276 130.949C172.965 132.456 169.096 133.431 167.125 133.828C165.752 134.108 164.595 134.333 163.6 134.496C162.697 133.196 162.281 131.621 162.425 130.047C161.756 130.497 161.195 131.09 160.782 131.783C160.37 132.476 160.116 133.251 160.039 134.053C160.012 134.387 171.148 175.295 171.148 175.295C169.81 176.055 168.402 176.687 166.945 177.181C164.061 172.781 161.852 167.975 160.391 162.923C160.056 166.301 160.098 169.706 160.518 173.075C160.741 174.964 161.061 176.841 161.476 178.697C148.243 181.549 128.338 180.611 119.679 168.482L119.674 168.331C119.668 167.852 119.494 167.391 119.184 167.026C118.874 166.66 118.447 166.414 117.975 166.329C117.503 166.244 117.016 166.325 116.597 166.559C116.179 166.793 115.855 167.165 115.681 167.611C115.471 168.146 115.277 168.61 115.105 168.978C112.583 159.972 115.846 149.548 125.491 131.355Z" fill="#2F2E41"/>
<path d="M187.899 542.299L197.759 542.216L202.124 503.362L187.572 503.485L187.899 542.299Z" fill="#FFB7B7"/>
<path d="M217.55 554.35L201.802 543.686L201.742 536.641L198.356 536.868L187.859 537.59L185.286 537.761L183.418 562.658L190.815 562.591L192.075 555.611L195.507 562.556L215.111 562.393C216.05 562.384 216.963 562.077 217.715 561.514C218.467 560.952 219.02 560.164 219.292 559.266C219.565 558.368 219.542 557.407 219.229 556.523C218.915 555.638 218.327 554.877 217.55 554.35H217.55Z" fill="#2F2E41"/>
<path d="M89.5823 538.461L99.3305 539.941L109.812 502.269L95.424 500.086L89.5823 538.461Z" fill="#FFB7B7"/>
<path d="M116.944 555.053L103.089 542.031L104.15 535.066L100.77 534.754L90.2912 533.805L87.7231 533.567L81.9243 557.853L89.2382 558.958L91.5915 552.265L93.8768 559.666L113.258 562.608C114.188 562.749 115.137 562.59 115.969 562.153C116.801 561.717 117.472 561.027 117.884 560.184C118.295 559.34 118.426 558.387 118.257 557.464C118.088 556.542 117.628 555.697 116.944 555.053H116.944Z" fill="#2F2E41"/>
<path d="M183.364 270.846L211.32 320.835C211.32 320.835 210.154 423.645 213.869 427.458C217.584 431.271 220.948 434.691 217.584 434.66C214.22 434.63 210.149 442.801 210.149 442.801L203.191 520.05H185.646C185.646 520.05 173.3 474.495 175.932 448.517L155.147 353.583C155.147 353.583 140.215 443.362 137.524 446.048C134.832 448.735 133.209 448.716 136.039 451.412C138.869 454.109 136.039 460.207 136.039 460.207L106.538 521.335L90.5358 519.321C90.5358 519.321 93.31 469.417 102.97 447.993V346.751C102.243 355.431 136.278 267.574 115.465 274.169C122.05 272.082 183.364 270.846 183.364 270.846Z" fill="#2F2E41"/>
<path d="M159.602 175.527L131.183 169.508L125.54 180.848L106.538 191.832C106.538 191.832 118.787 241.832 118.717 248.865C118.539 266.719 89.9254 306.742 111.538 303.663C133.152 300.584 137.542 287.687 144.48 289.726C173.105 298.14 207.126 297.248 195.549 285.69C183.973 274.133 186.559 197.197 186.559 197.197L164.137 186.617L159.602 175.527Z" fill="#5FA054"/>
<path d="M106 357.109C107.142 355.749 107.708 353.999 107.577 352.229C107.445 350.46 106.628 348.812 105.298 347.635C105.024 347.4 104.731 347.188 104.422 347.002L109.173 323.719L98.1883 317.155L95.1329 349.752C94.457 351.092 94.2442 352.617 94.5279 354.09C94.8115 355.563 95.5756 356.901 96.7009 357.895C98.0051 359.025 99.7054 359.591 101.428 359.469C103.15 359.347 104.753 358.547 105.885 357.245C105.924 357.2 105.963 357.155 106 357.109Z" fill="#A0616A"/>
<path d="M99.9328 248.168L100.847 205.742C100.904 203.075 101.495 200.447 102.586 198.011C103.676 195.576 105.244 193.383 107.196 191.562C109.149 189.741 111.447 188.328 113.954 187.407C116.462 186.487 119.129 186.076 121.798 186.2C130.481 186.605 128.168 190.069 130.474 198.437C134.222 212.039 135.664 219.902 134.759 221.806C134.453 222.451 134.13 223.068 133.82 223.663C132.221 226.723 131.066 228.935 134.002 231.054C135.163 231.82 136.427 232.418 137.757 232.829C139.082 233.299 140.04 233.638 140.107 234.386C140.171 235.11 139.353 235.861 137.087 237.155C131.002 240.632 125.725 261.414 125.673 261.619L108.015 335.571L93.9481 334.874L99.9328 248.168Z" fill="#5FA054"/>
<path d="M276.936 306.134C275.177 305.884 273.585 304.959 272.499 303.554C271.412 302.15 270.918 300.379 271.12 298.616C271.167 298.258 271.243 297.905 271.348 297.56L252.233 283.404L256.015 271.194L280.1 293.412C281.5 293.958 282.679 294.951 283.453 296.236C284.228 297.521 284.555 299.027 284.382 300.517C284.276 301.364 284.004 302.181 283.581 302.923C283.158 303.665 282.593 304.317 281.918 304.841C281.243 305.364 280.472 305.751 279.647 305.977C278.823 306.203 277.962 306.265 277.113 306.159C277.054 306.151 276.995 306.143 276.936 306.134Z" fill="#A0616A"/>
<path d="M271.027 281.55L261.026 291.451L198.402 248.199C198.226 248.081 180.394 236.136 173.539 237.607C170.986 238.156 169.875 238.143 169.439 237.561C168.989 236.96 169.474 236.068 170.145 234.835C170.86 233.643 171.401 232.354 171.752 231.01C172.519 227.475 170.179 226.6 166.942 225.389C166.313 225.153 165.66 224.909 165 224.633C163.053 223.82 158.865 217.007 152.552 204.386C148.669 196.621 144.629 195.586 150.82 189.493C152.723 187.621 154.982 186.148 157.465 185.161C159.947 184.173 162.602 183.692 165.273 183.745C167.945 183.798 170.578 184.384 173.019 185.469C175.461 186.554 177.659 188.115 179.487 190.062L208.556 221.022L271.027 281.55Z" fill="#5FA054"/>
<path d="M147.612 169.083C160.417 169.083 170.798 158.719 170.798 145.935C170.798 133.151 160.417 122.787 147.612 122.787C134.807 122.787 124.426 133.151 124.426 145.935C124.426 158.719 134.807 169.083 147.612 169.083Z" fill="#FFB7B7"/>
<path d="M112.836 133.16C109.307 120.312 137.775 109.295 145.251 119.641C146.29 118.17 150.132 117.277 151.895 117.728C153.62 118.3 155.214 119.208 156.586 120.399C158.575 121.925 160.635 123.504 161.856 125.697C163.085 127.881 163.275 130.859 161.621 132.754C160.31 134.261 156.441 135.236 154.471 135.633C153.097 135.912 151.94 136.138 150.945 136.3C150.042 135.001 149.626 133.426 149.77 131.851C149.101 132.302 148.54 132.895 148.127 133.588C147.715 134.281 147.461 135.056 147.384 135.858C147.357 136.192 158.493 177.1 158.493 177.1C157.155 177.86 155.748 178.492 154.29 178.986C151.406 174.586 149.197 169.78 147.736 164.727C147.401 168.106 147.443 171.511 147.863 174.88C148.086 176.769 148.406 178.646 148.821 180.502C135.588 183.354 115.684 182.415 107.024 170.287L107.02 170.136C107.013 169.657 106.84 169.196 106.53 168.83C106.219 168.465 105.792 168.219 105.32 168.134C104.848 168.049 104.361 168.13 103.943 168.364C103.524 168.598 103.2 168.97 103.026 169.416C102.816 169.951 102.623 170.414 102.45 170.783C99.9283 161.776 103.191 151.353 112.836 133.16Z" fill="#2F2E41"/>
<path d="M54.2657 546.339C53.8008 546.361 53.3407 546.239 52.9475 545.99C52.5543 545.742 52.2471 545.379 52.0676 544.95C51.8881 544.521 51.8448 544.048 51.9438 543.594C52.0428 543.14 52.2791 542.727 52.6209 542.412L52.7764 541.795C52.7559 541.745 52.7353 541.696 52.7146 541.646C52.2462 540.542 51.4615 539.6 50.4589 538.94C49.4563 538.279 48.2805 537.929 47.0793 537.934C45.878 537.938 44.7049 538.297 43.7073 538.965C42.7096 539.633 41.9319 540.58 41.4718 541.688C39.633 546.11 37.2918 550.539 36.7154 555.214C36.4615 557.28 36.5686 559.375 37.0319 561.405C32.713 551.999 30.4704 541.776 30.4559 531.429C30.455 528.833 30.5995 526.238 30.8887 523.658C31.1278 521.543 31.4594 519.442 31.8836 517.357C34.1984 506.043 39.1684 495.438 46.3855 486.414C49.8786 484.511 52.7035 481.585 54.4795 478.03C55.1229 476.752 55.5776 475.388 55.8296 473.98C55.4355 474.032 54.3439 468.041 54.641 467.673C54.0919 466.841 53.1091 466.427 52.5093 465.616C49.5266 461.578 45.4172 462.283 43.272 467.77C38.6891 470.079 38.6448 473.909 41.4567 477.592C43.2457 479.935 43.4915 483.106 45.0613 485.614C44.8997 485.821 44.7318 486.021 44.5703 486.227C41.6182 490.017 39.0453 494.087 36.8884 498.378C37.4129 493.57 36.7868 488.708 35.0617 484.189C33.3133 479.978 30.0361 476.432 27.1502 472.791C26.387 471.814 25.3504 471.083 24.1716 470.694C22.9928 470.304 21.7247 470.271 20.5276 470.601C19.3305 470.93 18.2581 471.607 17.4459 472.545C16.6338 473.483 16.1184 474.64 15.9648 475.87C15.9589 475.924 15.9532 475.977 15.9475 476.031C16.3762 476.273 16.7958 476.529 17.2063 476.8C17.7221 477.144 18.1217 477.635 18.3529 478.21C18.584 478.785 18.6359 479.416 18.5017 480.02C18.3676 480.625 18.0536 481.175 17.601 481.598C17.1483 482.022 16.5782 482.299 15.9651 482.393L15.9023 482.403C16.055 483.945 16.325 485.474 16.7098 486.975C13.0075 501.27 21.0004 506.476 32.4132 506.71C32.6652 506.839 32.9107 506.968 33.1626 507.09C30.9955 513.222 29.6362 519.608 29.1188 526.089C28.8259 529.913 28.8432 533.754 29.1705 537.575L29.1511 537.44C28.3242 533.191 26.054 529.357 22.7237 526.586C17.7775 522.529 10.7894 521.036 5.45327 517.775C4.88617 517.411 4.22675 517.217 3.55282 517.216C2.8789 517.214 2.21857 517.405 1.64969 517.766C1.08082 518.126 0.627152 518.642 0.342185 519.252C0.0572174 519.861 -0.0471692 520.54 0.0413654 521.207L0.0631882 521.349C0.858629 521.673 1.63312 522.045 2.38214 522.465C2.8108 522.706 3.23039 522.963 3.64094 523.234C4.15669 523.578 4.55632 524.069 4.78748 524.644C5.01863 525.219 5.0705 525.85 4.93633 526.454C4.80216 527.059 4.48822 527.609 4.03558 528.032C3.58294 528.456 3.01273 528.733 2.39969 528.827L2.33688 528.837C2.29168 528.843 2.25286 528.85 2.20775 528.856C3.56689 532.096 5.4745 535.078 7.847 537.672C10.1619 550.15 20.1046 551.334 30.7401 547.7H30.7466C31.9135 552.763 33.6043 557.691 35.7916 562.405H53.8141C53.8787 562.205 53.9368 561.998 53.995 561.798C52.3268 561.903 50.652 561.803 49.0081 561.502C50.3452 559.864 51.6824 558.213 53.0196 556.575C53.0494 556.544 53.0775 556.512 53.1036 556.478C53.7818 555.639 54.4666 554.807 55.1448 553.969L55.1452 553.968C55.1814 551.398 54.886 548.834 54.2663 546.34L54.2657 546.339Z" fill="#5FA054"/>
<path d="M0.667608 562.812C0.667142 562.968 0.697599 563.123 0.757249 563.267C0.816899 563.411 0.90457 563.543 1.01519 563.653C1.1258 563.764 1.25719 563.851 1.4018 563.911C1.54642 563.97 1.70139 564.001 1.85782 564H255.18C255.496 564 255.798 563.875 256.021 563.652C256.245 563.429 256.37 563.127 256.37 562.812C256.37 562.497 256.245 562.194 256.021 561.972C255.798 561.749 255.496 561.624 255.18 561.624H1.85782C1.70139 561.623 1.54641 561.654 1.4018 561.713C1.25719 561.773 1.1258 561.86 1.01519 561.971C0.904571 562.081 0.816901 562.212 0.757249 562.357C0.697597 562.501 0.667147 562.656 0.667608 562.812V562.812Z" fill="#CCCCCC"/>
<path d="M554.213 57.0345H298.658C295.624 57.0345 292.621 57.631 289.818 58.7899C287.016 59.9488 284.469 61.6475 282.324 63.7889C280.18 65.9303 278.478 68.4725 277.317 71.2704C276.157 74.0682 275.559 77.067 275.559 80.0954V465.324C275.559 471.44 277.993 477.306 282.324 481.631C286.656 485.955 292.531 488.385 298.658 488.385H554.213C560.339 488.385 566.214 485.955 570.546 481.631C574.878 477.306 577.311 471.44 577.311 465.324C611.212 334.407 612.255 205.921 577.311 80.0954C577.311 73.9792 574.878 68.1136 570.546 63.7889C566.214 59.4641 560.339 57.0345 554.213 57.0345ZM306.42 435.012C306.42 436.002 306.026 436.952 305.325 437.652C304.624 438.352 303.672 438.745 302.681 438.745H293.015C292.023 438.745 291.072 438.352 290.37 437.652C289.669 436.952 289.275 436.002 289.275 435.012V425.362C289.275 424.372 289.669 423.422 290.37 422.722C291.072 422.022 292.023 421.628 293.015 421.628H302.681C303.672 421.628 304.624 422.022 305.325 422.722C306.026 423.422 306.42 424.372 306.42 425.362V435.012ZM306.42 396.927C306.42 397.917 306.026 398.866 305.325 399.566C304.624 400.267 303.672 400.66 302.681 400.66H293.015C292.023 400.66 291.072 400.267 290.37 399.566C289.669 398.866 289.275 397.917 289.275 396.927V387.276C289.275 386.786 289.372 386.301 289.56 385.848C289.748 385.395 290.023 384.983 290.37 384.636C290.718 384.29 291.13 384.015 291.584 383.827C292.037 383.639 292.524 383.543 293.015 383.543H302.681C303.172 383.543 303.658 383.639 304.112 383.827C304.565 384.015 304.978 384.29 305.325 384.636C305.672 384.983 305.948 385.395 306.135 385.848C306.323 386.301 306.42 386.786 306.42 387.276V396.927ZM306.42 358.841C306.42 359.831 306.026 360.781 305.325 361.481C304.624 362.181 303.672 362.574 302.681 362.574H293.015C292.023 362.574 291.072 362.181 290.37 361.481C289.669 360.781 289.275 359.831 289.275 358.841V349.191C289.275 348.201 289.669 347.251 290.37 346.551C291.072 345.851 292.023 345.457 293.015 345.457H302.681C303.672 345.457 304.624 345.851 305.325 346.551C306.026 347.251 306.42 348.201 306.42 349.191V358.841ZM306.42 320.756C306.42 321.746 306.026 322.695 305.325 323.395C304.624 324.096 303.672 324.489 302.681 324.489H293.015C292.023 324.489 291.072 324.096 290.37 323.395C289.669 322.695 289.275 321.746 289.275 320.756V311.105C289.275 310.115 289.669 309.165 290.37 308.465C291.072 307.765 292.023 307.372 293.015 307.372H302.681C303.672 307.372 304.624 307.765 305.325 308.465C306.026 309.165 306.42 310.115 306.42 311.105V320.756ZM306.42 282.67C306.42 283.66 306.026 284.61 305.325 285.31C304.624 286.01 303.672 286.403 302.681 286.403H293.015C292.023 286.403 291.072 286.01 290.37 285.31C289.669 284.61 289.275 283.66 289.275 282.67V273.02C289.275 272.03 289.669 271.08 290.37 270.38C291.072 269.68 292.023 269.286 293.015 269.286H302.681C303.672 269.286 304.624 269.68 305.325 270.38C306.026 271.08 306.42 272.03 306.42 273.02V282.67ZM306.42 244.585C306.42 245.575 306.026 246.524 305.325 247.224C304.624 247.925 303.672 248.318 302.681 248.318H293.015C292.023 248.318 291.072 247.925 290.37 247.224C289.669 246.524 289.275 245.575 289.275 244.585V234.934C289.275 233.944 289.669 232.994 290.37 232.294C291.072 231.594 292.023 231.201 293.015 231.201H302.681C303.672 231.201 304.624 231.594 305.325 232.294C306.026 232.994 306.42 233.944 306.42 234.934V244.585ZM306.42 206.499C306.42 207.489 306.026 208.439 305.325 209.139C304.624 209.839 303.672 210.232 302.681 210.232H293.015C292.023 210.232 291.072 209.839 290.37 209.139C289.669 208.439 289.275 207.489 289.275 206.499V196.849C289.275 195.859 289.669 194.909 290.37 194.209C291.072 193.509 292.023 193.115 293.015 193.115H302.681C303.672 193.115 304.624 193.509 305.325 194.209C306.026 194.909 306.42 195.859 306.42 196.849V206.499ZM306.42 168.414C306.42 169.404 306.026 170.353 305.325 171.053C304.624 171.754 303.672 172.147 302.681 172.147H293.015C292.023 172.147 291.072 171.754 290.37 171.053C289.669 170.353 289.275 169.404 289.275 168.414V158.763C289.275 157.773 289.669 156.823 290.37 156.123C291.072 155.423 292.023 155.03 293.015 155.03H302.681C303.672 155.03 304.624 155.423 305.325 156.123C306.026 156.823 306.42 157.773 306.42 158.763V168.414ZM306.42 130.328C306.42 131.318 306.026 132.268 305.325 132.968C304.624 133.668 303.672 134.061 302.681 134.061H293.015C292.023 134.061 291.072 133.668 290.37 132.968C289.669 132.268 289.275 131.318 289.275 130.328V120.678C289.275 119.688 289.669 118.738 290.37 118.038C291.072 117.338 292.023 116.944 293.015 116.944H302.681C303.672 116.944 304.624 117.338 305.325 118.038C306.026 118.738 306.42 119.688 306.42 120.678V130.328Z" fill="white"/>
<path d="M304.239 77.575H291.456C290.252 77.575 289.275 78.5501 289.275 79.7528V92.5143C289.275 93.7171 290.252 94.6921 291.456 94.6921H304.239C305.444 94.6921 306.42 93.7171 306.42 92.5143V79.7528C306.42 78.5501 305.444 77.575 304.239 77.575Z" fill="#5FA054"/>
<path d="M304.128 116.307H291.358C290.155 116.307 289.179 117.331 289.179 118.594V131.998C289.179 133.262 290.155 134.286 291.358 134.286H304.128C305.332 134.286 306.307 133.262 306.307 131.998V118.594C306.307 117.331 305.332 116.307 304.128 116.307Z" fill="#E5E5E5"/>
<path d="M304.224 154.151H291.454C290.251 154.151 289.275 155.175 289.275 156.438V169.842C289.275 171.106 290.251 172.13 291.454 172.13H304.224C305.428 172.13 306.403 171.106 306.403 169.842V156.438C306.403 155.175 305.428 154.151 304.224 154.151Z" fill="#E5E5E5"/>
<path d="M304.224 192.994H291.454C290.251 192.994 289.275 194.018 289.275 195.282V208.685C289.275 209.949 290.251 210.973 291.454 210.973H304.224C305.428 210.973 306.403 209.949 306.403 208.685V195.282C306.403 194.018 305.428 192.994 304.224 192.994Z" fill="#E5E5E5"/>
<path d="M304.224 230.727H291.454C290.251 230.727 289.275 231.751 289.275 233.015V246.419C289.275 247.682 290.251 248.706 291.454 248.706H304.224C305.428 248.706 306.403 247.682 306.403 246.419V233.015C306.403 231.751 305.428 230.727 304.224 230.727Z" fill="#E5E5E5"/>
<path d="M304.224 268.46H291.454C290.251 268.46 289.275 269.485 289.275 270.748V284.152C289.275 285.415 290.251 286.439 291.454 286.439H304.224C305.428 286.439 306.403 285.415 306.403 284.152V270.748C306.403 269.485 305.428 268.46 304.224 268.46Z" fill="#E5E5E5"/>
<path d="M304.224 306.194H291.454C290.251 306.194 289.275 307.218 289.275 308.481V321.885C289.275 323.148 290.251 324.172 291.454 324.172H304.224C305.428 324.172 306.403 323.148 306.403 321.885V308.481C306.403 307.218 305.428 306.194 304.224 306.194Z" fill="#E5E5E5"/>
<path d="M304.224 345.037H291.454C290.251 345.037 289.275 346.061 289.275 347.324V360.728C289.275 361.991 290.251 363.015 291.454 363.015H304.224C305.428 363.015 306.403 361.991 306.403 360.728V347.324C306.403 346.061 305.428 345.037 304.224 345.037Z" fill="#E5E5E5"/>
<path d="M304.224 382.77H291.454C290.251 382.77 289.275 383.794 289.275 385.057V398.461C289.275 399.724 290.251 400.749 291.454 400.749H304.224C305.428 400.749 306.403 399.724 306.403 398.461V385.057C306.403 383.794 305.428 382.77 304.224 382.77Z" fill="#E5E5E5"/>
<path d="M304.224 420.503H291.454C290.251 420.503 289.275 421.527 289.275 422.79V436.194C289.275 437.458 290.251 438.482 291.454 438.482H304.224C305.428 438.482 306.403 437.458 306.403 436.194V422.79C306.403 421.527 305.428 420.503 304.224 420.503Z" fill="#E5E5E5"/>
<path d="M527.591 126.501H340.953C340.688 126.501 340.433 126.396 340.246 126.209C340.058 126.021 339.953 125.768 339.953 125.503C339.953 125.238 340.058 124.984 340.246 124.797C340.433 124.609 340.688 124.504 340.953 124.504H527.591C527.856 124.504 528.111 124.609 528.298 124.797C528.486 124.984 528.591 125.238 528.591 125.503C528.591 125.768 528.486 126.021 528.298 126.209C528.111 126.396 527.856 126.501 527.591 126.501Z" fill="#CCCCCC"/>
<path d="M527.591 164.159H340.953C340.688 164.159 340.433 164.054 340.246 163.866C340.058 163.679 339.953 163.425 339.953 163.16C339.953 162.896 340.058 162.642 340.246 162.454C340.433 162.267 340.688 162.162 340.953 162.162H527.591C527.856 162.162 528.111 162.267 528.298 162.454C528.486 162.642 528.591 162.896 528.591 163.16C528.591 163.425 528.486 163.679 528.298 163.866C528.111 164.054 527.856 164.159 527.591 164.159Z" fill="#CCCCCC"/>
<path d="M527.591 201.817H340.953C340.688 201.817 340.433 201.711 340.246 201.524C340.058 201.337 339.953 201.083 339.953 200.818C339.953 200.553 340.058 200.299 340.246 200.112C340.433 199.925 340.688 199.82 340.953 199.82H527.591C527.856 199.82 528.111 199.925 528.298 200.112C528.486 200.299 528.591 200.553 528.591 200.818C528.591 201.083 528.486 201.337 528.298 201.524C528.111 201.711 527.856 201.817 527.591 201.817Z" fill="#CCCCCC"/>
<path d="M527.591 239.474H340.953C340.688 239.474 340.433 239.369 340.246 239.182C340.058 238.994 339.953 238.74 339.953 238.476C339.953 238.211 340.058 237.957 340.246 237.77C340.433 237.582 340.688 237.477 340.953 237.477H527.591C527.856 237.477 528.111 237.582 528.298 237.77C528.486 237.957 528.591 238.211 528.591 238.476C528.591 238.74 528.486 238.994 528.298 239.182C528.111 239.369 527.856 239.474 527.591 239.474Z" fill="#CCCCCC"/>
<path d="M527.591 277.132H340.953C340.688 277.132 340.433 277.027 340.246 276.839C340.058 276.652 339.953 276.398 339.953 276.133C339.953 275.869 340.058 275.615 340.246 275.427C340.433 275.24 340.688 275.135 340.953 275.135H527.591C527.856 275.135 528.111 275.24 528.298 275.427C528.486 275.615 528.591 275.869 528.591 276.133C528.591 276.398 528.486 276.652 528.298 276.839C528.111 277.027 527.856 277.132 527.591 277.132Z" fill="#CCCCCC"/>
<path d="M527.591 314.789H340.953C340.688 314.789 340.433 314.684 340.246 314.497C340.058 314.309 339.953 314.055 339.953 313.79C339.953 313.526 340.058 313.272 340.246 313.084C340.433 312.897 340.688 312.792 340.953 312.792H527.591C527.856 312.792 528.111 312.897 528.298 313.084C528.486 313.272 528.591 313.526 528.591 313.79C528.591 314.055 528.486 314.309 528.298 314.497C528.111 314.684 527.856 314.789 527.591 314.789Z" fill="#CCCCCC"/>
<path d="M527.591 352.447H340.953C340.688 352.447 340.433 352.342 340.246 352.155C340.058 351.967 339.953 351.713 339.953 351.449C339.953 351.184 340.058 350.93 340.246 350.743C340.433 350.555 340.688 350.45 340.953 350.45H527.591C527.856 350.45 528.111 350.555 528.298 350.743C528.486 350.93 528.591 351.184 528.591 351.449C528.591 351.713 528.486 351.967 528.298 352.155C528.111 352.342 527.856 352.447 527.591 352.447Z" fill="#CCCCCC"/>
<path d="M527.591 390.104H340.953C340.688 390.104 340.433 389.999 340.246 389.812C340.058 389.625 339.953 389.371 339.953 389.106C339.953 388.841 340.058 388.587 340.246 388.4C340.433 388.212 340.688 388.107 340.953 388.107H527.591C527.856 388.107 528.111 388.212 528.298 388.4C528.486 388.587 528.591 388.841 528.591 389.106C528.591 389.371 528.486 389.625 528.298 389.812C528.111 389.999 527.856 390.104 527.591 390.104Z" fill="#CCCCCC"/>
<path d="M527.591 427.762H340.953C340.688 427.762 340.433 427.657 340.246 427.47C340.058 427.283 339.953 427.029 339.953 426.764C339.953 426.499 340.058 426.245 340.246 426.058C340.433 425.871 340.688 425.765 340.953 425.765H527.591C527.856 425.765 528.111 425.871 528.298 426.058C528.486 426.245 528.591 426.499 528.591 426.764C528.591 427.029 528.486 427.283 528.298 427.47C528.111 427.657 527.856 427.762 527.591 427.762Z" fill="#CCCCCC"/>
<path d="M499.922 117.71H371.204C370.703 117.711 370.207 117.613 369.743 117.422C369.28 117.231 368.859 116.951 368.504 116.597C368.15 116.244 367.868 115.824 367.676 115.362C367.484 114.9 367.385 114.404 367.385 113.904C367.385 113.403 367.484 112.908 367.676 112.446C367.868 111.984 368.15 111.564 368.504 111.21C368.859 110.857 369.28 110.576 369.743 110.385C370.207 110.195 370.703 110.097 371.204 110.097H499.922C500.932 110.099 501.9 110.501 502.613 111.215C503.327 111.928 503.728 112.895 503.728 113.904C503.728 114.912 503.327 115.879 502.613 116.593C501.9 117.307 500.932 117.708 499.922 117.71V117.71Z" fill="#CCCCCC"/>
<path d="M499.922 155.368H371.204C370.193 155.368 369.223 154.967 368.508 154.253C367.793 153.539 367.392 152.571 367.392 151.561C367.392 150.552 367.793 149.584 368.508 148.87C369.223 148.156 370.193 147.755 371.204 147.755H499.922C500.933 147.755 501.902 148.156 502.617 148.87C503.332 149.584 503.734 150.552 503.734 151.561C503.734 152.571 503.332 153.539 502.617 154.253C501.902 154.967 500.933 155.368 499.922 155.368V155.368Z" fill="#CCCCCC"/>
<path d="M499.922 193.025H371.204C370.703 193.026 370.207 192.928 369.743 192.737C369.28 192.546 368.859 192.266 368.504 191.913C368.15 191.559 367.868 191.139 367.676 190.677C367.484 190.215 367.385 189.719 367.385 189.219C367.385 188.719 367.484 188.223 367.676 187.761C367.868 187.299 368.15 186.879 368.504 186.525C368.859 186.172 369.28 185.892 369.743 185.701C370.207 185.51 370.703 185.412 371.204 185.413H499.922C500.932 185.414 501.9 185.816 502.613 186.53C503.327 187.243 503.728 188.211 503.728 189.219C503.728 190.227 503.327 191.195 502.613 191.908C501.9 192.622 500.932 193.024 499.922 193.025V193.025Z" fill="#CCCCCC"/>
<path d="M499.922 230.683H371.204C370.193 230.683 369.223 230.282 368.508 229.568C367.793 228.854 367.392 227.886 367.392 226.877C367.392 225.867 367.793 224.899 368.508 224.185C369.223 223.471 370.193 223.07 371.204 223.07H499.922C500.933 223.07 501.902 223.471 502.617 224.185C503.332 224.899 503.734 225.867 503.734 226.877C503.734 227.886 503.332 228.854 502.617 229.568C501.902 230.282 500.933 230.683 499.922 230.683V230.683Z" fill="#CCCCCC"/>
<path d="M499.922 268.34H371.204C370.703 268.341 370.207 268.243 369.743 268.052C369.28 267.862 368.859 267.581 368.504 267.228C368.15 266.874 367.868 266.454 367.676 265.992C367.484 265.53 367.385 265.034 367.385 264.534C367.385 264.034 367.484 263.538 367.676 263.076C367.868 262.614 368.15 262.194 368.504 261.84C368.859 261.487 369.28 261.207 369.743 261.016C370.207 260.825 370.703 260.727 371.204 260.728H499.922C500.932 260.729 501.9 261.131 502.613 261.845C503.327 262.558 503.728 263.526 503.728 264.534C503.728 265.543 503.327 266.51 502.613 267.223C501.9 267.937 500.932 268.339 499.922 268.34V268.34Z" fill="#CCCCCC"/>
<path d="M499.922 305.998H371.204C370.703 305.999 370.207 305.901 369.743 305.71C369.28 305.519 368.859 305.239 368.504 304.885C368.15 304.532 367.868 304.112 367.676 303.65C367.484 303.188 367.385 302.692 367.385 302.192C367.385 301.691 367.484 301.196 367.676 300.734C367.868 300.271 368.15 299.852 368.504 299.498C368.859 299.145 369.28 298.864 369.743 298.673C370.207 298.482 370.703 298.385 371.204 298.385H499.922C500.932 298.387 501.9 298.789 502.613 299.502C503.327 300.216 503.728 301.183 503.728 302.192C503.728 303.2 503.327 304.167 502.613 304.881C501.9 305.595 500.932 305.996 499.922 305.998V305.998Z" fill="#CCCCCC"/>
<path d="M499.922 343.656H371.204C370.193 343.656 369.223 343.255 368.508 342.541C367.793 341.827 367.392 340.859 367.392 339.849C367.392 338.84 367.793 337.872 368.508 337.158C369.223 336.444 370.193 336.043 371.204 336.043H499.922C500.933 336.043 501.902 336.444 502.617 337.158C503.332 337.872 503.734 338.84 503.734 339.849C503.734 340.859 503.332 341.827 502.617 342.541C501.902 343.255 500.933 343.656 499.922 343.656V343.656Z" fill="#CCCCCC"/>
<path d="M499.922 381.313H371.204C370.703 381.314 370.207 381.216 369.743 381.025C369.28 380.834 368.859 380.554 368.504 380.201C368.15 379.847 367.868 379.427 367.676 378.965C367.484 378.503 367.385 378.007 367.385 377.507C367.385 377.006 367.484 376.511 367.676 376.049C367.868 375.587 368.15 375.167 368.504 374.813C368.859 374.46 369.28 374.179 369.743 373.989C370.207 373.798 370.703 373.7 371.204 373.701H499.922C500.932 373.702 501.9 374.104 502.613 374.818C503.327 375.531 503.728 376.498 503.728 377.507C503.728 378.515 503.327 379.482 502.613 380.196C501.9 380.91 500.932 381.312 499.922 381.313V381.313Z" fill="#CCCCCC"/>
<path d="M499.922 418.971H371.204C370.703 418.971 370.208 418.872 369.745 418.681C369.283 418.49 368.862 418.209 368.508 417.856C368.154 417.502 367.873 417.083 367.682 416.621C367.49 416.159 367.392 415.664 367.392 415.164C367.392 414.665 367.49 414.17 367.682 413.708C367.873 413.246 368.154 412.826 368.508 412.473C368.862 412.12 369.283 411.839 369.745 411.648C370.208 411.457 370.703 411.358 371.204 411.358H499.922C500.933 411.358 501.902 411.759 502.617 412.473C503.332 413.187 503.734 414.155 503.734 415.164C503.734 416.174 503.332 417.142 502.617 417.856C501.902 418.57 500.933 418.971 499.922 418.971V418.971Z" fill="#CCCCCC"/>
<path d="M383.643 89.2223H350.333C350.067 89.2223 349.813 89.3275 349.625 89.5148C349.438 89.702 349.332 89.956 349.332 90.2208C349.332 90.4856 349.438 90.7396 349.625 90.9268C349.813 91.1141 350.067 91.2193 350.333 91.2193H365.988V123.808C365.988 124.073 366.093 124.327 366.281 124.514C366.468 124.701 366.723 124.806 366.988 124.806C367.253 124.806 367.508 124.701 367.695 124.514C367.883 124.327 367.988 124.073 367.988 123.808V106.849C367.988 102.704 369.637 98.7283 372.573 95.7972C375.509 92.866 379.491 91.2193 383.643 91.2193C383.909 91.2193 384.163 91.1141 384.351 90.9269C384.538 90.7396 384.644 90.4856 384.644 90.2208C384.644 89.956 384.538 89.702 384.351 89.5148C384.163 89.3275 383.909 89.2223 383.643 89.2223V89.2223Z" fill="#3F3D56"/>
<path d="M504.588 426.907C504.036 426.907 497.024 426.46 497.024 425.908L503.588 392.652C503.588 392.387 503.693 392.133 503.881 391.946C504.068 391.758 504.323 391.653 504.588 391.653C504.853 391.653 505.108 391.758 505.295 391.946C505.483 392.133 505.588 392.387 505.588 392.652V425.908C505.588 426.173 505.483 426.427 505.295 426.614C505.108 426.801 504.853 426.907 504.588 426.907V426.907Z" fill="#3F3D56"/>
<path d="M580.182 80.0954C580.182 73.9793 577.748 68.1137 573.417 63.7889C569.085 59.4642 563.21 57.0346 557.084 57.0345H298.562C309.014 57.0345 434.611 64.4083 514.626 73.7157C527.966 75.2659 540.481 80.9625 550.402 90.0005C560.323 99.0386 567.147 110.961 569.911 124.082C593.436 235.825 589.139 349.626 559.179 465.324C559.179 471.44 556.746 477.306 552.414 481.631C548.082 485.955 542.207 488.385 536.081 488.385H557.084C563.21 488.385 569.085 485.955 573.417 481.631C577.748 477.306 580.182 471.44 580.182 465.324C614.083 334.407 615.125 205.921 580.182 80.0954Z" fill="white"/>
<path d="M570.433 477.006L568.496 476.506C602.695 344.44 602.706 215.043 568.532 91.9068C564.975 85.4682 559.857 80.023 553.647 76.0693C547.437 72.1155 540.333 69.7795 532.986 69.2749L430.508 62.0246L430.649 60.0324L533.127 67.2828C540.828 67.812 548.272 70.2655 554.774 74.4178C561.277 78.5701 566.63 84.2878 570.34 91.0453L570.428 91.2603C587.706 153.448 596.404 217.699 596.281 282.234C596.152 345.736 587.455 411.268 570.433 477.006Z" fill="#CCCCCC"/>
</g>
<defs>
<clipPath id="clip0_2_264">
<rect width="606" height="564" fill="white"/>
</clipPath>
</defs>
</svg>
