<svg width="460" height="300" viewBox="0 0 669 511" fill="none" xmlns="http://www.w3.org/2000/svg">
<g clip-path="url(#clip0_2_158)">
<path d="M623.739 440.503L624.882 414.815C636.803 408.449 650.1 405.086 663.617 405.019C645.013 420.214 647.338 449.505 634.725 469.939C630.743 476.282 625.382 481.648 619.041 485.64C612.701 489.632 605.542 492.147 598.096 493L582.527 502.522C580.391 490.625 580.862 478.406 583.908 466.708C586.954 455.01 592.502 444.11 600.17 434.761C604.524 429.558 609.516 424.924 615.029 420.967C618.757 430.789 623.739 440.503 623.739 440.503Z" fill="#5FA054"/>
<path d="M387.659 508.917C379.73 508.353 377.662 509.916 365.665 508.917H343.671L346.532 456.333L381.157 470.195L553.226 474.415L553.125 474.706C553.048 474.931 545.408 497.256 551.38 505.71L551.627 506.059L551.144 506.064L393.298 507.51C391.574 507.526 389.369 509.038 387.659 508.917Z" fill="white"/>
<path d="M396.584 509.604C381.267 508.516 365.406 514.465 352.168 507.748L341.587 508.389L341.556 508.3C341.474 508.056 336.476 468.763 346.581 453.528L347.026 452.857L347.374 456.466L344.042 505.413L351.426 502.952C369.358 511.384 390.685 505.815 411.209 505.737L550.887 505.222C553.813 505.212 556.251 507.209 556.329 509.675L556.336 509.916L405.021 509.904C402.199 509.904 399.387 509.804 396.584 509.604Z" fill="#CCCCCC"/>
<path d="M543.525 485.019L386.339 481.898L386.178 481.838L349.041 467.934L349.743 466.063L386.72 479.909L543.565 483.022L543.525 485.019Z" fill="#141850"/>
<path d="M542.686 493.428L385.5 490.307L385.34 490.247L348.202 476.342L348.904 474.471L385.882 488.317L542.726 491.431L542.686 493.428Z" fill="#141850"/>
<path d="M541.847 501.838L384.661 498.716L384.501 498.656L347.363 484.75L348.065 482.879L385.043 496.726L541.887 499.84L541.847 501.838Z" fill="#141850"/>
<path d="M397.67 474.958C383.096 473.974 368.887 469.969 355.948 463.197L345.053 457.424L345.337 454.569C345.417 454.151 345.648 453.776 345.988 453.518C346.327 453.259 346.75 453.135 347.175 453.169L348.137 453.181L494.727 455.336C504.321 455.455 513.828 457.179 522.852 460.436L554.792 472.021L554.775 472.189C554.507 474.878 551.793 476.956 548.597 476.918L404.201 475.228C402.016 475.202 399.839 475.112 397.67 474.958Z" fill="#141850"/>
<path d="M554.485 472.639L554.452 472.637L378.664 468.613L378.542 468.557L346.848 453.894L347.17 453.403L348.133 453.415L378.958 467.684L553.116 471.667L554.512 471.7L554.485 472.639Z" fill="#CCCCCC"/>
<path d="M417.825 454.441L415.594 454.41L365.215 453.665L362.828 453.632C374.339 465.875 399.791 468.938 437.097 464.195L417.825 454.441Z" fill="#CCCCCC"/>
<path d="M559.467 161.615L562.54 168.757L557.517 194.121L506.276 187.004L506.684 156.075L507.713 149.301L559.467 161.615Z" fill="#FFB6B6"/>
<path d="M585.941 490.34H574.636L569.255 446.778H585.941V490.34Z" fill="#FFB6B6"/>
<path d="M552.314 505.084C552.315 506.363 552.824 507.59 553.729 508.494C554.635 509.399 555.863 509.908 557.143 509.909H578.651L582.358 502.263L583.798 509.909H591.905L589.626 482.6L585.941 482.385L573.56 481.649L571.565 481.524V489.26L554.4 501.108C553.756 501.553 553.23 502.147 552.866 502.839C552.503 503.532 552.313 504.302 552.314 505.084Z" fill="#2F2E41"/>
<path d="M481.45 440.401H470.145L463.495 376.267L484.736 375L481.45 440.401Z" fill="#FFB6B6"/>
<path d="M447.822 455.145C447.823 456.424 448.332 457.651 449.238 458.556C450.143 459.46 451.371 459.969 452.652 459.97H474.159L477.867 452.325L479.307 459.97H487.413L485.134 432.662L481.846 432.469L469.25 431.71L467.073 431.585V439.322L449.908 451.169C449.264 451.614 448.738 452.208 448.375 452.9C448.012 453.593 447.822 454.363 447.822 455.145V455.145Z" fill="#2F2E41"/>
<path d="M590.739 452.774H590.695L588.521 381.942C589.928 379.231 590.642 376.214 590.6 373.161C590.557 370.107 589.76 367.111 588.278 364.44L587.967 363.877L588.774 360.139C589.81 355.337 589.335 350.332 587.412 345.811L585.384 279.739C592.63 232.822 558.096 202.225 558.096 202.225L561.27 177.635L505.415 178.903L506.365 202.225L495.259 240.346C489.414 297.236 450.076 332.994 456.055 387.397C456.068 387.553 456.044 387.71 455.987 387.856C455.38 389.699 455.167 391.649 455.36 393.579C455.554 395.509 456.15 397.378 457.11 399.064C457.359 399.494 457.53 399.965 457.616 400.455C458.848 409.992 459.008 397.928 460.64 407.381L460.323 407.541C459.179 407.936 458.689 409.518 459.227 411.077C459.765 412.635 461.129 413.578 462.272 413.184L492.132 413.503C493.275 413.109 493.766 411.526 493.227 409.967C492.689 408.409 491.326 407.466 490.182 407.86L488.324 408.799L491.432 398.641L492.522 397.624C493.044 397.138 493.448 396.539 493.706 395.874C493.964 395.209 494.068 394.494 494.01 393.783C493.952 393.072 493.734 392.383 493.372 391.768C493.01 391.153 492.513 390.628 491.92 390.232L495.015 373.725L494.576 361.24L495.482 347.077L534.66 290.361L550.511 368.703L566.702 453.562C566.324 453.903 566.041 454.334 565.878 454.816C565.715 455.297 565.679 455.812 565.773 456.312C565.922 457.009 566.31 457.634 566.869 458.077C567.428 458.521 568.124 458.756 568.838 458.743H590.818C591.279 458.743 591.734 458.636 592.146 458.431C592.559 458.227 592.919 457.93 593.198 457.563C593.477 457.197 593.668 456.771 593.755 456.319C593.842 455.867 593.824 455.401 593.701 454.957C593.516 454.319 593.125 453.759 592.59 453.365C592.055 452.97 591.404 452.763 590.739 452.774V452.774Z" fill="#2F2E41"/>
<path d="M571.193 41.0898C571.195 45.6121 570.085 50.0657 567.962 54.0596C565.838 58.0535 562.766 61.4656 559.015 63.9964C555.263 66.5271 550.947 68.0992 546.446 68.5746C541.944 69.0499 537.394 68.414 533.196 66.7227C528.998 65.0314 525.279 62.3364 522.367 58.8742C519.455 55.412 517.438 51.2886 516.493 46.8659C515.549 42.4432 515.705 37.8564 516.949 33.5081C518.193 29.1599 520.486 25.1832 523.628 21.9272L523.76 21.7947C523.982 21.5625 524.203 21.3305 524.435 21.1094C524.437 21.1094 524.438 21.1092 524.439 21.1086C524.441 21.1081 524.442 21.1072 524.443 21.1062C524.444 21.1052 524.445 21.1039 524.445 21.1026C524.446 21.1012 524.446 21.0998 524.446 21.0983C524.763 20.867 525.056 20.6041 525.32 20.3137C529.053 15.1021 533.286 10.732 543.539 13.4622C558.3 17.3927 571.193 25.8282 571.193 41.0898Z" fill="#2F2E41"/>
<path d="M419.282 29.2626C419.219 30.7408 419.482 32.2147 420.051 33.5805C420.62 34.9463 421.482 36.1709 422.576 37.1679C423.67 38.1649 424.97 38.9101 426.383 39.351C427.797 39.792 429.29 39.9179 430.758 39.72L502.077 98.1946L512.97 79.066L439.441 27.6023C438.944 25.1613 437.569 22.9869 435.575 21.4912C433.582 19.9956 431.108 19.2825 428.623 19.4872C426.138 19.6918 423.815 20.8 422.093 22.6017C420.371 24.4034 419.371 26.7734 419.282 29.2627V29.2626Z" fill="#FFB6B6"/>
<path d="M532.191 115.439C532.191 115.439 532.169 113.333 520.832 113.414C506.759 113.515 468 93.33 471.39 74.3201C469.781 75.0467 467.975 75.2177 466.257 74.8062C464.539 74.3946 463.008 73.4238 461.903 72.0467L480.772 53.8975C486.693 54.297 486.753 58.2552 486.246 60.528L501.41 66.5479L540.906 89.2172L533.932 111.988L532.191 115.439Z" fill="#5FA054"/>
<path d="M536.725 70.6489C549.533 70.6489 559.915 60.2767 559.915 47.482C559.915 34.6872 549.533 24.315 536.725 24.315C523.918 24.315 513.536 34.6872 513.536 47.482C513.536 60.2767 523.918 70.6489 536.725 70.6489Z" fill="#FFB7B7"/>
<path d="M504.854 162.712C503.573 164.42 502.919 166.516 503.002 168.648C503.084 170.781 503.899 172.82 505.308 174.424C505.319 175.103 505.421 175.76 506.385 178.196C506.511 178.432 506.659 178.655 506.827 178.864C506.858 178.915 506.892 178.964 506.929 179.011C507.944 180.323 509.355 181.272 510.954 181.718L553.402 193.555L559.014 195.118L560 195.389L560.545 187.733C561.807 186.687 562.653 185.225 562.929 183.611C563.206 181.997 562.895 180.337 562.052 178.932L561.27 177.64L565.828 165.396L566.27 164.184L577.891 132.934L577.902 130.85L577.925 128.698L578.039 113.679C578.044 108.945 576.951 104.275 574.847 100.034C572.742 95.7928 569.682 92.0968 565.907 89.2357C562.469 86.6111 558.506 84.7568 554.286 83.7989L554.195 83.7875L549.604 77.6145L530.976 79.4721L529.434 82.6322L527.563 86.438L514.06 94.4686L509.446 105.184L506.328 112.433C501.498 115.899 498.618 120.35 497.791 125.651C496.022 136.91 503.913 148.18 504.854 149.471L505.092 162.395L504.854 162.712Z" fill="#5FA054"/>
<path d="M560.994 53.5554C560.784 53.5222 560.574 53.4779 560.364 53.4447C556.746 52.8038 553.129 52.174 549.523 51.5219L549.191 43.3553L544.822 50.6709C534.855 53.9752 525.53 52.1076 516.758 47.9856C513.865 46.6133 511.057 45.0671 508.351 43.3553C507.46 29.5436 513.05 20.7016 523.451 21.6289C523.83 21.6628 524.103 21.2753 524.435 21.1094C524.437 21.1094 524.438 21.1092 524.439 21.1086C524.441 21.1081 524.442 21.1072 524.443 21.1062C524.444 21.1052 524.445 21.1039 524.445 21.1026C524.446 21.1012 524.446 21.0998 524.446 21.0983C525.01 20.8331 525.585 20.579 526.161 20.3469C530.664 18.5888 535.574 18.1435 540.321 19.0629C545.067 19.9824 549.455 22.2287 552.974 25.5409C560.054 32.2932 563.24 43.4436 560.994 53.5554Z" fill="#2F2E41"/>
<path d="M560.364 53.4448C560.364 53.4448 553.494 27.8285 524.048 21.9161C524.015 21.9052 523.904 21.8609 523.76 21.7947C523.672 21.7394 523.561 21.6841 523.451 21.6289C523.782 21.441 524.103 21.2753 524.435 21.1094C524.437 21.1094 524.438 21.1091 524.439 21.1086C524.441 21.108 524.442 21.1072 524.443 21.1062C524.444 21.1052 524.445 21.1039 524.445 21.1026C524.446 21.1012 524.446 21.0998 524.446 21.0983C524.734 20.8331 525.021 20.5679 525.32 20.3138L526.161 20.3469C526.161 20.3469 555.707 15.6724 560.364 53.4448Z" fill="#FD6584"/>
<path d="M571.692 214.924C571.146 215.39 570.483 215.697 569.775 215.811C569.067 215.926 568.341 215.843 567.677 215.573C566.355 215.013 565.18 214.155 564.246 213.066C560.431 209.069 557.706 204.161 556.329 198.813L557.602 196.552C557.102 193.764 557.572 190.889 558.933 188.405C560.295 185.92 562.466 183.975 565.086 182.893C566.576 182.262 568.229 182.118 569.806 182.483C570.589 182.677 571.304 183.079 571.877 183.645C572.449 184.212 572.858 184.923 573.06 185.702C573.55 188.121 571.533 190.305 569.491 191.693C565.933 194.105 561.82 195.576 557.538 195.966C562.776 198.915 567.304 202.975 570.804 207.859C571.613 208.878 572.21 210.048 572.559 211.301C572.727 211.93 572.735 212.59 572.584 213.222C572.432 213.855 572.126 214.44 571.692 214.924Z" fill="#2F2E41"/>
<path d="M278.574 510.731H667.753C668.084 510.731 668.401 510.6 668.635 510.366C668.869 510.133 669 509.816 669 509.485C669 509.155 668.869 508.838 668.635 508.605C668.401 508.371 668.084 508.24 667.753 508.24H278.574C278.244 508.24 277.926 508.371 277.693 508.605C277.459 508.838 277.327 509.155 277.327 509.485C277.327 509.816 277.459 510.133 277.693 510.366C277.926 510.6 278.244 510.731 278.574 510.731V510.731V510.731Z" fill="#CCCCCC"/>
<path d="M381.932 190.535V191.186C380.53 189.545 379.1 187.918 377.684 186.291C377.089 185.612 376.494 184.933 375.9 184.254C373.379 181.396 370.844 178.548 368.296 175.709C365.732 172.88 363.169 170.051 360.578 167.235C359.955 166.556 359.332 165.877 358.695 165.198C358.185 164.628 357.631 164.098 357.038 163.614C356.44 163.117 355.753 162.737 355.013 162.496C354.162 162.26 353.264 162.251 352.408 162.468C351.43 162.694 350.496 163.048 349.547 163.345C348.57 163.67 347.607 163.982 346.63 164.293C344.676 164.929 342.736 165.566 340.782 166.203C340.758 166.212 340.733 166.217 340.707 166.217C340.682 166.217 340.657 166.212 340.633 166.202C340.61 166.192 340.589 166.177 340.571 166.159C340.553 166.141 340.539 166.12 340.529 166.096L340.527 166.089C340.516 166.063 340.511 166.034 340.512 166.005C340.513 165.976 340.521 165.947 340.534 165.922C340.548 165.896 340.567 165.874 340.59 165.856C340.613 165.839 340.64 165.827 340.668 165.821C341.15 165.665 341.645 165.51 342.141 165.354C344.109 164.703 346.063 164.067 348.032 163.43C349.009 163.105 349.986 162.793 350.963 162.482C351.869 162.138 352.826 161.947 353.795 161.916C355.377 162.03 356.86 162.725 357.958 163.868C358.567 164.434 359.12 165.028 359.672 165.637C360.323 166.344 360.974 167.051 361.626 167.759C364.246 170.617 366.846 173.484 369.428 176.36C372.02 179.246 374.587 182.137 377.132 185.032C377.316 185.244 377.5 185.456 377.684 185.669C379.114 187.281 380.516 188.908 381.932 190.535Z" fill="white"/>
<path d="M356.818 166.22C356.283 165.532 355.57 165.002 354.756 164.689L353.951 164.718C360.271 174.543 368.551 182.96 378.274 189.445C371.122 181.703 363.97 173.962 356.818 166.22Z" fill="white"/>
<path d="M488.713 268.325L456.634 96.7263C456.085 93.8975 454.591 91.339 452.395 89.4702C450.2 87.6014 447.434 86.5332 444.552 86.4408C444.292 86.4351 444.033 86.4351 443.773 86.4408L421.92 87.224L419.568 87.3104L408.662 87.702L406.31 87.7826L399.295 88.036L257.834 93.1096C257.621 93.1211 257.401 93.1211 257.188 93.1153L225.489 92.4531L213.758 92.2112L213.384 92.2055L204.725 92.0212L129.28 90.4547L109.277 90.0343L99.4139 89.8328L97.0505 89.7809L85.804 89.5505L83.4463 89.4987L71.9403 89.2626L69.5826 89.2108L56.9411 88.9458L54.9581 88.9055L43.6827 88.6694L41.9015 88.6349H41.6422C38.6488 88.647 35.7561 89.7161 33.4755 91.6531C31.1948 93.5901 29.6731 96.2702 29.1793 99.2198L0.166585 277.286C-0.128037 279.089 -0.026602 280.936 0.46384 282.696C0.954283 284.457 1.82199 286.09 3.00691 287.483C4.19182 288.875 5.66559 289.994 7.32612 290.761C8.98665 291.528 10.7942 291.925 12.6237 291.925H179.241C181.693 291.932 184.079 292.718 186.054 294.171L189.213 296.509C191.39 298.11 194.021 298.977 196.724 298.985C228.904 290.5 262.737 290.5 294.917 298.985C296.576 298.989 298.219 298.665 299.752 298.03C301.285 297.396 302.676 296.463 303.846 295.288C305.846 293.29 308.516 292.103 311.34 291.954L476.965 283.235C478.761 283.141 480.517 282.665 482.114 281.838C483.71 281.011 485.112 279.854 486.224 278.442C487.337 277.03 488.134 275.397 488.564 273.652C488.993 271.907 489.044 270.091 488.713 268.325V268.325Z" fill="#CCCCCC"/>
<path d="M443.325 241.566C443.112 247.381 440.597 252.874 436.332 256.837C432.067 260.8 426.402 262.909 420.581 262.7C410.963 262.36 399.486 262.19 387.03 262.45C346.35 263.319 295.244 268.912 264.502 289.027C260.638 291.561 256.072 292.812 251.455 292.603C251.115 292.583 250.785 292.563 250.445 292.533C245.659 292.096 241.148 290.099 237.609 286.85C220.673 271.369 181.833 252.622 92.9265 251.304C92.5566 251.304 92.1967 251.284 91.8368 251.264C88.9572 251.083 86.1415 250.337 83.5508 249.068C80.96 247.799 78.645 246.033 76.7379 243.87C74.8308 241.707 73.3692 239.189 72.4365 236.461C71.5038 233.734 71.1183 230.849 71.3022 227.972L80.0399 89.4328L81.3495 68.6684L83.649 32.343C83.8808 28.6848 85.498 25.252 88.172 22.742C90.8459 20.232 94.3761 18.8332 98.0452 18.8297H98.1352L151.101 19.1393C173.416 20.148 191.897 22.9879 206.547 27.6588C211.551 29.209 216.419 31.1665 221.103 33.5116C227.5 36.6101 233.248 40.8981 238.039 46.1461C241.023 49.4986 245.093 51.6945 249.536 52.3485C250.225 52.4513 250.919 52.5146 251.615 52.5382C255.712 52.7076 259.755 51.5517 263.142 49.2423C297.743 26.0808 368.255 24.3229 407.194 25.3217C412.64 25.4486 417.844 27.5961 421.791 31.346C425.739 35.0959 428.148 40.1796 428.549 45.6068L430.128 66.2714L431.698 86.876L440.756 205.96L443.275 239.089C443.337 239.913 443.353 240.74 443.325 241.566V241.566Z" fill="white"/>
<path d="M106.104 67.5795C138.022 57.4058 173.632 60.0992 203.87 74.432C212.498 78.5003 220.647 83.5141 228.166 89.3812C230.293 91.0489 233.319 88.0658 231.169 86.3803C203.396 64.8591 168.499 54.6355 133.49 57.7637C123.805 58.6295 114.243 60.5487 104.974 63.4871C102.379 64.3141 103.488 68.4131 106.103 67.5795H106.104Z" fill="#3F3D56"/>
<path d="M281.741 91.0276C311.418 75.4445 346.954 72.0464 379.22 80.892C388.419 83.4078 397.308 86.9389 405.725 91.4202C408.136 92.7056 410.284 89.0433 407.869 87.7557C377.117 71.3625 340.203 67.5888 306.621 76.727C297.253 79.2808 288.192 82.8472 279.597 87.3629C277.176 88.6342 279.321 92.2985 281.741 91.0276Z" fill="#3F3D56"/>
<path d="M281.741 119.321C311.418 103.738 346.954 100.34 379.22 109.185C388.419 111.701 397.308 115.232 405.725 119.714C408.136 120.999 410.284 117.337 407.869 116.049C377.117 99.656 340.203 95.8823 306.621 105.02C297.253 107.574 288.192 111.141 279.597 115.656C277.176 116.928 279.321 120.592 281.741 119.321L281.741 119.321Z" fill="#3F3D56"/>
<path d="M408.908 146.097C408.931 145.732 408.843 145.37 408.656 145.056C408.469 144.742 408.193 144.492 407.862 144.337C383.226 131.45 355.294 126.223 327.661 129.33C327.487 129.343 327.328 129.371 327.141 129.385H327.134C326.964 129.4 326.795 129.426 326.628 129.461C310.192 131.351 294.247 136.26 279.598 143.943C279.279 144.133 279.014 144.403 278.831 144.726C278.647 145.049 278.551 145.414 278.551 145.785V198.566C278.557 198.891 278.636 199.21 278.783 199.5C278.93 199.789 279.141 200.042 279.4 200.238C279.659 200.434 279.96 200.569 280.279 200.632C280.598 200.695 280.927 200.685 281.241 200.602C281.893 200.415 282.544 200.235 283.21 200.062C298.019 196.057 313.222 193.681 328.548 192.977C328.874 192.963 329.2 192.949 329.539 192.935C342.022 192.4 354.528 192.849 366.94 194.279C367.2 194.293 367.459 194.321 367.716 194.362C368.354 194.431 369.005 194.507 369.643 194.59C369.9 194.618 370.142 194.646 370.378 194.687C372.86 194.999 375.321 195.352 377.789 195.733C381.352 196.301 384.915 196.934 388.478 197.631C388.7 197.672 388.929 197.728 389.158 197.769C394.877 198.905 400.569 200.221 406.232 201.675C406.548 201.757 406.878 201.765 407.197 201.701C407.516 201.636 407.816 201.5 408.075 201.303C408.334 201.105 408.545 200.852 408.692 200.561C408.839 200.271 408.917 199.951 408.922 199.625V146.18C408.924 146.151 408.92 146.123 408.908 146.097V146.097Z" fill="#3F3D56"/>
<path d="M330.991 132.208C329.435 131.446 327.651 131.289 325.985 131.768C325.25 132.044 324.576 132.463 324.004 133C323.432 133.538 322.972 134.184 322.651 134.901C322.074 136.275 321.705 137.727 321.554 139.209C321.466 139.793 321.461 140.528 322.047 140.801C322.26 140.878 322.49 140.896 322.713 140.852C322.935 140.808 323.141 140.704 323.308 140.551C323.611 140.253 323.861 139.905 324.047 139.522C325.065 137.939 326.467 136.637 328.123 135.738C329.778 134.839 331.634 134.371 333.518 134.378L335.086 135.002C333.852 133.892 332.475 132.952 330.991 132.208V132.208Z" fill="#FF6582"/>
<path d="M347.965 144.373C346.748 142.583 345.306 140.671 343.047 140.087C340.432 139.41 337.745 140.755 335.465 142.082C328.688 146.025 322.125 150.325 315.804 154.964L315.811 155.033L330.483 154.133C334.016 153.917 337.671 153.67 340.793 152.184C341.915 151.481 343.168 151.015 344.476 150.814C345.288 150.858 346.082 151.062 346.814 151.414C347.547 151.767 348.202 152.26 348.742 152.867C355.503 159.27 357.46 169.061 365.046 174.686C360.219 164.118 354.505 153.978 347.965 144.373V144.373Z" fill="white"/>
<path d="M329.542 192.934C329.202 192.948 328.876 192.963 328.55 192.977C326.186 192.128 323.764 191.378 321.315 190.727C319.728 190.303 318.114 189.921 316.5 189.596C314.673 189.2 312.833 188.888 310.992 188.619C307.487 188.11 303.954 187.813 300.414 187.728C300.387 187.731 300.36 187.728 300.334 187.72C300.308 187.712 300.285 187.698 300.265 187.68C300.245 187.662 300.228 187.64 300.217 187.616C300.206 187.591 300.201 187.564 300.201 187.537C300.201 187.51 300.206 187.484 300.217 187.459C300.228 187.434 300.245 187.412 300.265 187.394C300.285 187.376 300.308 187.363 300.334 187.354C300.36 187.346 300.387 187.343 300.414 187.346C300.867 187.346 301.32 187.361 301.759 187.389C305.307 187.52 308.844 187.865 312.351 188.422C314.178 188.719 316.004 189.072 317.817 189.468C319.459 189.836 321.102 190.247 322.716 190.699C325.024 191.35 327.299 192.095 329.542 192.934Z" fill="white"/>
<path d="M370.38 194.688C370.14 194.646 369.899 194.618 369.644 194.589C368.667 193.783 367.676 193.019 366.642 192.269C365.353 191.336 364.022 190.459 362.663 189.638C359.652 187.812 356.509 186.214 353.26 184.857C348.123 182.72 342.806 181.044 337.372 179.849C331.174 178.492 324.899 177.509 318.582 176.906C312.266 176.255 305.922 175.859 299.578 175.463C299.309 175.449 299.295 175.053 299.578 175.067C300.371 175.124 301.164 175.166 301.971 175.223C308.386 175.619 314.801 176.071 321.173 176.793C327.491 177.47 333.758 178.556 339.935 180.047C345.208 181.345 350.355 183.111 355.314 185.323C358.166 186.603 360.928 188.073 363.583 189.723C365.268 190.784 366.897 191.916 368.454 193.118C369.106 193.627 369.757 194.137 370.38 194.688Z" fill="white"/>
<path d="M367.718 194.363C367.46 194.322 367.2 194.293 366.939 194.278C366.642 194.038 366.33 193.811 366.019 193.585C363.839 192.026 361.564 190.604 359.208 189.327C357.068 188.165 354.87 187.112 352.623 186.172C347.489 184.029 342.171 182.353 336.735 181.164C330.536 179.807 324.261 178.825 317.944 178.222C311.629 177.571 305.285 177.175 298.941 176.779C298.672 176.75 298.672 176.368 298.941 176.383C299.748 176.439 300.541 176.482 301.334 176.538C307.749 176.934 314.163 177.387 320.536 178.109C326.854 178.785 333.121 179.872 339.298 181.362C344.572 182.658 349.718 184.424 354.676 186.639C356.545 187.488 358.372 188.407 360.156 189.412C362.802 190.863 365.331 192.518 367.718 194.363Z" fill="white"/>
<path d="M389.157 197.772C388.931 197.73 388.704 197.673 388.477 197.631C388.223 197.362 387.982 197.079 387.741 196.796C386.523 195.396 385.32 193.981 384.13 192.552C379.443 186.979 374.997 181.235 370.805 175.378C367.208 170.37 363.796 165.263 360.567 160.057C359.024 157.596 357.537 155.106 356.078 152.588C354.945 150.636 353.841 148.679 352.765 146.717C352.453 146.151 352.156 145.585 351.859 145.019C351.164 143.689 350.471 142.346 349.735 141.03C348.934 139.418 347.759 138.021 346.307 136.956C345.582 136.47 344.743 136.183 343.872 136.121C342.644 136.126 341.437 136.437 340.36 137.026C332.438 140.712 324.964 145.293 318.086 150.678C311.368 155.898 305.293 161.896 299.989 168.545C299.819 168.743 299.451 168.559 299.606 168.347C300.244 167.555 300.895 166.763 301.546 165.985C306.644 159.961 312.385 154.51 318.666 149.73C318.68 149.716 318.709 149.702 318.723 149.688C319.275 149.249 319.828 148.825 320.394 148.415C323.901 145.835 327.551 143.454 331.326 141.285C333.252 140.167 335.22 139.106 337.231 138.102C337.726 137.847 338.236 137.592 338.746 137.352C339.256 137.097 339.766 136.857 340.275 136.616C341.284 136.102 342.388 135.799 343.518 135.725C347.455 135.668 349.479 139.63 350.881 142.303C351.32 143.138 351.774 143.973 352.213 144.807C353.912 147.962 355.682 151.102 357.523 154.201C358.641 156.124 359.802 158.034 360.978 159.93C362.663 162.632 364.39 165.306 366.189 167.965C366.189 167.967 366.189 167.969 366.19 167.971C366.19 167.972 366.191 167.974 366.193 167.975C366.194 167.977 366.195 167.978 366.197 167.978C366.199 167.979 366.201 167.98 366.202 167.98H366.203C368.284 171.12 370.451 174.204 372.689 177.274C376.526 182.522 380.548 187.653 384.753 192.666C386.198 194.391 387.666 196.094 389.157 197.772Z" fill="white"/>
<path d="M338.637 135.294L338.245 135.465C337.348 133.951 336.09 132.683 334.584 131.772C333.078 130.86 331.37 130.335 329.611 130.243C323.814 129.831 318.721 133.691 318.258 138.846C318.07 140.969 318.685 143.085 319.982 144.777L319.619 144.992C318.268 143.23 317.627 141.026 317.823 138.815C318.305 133.447 323.609 129.427 329.646 129.856C331.477 129.952 333.256 130.499 334.824 131.448C336.393 132.396 337.703 133.718 338.637 135.294V135.294Z" fill="#FF6582"/>
<path d="M309.991 145.724C308.469 145.063 306.812 144.773 305.156 144.878C303.5 144.983 301.893 145.481 300.468 146.329C305.671 147.127 310.829 148.197 315.92 149.536C313.812 148.438 312.163 146.717 309.991 145.724Z" fill="white"/>
<path d="M300.439 146.325L299.866 146.739C300.06 146.594 300.261 146.458 300.468 146.329L300.439 146.325Z" fill="white"/>
<path d="M317.693 148.726C317.465 148.5 317.238 148.274 317.008 148.047C315.245 146.131 313.123 144.579 310.761 143.48C309.559 142.975 308.269 142.709 306.964 142.698C305.616 142.729 304.284 142.988 303.022 143.462C302.428 143.673 301.848 143.913 301.276 144.167C300.623 144.46 299.981 144.772 299.343 145.086C298.144 145.676 296.961 146.292 295.793 146.933C293.469 148.21 291.219 149.585 289.041 151.056C287.912 151.82 286.806 152.608 285.724 153.421C284.717 154.177 283.731 154.953 282.765 155.749C282.558 155.918 282.25 155.644 282.457 155.474C282.711 155.263 282.969 155.054 283.226 154.847C283.954 154.262 284.693 153.689 285.443 153.126C286.812 152.099 288.217 151.112 289.656 150.164C291.895 148.689 294.211 147.314 296.605 146.039C297.8 145.403 299.013 144.793 300.242 144.21C300.613 144.034 300.988 143.862 301.368 143.699C302.235 143.311 303.13 142.987 304.045 142.73C305.357 142.354 306.73 142.234 308.087 142.377C309.388 142.543 310.649 142.931 311.818 143.524C314.133 144.821 316.222 146.485 318.002 148.451C318.188 148.637 317.881 148.913 317.693 148.726Z" fill="white"/>
<path d="M106.104 95.873C138.022 85.6992 173.632 88.3927 203.87 102.725C212.498 106.794 220.647 111.808 228.166 117.675C230.293 119.342 233.319 116.359 231.169 114.674C203.396 93.1525 168.499 82.9289 133.49 86.0571C123.805 86.9229 114.243 88.8421 104.974 91.7805C102.379 92.6075 103.488 96.7065 106.103 95.8729L106.104 95.873Z" fill="#3F3D56"/>
<path d="M106.104 124.166C138.022 113.993 173.632 116.686 203.87 131.019C212.498 135.087 220.647 140.101 228.166 145.968C230.293 147.636 233.319 144.653 231.169 142.967C203.396 121.446 168.499 111.222 133.49 114.351C123.805 115.216 114.243 117.136 104.974 120.074C102.379 120.901 103.488 125 106.103 124.166L106.104 124.166Z" fill="#3F3D56"/>
<path d="M106.104 152.46C138.022 142.286 173.632 144.979 203.87 159.312C212.498 163.38 220.647 168.394 228.166 174.261C230.293 175.929 233.319 172.946 231.169 171.26C203.396 149.739 168.499 139.516 133.49 142.644C123.805 143.51 114.243 145.429 104.974 148.367C102.379 149.194 103.488 153.293 106.103 152.46L106.104 152.46Z" fill="#3F3D56"/>
<path d="M106.104 180.753C138.022 170.579 173.632 173.273 203.87 187.606C212.498 191.674 220.647 196.688 228.166 202.555C230.293 204.223 233.319 201.24 231.169 199.554C203.396 178.033 168.499 167.809 133.49 170.937C123.805 171.803 114.243 173.722 104.974 176.661C102.379 177.488 103.488 181.587 106.103 180.753L106.104 180.753Z" fill="#3F3D56"/>
<path d="M106.104 209.047C138.022 198.873 173.632 201.566 203.87 215.899C212.498 219.967 220.647 224.981 228.166 230.848C230.293 232.516 233.319 229.533 231.169 227.847C203.396 206.326 168.499 196.103 133.49 199.231C123.805 200.097 114.243 202.016 104.974 204.954C102.379 205.781 103.488 209.88 106.103 209.047H106.104Z" fill="#3F3D56"/>
<path d="M221.103 33.5116V101.358C221.103 102.707 218.744 103.835 215.564 104.145C215.537 104.143 215.51 104.147 215.484 104.155C214.955 104.195 214.395 104.225 213.825 104.225C212.072 104.257 210.328 103.973 208.676 103.386C208.526 103.326 208.376 103.256 208.226 103.196C208.086 103.116 207.936 103.046 207.796 102.966C207.007 102.497 206.547 101.947 206.547 101.358V27.6588C211.551 29.209 216.419 31.1665 221.103 33.5116V33.5116Z" fill="#5FA054"/>
<path d="M251.613 49.2476H249.533V291.185H251.613V49.2476Z" fill="#E6E6E6"/>
<path d="M477.776 214.87C479.25 214.736 480.678 214.279 481.957 213.534C483.236 212.789 484.336 211.772 485.179 210.556C486.023 209.34 486.589 207.954 486.838 206.495C487.088 205.037 487.014 203.542 486.622 202.115L529.788 181.984L555.776 139.987L535.349 131.748L517.817 165.59L473.444 195.131C471.089 195.948 469.115 197.599 467.896 199.772C466.678 201.945 466.3 204.49 466.834 206.923C467.368 209.356 468.777 211.509 470.793 212.974C472.81 214.438 475.294 215.113 477.776 214.87V214.87Z" fill="#FFB6B6"/>
<path d="M571.806 99.7546C571.806 99.7546 576.894 101.414 571.31 111.272C566.84 119.164 545.065 164.624 536.177 173.55C537.112 175.047 537.522 176.812 537.343 178.567C537.163 180.323 536.404 181.969 535.185 183.246L514.667 166.98C514.275 161.064 518.194 160.477 520.516 160.677L525.237 143.964L541.7 102.736L568.151 98.4902L571.806 99.7546Z" fill="#5FA054"/>
<path d="M572.25 22.4806C573.22 18.5622 580.257 15.6689 568.202 10.1984C565.276 8.87071 565.398 4.29853 562.923 2.25095C560.448 0.203367 556.824 -0.745917 553.947 0.685263C551.379 1.9633 549.931 4.85555 549.623 7.70575C549.475 10.5744 549.806 13.4476 550.604 16.2074L550.37 16.5485C555.145 20.1991 559.921 23.8497 564.696 27.5002C566.451 28.8416 568.745 30.2463 570.711 29.2397C572.938 28.1003 571.649 24.9065 572.25 22.4806Z" fill="#2F2E41"/>
</g>
<defs>
<clipPath id="clip0_2_158">
<rect width="669" height="511" fill="white"/>
</clipPath>
</defs>
</svg>
