<svg width="669" height="511" viewBox="0 0 669 511" fill="none" xmlns="http://www.w3.org/2000/svg">
<g clip-path="url(#clip0_215_92)">
<path d="M623.739 440.502L624.883 414.814C636.804 408.448 650.1 405.086 663.617 405.019C645.014 420.214 647.339 449.505 634.726 469.938C630.743 476.281 625.383 481.648 619.042 485.64C612.701 489.632 605.542 492.147 598.096 492.999L582.528 502.522C580.392 490.624 580.863 478.406 583.908 466.708C586.954 455.009 592.502 444.11 600.17 434.76C604.524 429.557 609.516 424.923 615.029 420.967C618.758 430.789 623.739 440.502 623.739 440.502Z" fill="#5FA054"/>
<path d="M387.659 508.917C379.73 508.353 377.662 509.916 365.665 508.917H343.671L346.532 456.333L381.157 470.194L553.226 474.415L553.125 474.706C553.048 474.931 545.408 497.255 551.38 505.709L551.627 506.059L551.144 506.064L393.298 507.51C391.574 507.526 389.369 509.038 387.659 508.917Z" fill="#DAFFD4"/>
<path d="M396.585 509.604C381.267 508.515 365.406 514.464 352.168 507.748L341.587 508.388L341.557 508.299C341.475 508.056 336.476 468.762 346.581 453.527L347.026 452.856L347.374 456.465L344.042 505.413L351.426 502.951C369.358 511.383 390.685 505.815 411.21 505.737L550.887 505.221C553.813 505.211 556.251 507.209 556.329 509.674L556.336 509.915L405.021 509.904C402.199 509.903 399.387 509.804 396.585 509.604Z" fill="#CCCCCC"/>
<path d="M543.525 485.019L386.339 481.898L386.178 481.838L349.041 467.933L349.742 466.062L386.72 479.908L543.565 483.022L543.525 485.019Z" fill="#141850"/>
<path d="M542.686 493.428L385.5 490.307L385.34 490.247L348.202 476.342L348.904 474.472L385.882 488.318L542.726 491.431L542.686 493.428Z" fill="#141850"/>
<path d="M541.847 501.838L384.661 498.715L384.502 498.656L347.363 484.75L348.065 482.879L385.043 496.726L541.887 499.84L541.847 501.838Z" fill="#141850"/>
<path d="M397.67 474.958C383.096 473.974 368.887 469.969 355.948 463.197L345.053 457.424L345.337 454.57C345.417 454.151 345.648 453.776 345.988 453.518C346.327 453.259 346.75 453.135 347.175 453.17L348.137 453.182L494.727 455.337C504.321 455.456 513.828 457.179 522.852 460.436L554.792 472.021L554.775 472.189C554.507 474.878 551.793 476.956 548.596 476.919L404.2 475.228C402.016 475.203 399.839 475.113 397.67 474.958Z" fill="#141850"/>
<path d="M554.485 472.639L554.452 472.637L378.664 468.613L378.542 468.557L346.848 453.894L347.17 453.403L348.133 453.415L378.958 467.684L553.116 471.667L554.512 471.7L554.485 472.639Z" fill="#CCCCCC"/>
<path d="M417.825 454.441L415.594 454.41L365.215 453.665L362.828 453.632C374.339 465.875 399.791 468.938 437.097 464.195L417.825 454.441Z" fill="#CCCCCC"/>
<path d="M559.466 161.616L562.54 168.758L557.517 194.122L506.275 187.004L506.684 156.075L507.713 149.302L559.466 161.616Z" fill="#FFB6B6"/>
<path d="M585.941 490.34H574.636L569.255 446.777H585.941V490.34Z" fill="#FFB6B6"/>
<path d="M552.313 505.084C552.315 506.363 552.824 507.59 553.729 508.495C554.635 509.399 555.863 509.908 557.143 509.909H578.651L582.358 502.264L583.798 509.909H591.905L589.626 482.6L585.941 482.385L573.56 481.649L571.565 481.524V489.26L554.4 501.108C553.756 501.553 553.23 502.147 552.866 502.839C552.503 503.532 552.313 504.302 552.313 505.084Z" fill="#2F2E41"/>
<path d="M481.45 440.402H470.145L463.495 376.267L484.736 375L481.45 440.402Z" fill="#FFB6B6"/>
<path d="M447.822 455.145C447.823 456.425 448.333 457.652 449.238 458.556C450.144 459.461 451.371 459.97 452.652 459.971H474.16L477.867 452.325L479.307 459.971H487.413L485.134 432.662L481.847 432.469L469.25 431.711L467.074 431.586V439.322L449.908 451.17C449.265 451.614 448.739 452.208 448.375 452.901C448.012 453.593 447.822 454.364 447.822 455.145V455.145Z" fill="#2F2E41"/>
<path d="M590.739 452.774H590.695L588.521 381.942C589.928 379.231 590.642 376.214 590.6 373.16C590.557 370.107 589.76 367.111 588.278 364.44L587.967 363.877L588.774 360.139C589.81 355.337 589.335 350.332 587.412 345.811L585.384 279.738C592.63 232.822 558.096 202.225 558.096 202.225L561.27 177.635L505.415 178.903L506.365 202.225L495.258 240.346C489.414 297.236 450.076 332.994 456.055 387.397C456.067 387.553 456.044 387.71 455.987 387.856C455.38 389.699 455.167 391.648 455.36 393.579C455.554 395.509 456.15 397.378 457.11 399.064C457.359 399.494 457.53 399.965 457.616 400.455C458.847 409.992 459.008 397.928 460.64 407.381L460.323 407.541C459.179 407.936 458.688 409.518 459.227 411.077C459.765 412.635 461.129 413.578 462.272 413.184L492.131 413.503C493.275 413.109 493.766 411.526 493.227 409.967C492.689 408.409 491.325 407.466 490.182 407.86L488.324 408.799L491.432 398.64L492.521 397.624C493.043 397.138 493.448 396.539 493.706 395.874C493.964 395.209 494.068 394.494 494.01 393.783C493.952 393.072 493.734 392.383 493.372 391.768C493.01 391.153 492.513 390.628 491.919 390.232L495.015 373.725L494.576 361.24L495.481 347.077L534.66 290.361L550.511 368.703L566.702 453.562C566.324 453.902 566.04 454.334 565.878 454.816C565.715 455.297 565.679 455.812 565.773 456.312C565.922 457.009 566.31 457.633 566.869 458.077C567.428 458.521 568.124 458.756 568.838 458.743H590.818C591.279 458.743 591.733 458.636 592.146 458.431C592.559 458.227 592.919 457.93 593.198 457.563C593.477 457.197 593.668 456.771 593.755 456.319C593.842 455.867 593.824 455.401 593.701 454.957C593.516 454.319 593.125 453.759 592.59 453.365C592.055 452.97 591.404 452.762 590.739 452.774V452.774Z" fill="#2F2E41"/>
<path d="M571.193 41.0893C571.195 45.6116 570.085 50.0652 567.962 54.0591C565.838 58.053 562.766 61.4651 559.015 63.9959C555.263 66.5267 550.947 68.0988 546.445 68.5741C541.944 69.0495 537.394 68.4136 533.196 66.7223C528.998 65.0309 525.279 62.3359 522.367 58.8737C519.455 55.4116 517.438 51.2882 516.493 46.8654C515.549 42.4427 515.705 37.8559 516.949 33.5077C518.193 29.1595 520.486 25.1828 523.627 21.9267L523.76 21.7942C523.981 21.5621 524.203 21.33 524.435 21.1089C524.436 21.109 524.438 21.1087 524.439 21.1081C524.441 21.1076 524.442 21.1068 524.443 21.1057C524.444 21.1047 524.445 21.1035 524.445 21.1021C524.446 21.1008 524.446 21.0993 524.446 21.0979C524.763 20.8666 525.056 20.6037 525.32 20.3133C529.053 15.1016 533.286 10.7316 543.539 13.4617C558.3 17.3923 571.193 25.8277 571.193 41.0893Z" fill="#2F2E41"/>
<path d="M419.282 29.263C419.219 30.7412 419.481 32.215 420.051 33.5809C420.62 34.9467 421.482 36.1712 422.576 37.1683C423.67 38.1653 424.97 38.9105 426.383 39.3514C427.797 39.7923 429.29 39.9183 430.758 39.7203L502.076 98.1949L512.97 79.0663L439.44 27.6026C438.944 25.1616 437.569 22.9873 435.575 21.4916C433.581 19.9959 431.108 19.2829 428.623 19.4875C426.138 19.6922 423.815 20.8004 422.093 22.6021C420.371 24.4038 419.371 26.7738 419.282 29.2631V29.263Z" fill="#FFB6B6"/>
<path d="M532.191 115.439C532.191 115.439 532.169 113.333 520.832 113.414C506.759 113.515 468 93.33 471.39 74.3201C469.781 75.0467 467.975 75.2177 466.257 74.8062C464.54 74.3946 463.008 73.4238 461.903 72.0467L480.772 53.8975C486.693 54.297 486.753 58.2552 486.246 60.528L501.411 66.5479L540.906 89.2172L533.932 111.988L532.191 115.439Z" fill="#5FA054"/>
<path d="M536.726 70.6493C549.533 70.6493 559.915 60.2771 559.915 47.4824C559.915 34.6876 549.533 24.3154 536.726 24.3154C523.918 24.3154 513.536 34.6876 513.536 47.4824C513.536 60.2771 523.918 70.6493 536.726 70.6493Z" fill="#FFB7B7"/>
<path d="M504.854 162.712C503.573 164.419 502.919 166.515 503.002 168.648C503.084 170.78 503.898 172.82 505.308 174.423C505.319 175.103 505.421 175.76 506.385 178.195C506.511 178.431 506.659 178.655 506.827 178.864C506.858 178.914 506.892 178.964 506.929 179.011C507.944 180.322 509.355 181.272 510.954 181.718L553.402 193.554L559.014 195.117L560 195.389L560.544 187.732C561.807 186.687 562.652 185.225 562.929 183.611C563.206 181.996 562.895 180.337 562.052 178.932L561.27 177.64L565.828 165.396L566.27 164.184L577.891 132.934L577.902 130.85L577.925 128.698L578.038 113.678C578.044 108.945 576.951 104.274 574.846 100.033C572.742 95.7926 569.682 92.0966 565.907 89.2355C562.469 86.6108 558.506 84.7566 554.286 83.7987L554.195 83.7873L549.604 77.6143L530.976 79.4719L529.434 82.632L527.563 86.4378L514.06 94.4684L509.446 105.183L506.328 112.433C501.498 115.899 498.618 120.35 497.791 125.651C496.022 136.91 503.913 148.18 504.854 149.471L505.092 162.395L504.854 162.712Z" fill="#5FA054"/>
<path d="M560.994 53.5557C560.784 53.5225 560.574 53.4783 560.364 53.4451C556.747 52.8042 553.129 52.1743 549.523 51.5222L549.191 43.3556L544.822 50.6713C534.855 53.9755 525.53 52.1079 516.758 47.9859C513.865 46.6137 511.057 45.0674 508.351 43.3556C507.46 29.544 513.05 20.7019 523.451 21.6292C523.83 21.6631 524.103 21.2757 524.435 21.1097C524.437 21.1098 524.438 21.1095 524.439 21.1089C524.441 21.1084 524.442 21.1076 524.443 21.1065C524.444 21.1055 524.445 21.1043 524.445 21.1029C524.446 21.1016 524.446 21.1001 524.446 21.0987C525.01 20.8335 525.586 20.5793 526.161 20.3473C530.664 18.5891 535.574 18.1438 540.321 19.0633C545.067 19.9827 549.455 22.229 552.974 25.5412C560.054 32.2935 563.24 43.444 560.994 53.5557Z" fill="#2F2E41"/>
<path d="M560.364 53.4449C560.364 53.4449 553.494 27.8287 524.048 21.9163C524.015 21.9053 523.904 21.8611 523.76 21.7949C523.672 21.7395 523.561 21.6842 523.451 21.6291C523.783 21.4411 524.103 21.2755 524.435 21.1096C524.437 21.1096 524.438 21.1093 524.439 21.1088C524.441 21.1082 524.442 21.1074 524.443 21.1064C524.444 21.1053 524.445 21.1041 524.445 21.1027C524.446 21.1014 524.446 21.0999 524.446 21.0985C524.734 20.8333 525.021 20.5681 525.32 20.3139L526.161 20.3471C526.161 20.3471 555.707 15.6725 560.364 53.4449Z" fill="#FD6584"/>
<path d="M571.692 214.924C571.147 215.389 570.484 215.696 569.775 215.811C569.067 215.925 568.341 215.843 567.677 215.573C566.355 215.013 565.181 214.154 564.246 213.066C560.431 209.068 557.706 204.161 556.33 198.812L557.602 196.551C557.102 193.763 557.572 190.889 558.934 188.404C560.295 185.92 562.466 183.975 565.086 182.893C566.576 182.261 568.229 182.118 569.807 182.483C570.589 182.677 571.304 183.078 571.877 183.645C572.449 184.212 572.858 184.922 573.06 185.702C573.55 188.12 571.533 190.304 569.491 191.693C565.933 194.105 561.82 195.575 557.538 195.965C562.776 198.915 567.304 202.974 570.804 207.859C571.613 208.878 572.21 210.048 572.559 211.301C572.727 211.929 572.735 212.589 572.584 213.222C572.433 213.854 572.126 214.439 571.692 214.924Z" fill="#2F2E41"/>
<path d="M278.574 510.731H667.753C668.084 510.731 668.401 510.6 668.635 510.366C668.869 510.133 669 509.816 669 509.486C669 509.155 668.869 508.839 668.635 508.605C668.401 508.371 668.084 508.24 667.753 508.24H278.574C278.244 508.24 277.927 508.371 277.693 508.605C277.459 508.839 277.328 509.155 277.328 509.486C277.328 509.816 277.459 510.133 277.693 510.366C277.927 510.6 278.244 510.731 278.574 510.731V510.731V510.731Z" fill="#CCCCCC"/>
<path d="M381.932 190.535V191.185C380.53 189.545 379.1 187.918 377.684 186.291C377.089 185.612 376.494 184.933 375.9 184.254C373.379 181.396 370.844 178.548 368.296 175.709C365.733 172.88 363.169 170.05 360.578 167.235C359.955 166.556 359.332 165.877 358.695 165.198C358.185 164.627 357.631 164.098 357.038 163.613C356.44 163.116 355.753 162.737 355.013 162.496C354.162 162.26 353.264 162.251 352.408 162.468C351.43 162.694 350.496 163.048 349.547 163.345C348.57 163.67 347.607 163.981 346.63 164.293C344.676 164.929 342.736 165.566 340.782 166.202C340.758 166.212 340.733 166.217 340.707 166.217C340.682 166.217 340.657 166.211 340.633 166.201C340.61 166.192 340.589 166.177 340.571 166.159C340.553 166.141 340.539 166.12 340.529 166.096L340.527 166.089C340.516 166.062 340.511 166.033 340.512 166.005C340.513 165.976 340.521 165.947 340.534 165.922C340.548 165.896 340.567 165.874 340.59 165.856C340.613 165.839 340.64 165.826 340.669 165.821C341.15 165.665 341.646 165.509 342.141 165.354C344.109 164.703 346.063 164.066 348.032 163.43C349.009 163.104 349.986 162.793 350.963 162.482C351.869 162.138 352.826 161.947 353.795 161.916C355.377 162.03 356.86 162.725 357.958 163.868C358.567 164.434 359.12 165.028 359.672 165.637C360.323 166.344 360.975 167.051 361.626 167.759C364.246 170.616 366.846 173.483 369.428 176.36C372.02 179.246 374.587 182.136 377.132 185.032C377.316 185.244 377.5 185.456 377.684 185.668C379.114 187.281 380.516 188.908 381.932 190.535Z" fill="white"/>
<path d="M356.818 166.22C356.283 165.532 355.57 165.003 354.756 164.689L353.951 164.718C360.271 174.543 368.551 182.96 378.273 189.445C371.122 181.703 363.97 173.962 356.818 166.22Z" fill="white"/>
<path d="M488.714 268.325L456.634 96.7263C456.085 93.8975 454.591 91.339 452.395 89.4702C450.2 87.6014 447.434 86.5332 444.552 86.4408C444.292 86.4351 444.033 86.4351 443.773 86.4408L421.92 87.224L419.568 87.3104L408.662 87.702L406.31 87.7826L399.295 88.036L257.834 93.1096C257.621 93.1211 257.402 93.1211 257.188 93.1153L225.489 92.4531L213.759 92.2112L213.384 92.2055L204.726 92.0212L129.28 90.4547L109.277 90.0343L99.414 89.8328L97.0506 89.7809L85.8041 89.5505L83.4464 89.4987L71.9404 89.2626L69.5827 89.2108L56.9412 88.9458L54.9582 88.9055L43.6828 88.6695L41.9017 88.6349H41.6423C38.6489 88.6471 35.7562 89.7161 33.4756 91.6531C31.1949 93.5901 29.6732 96.2703 29.1794 99.2198L0.166692 277.286C-0.12793 279.089 -0.0264952 280.936 0.463947 282.696C0.954389 284.457 1.8221 286.09 3.00701 287.483C4.19193 288.875 5.6657 289.994 7.32623 290.761C8.98675 291.528 10.7943 291.925 12.6238 291.925H179.241C181.693 291.932 184.08 292.718 186.054 294.171L189.213 296.509C191.391 298.11 194.021 298.977 196.724 298.985C228.904 290.5 262.737 290.5 294.917 298.985C296.576 298.989 298.22 298.665 299.752 298.03C301.285 297.396 302.676 296.463 303.846 295.288C305.846 293.29 308.516 292.103 311.34 291.954L476.965 283.235C478.762 283.141 480.517 282.665 482.114 281.838C483.711 281.012 485.112 279.854 486.225 278.442C487.337 277.03 488.135 275.397 488.564 273.652C488.993 271.907 489.044 270.091 488.714 268.325V268.325Z" fill="#CCCCCC"/>
<path d="M443.325 241.566C443.112 247.381 440.597 252.874 436.332 256.837C432.067 260.8 426.401 262.909 420.581 262.7C410.963 262.361 399.486 262.191 387.029 262.45C346.35 263.319 295.243 268.913 264.501 289.028C260.638 291.562 256.072 292.813 251.455 292.603C251.115 292.583 250.785 292.563 250.445 292.534C245.658 292.096 241.148 290.1 237.608 286.851C220.673 271.37 181.833 252.623 92.9263 251.304C92.5564 251.304 92.1965 251.284 91.8366 251.264C88.957 251.083 86.1413 250.337 83.5505 249.068C80.9598 247.8 78.6447 246.033 76.7377 243.87C74.8306 241.707 73.3689 239.19 72.4362 236.462C71.5035 233.734 71.1181 230.85 71.3019 227.973L80.0397 89.4333L81.3493 68.6688L83.6487 32.3435C83.8806 28.6852 85.4978 25.2524 88.1717 22.7424C90.8457 20.2324 94.3759 18.8336 98.045 18.8301H98.1349L151.101 19.1397C173.415 20.1485 191.897 22.9883 206.547 27.6592C211.551 29.2095 216.419 31.167 221.103 33.5121C227.5 36.6106 233.248 40.8985 238.038 46.1465C241.022 49.4991 245.093 51.6949 249.535 52.3489C250.224 52.4517 250.919 52.5151 251.615 52.5387C255.712 52.708 259.755 51.5521 263.142 49.2427C297.743 26.0812 368.254 24.3234 407.194 25.3221C412.64 25.449 417.843 27.5966 421.791 31.3465C425.739 35.0963 428.148 40.18 428.549 45.6072L430.128 66.2718L431.698 86.8764L440.755 205.96L443.275 239.089C443.336 239.913 443.353 240.74 443.325 241.566V241.566Z" fill="#DAFFD5"/>
<path d="M106.104 67.5798C138.022 57.406 173.632 60.0995 203.87 74.4322C212.498 78.5005 220.647 83.5144 228.166 89.3815C230.293 91.0492 233.319 88.0661 231.169 86.3805C203.396 64.8593 168.499 54.6358 133.49 57.764C123.805 58.6298 114.243 60.549 104.974 63.4874C102.379 64.3144 103.488 68.4133 106.103 67.5798H106.104Z" fill="#3F3D56"/>
<path d="M281.741 91.0274C311.417 75.4444 346.954 72.0462 379.22 80.8918C388.418 83.4076 397.308 86.9388 405.725 91.4201C408.136 92.7054 410.284 89.0431 407.869 87.7555C377.117 71.3624 340.202 67.5887 306.621 76.7269C297.253 79.2807 288.192 82.847 279.597 87.3628C277.176 88.6341 279.321 92.2983 281.741 91.0274Z" fill="#3F3D56"/>
<path d="M281.741 119.321C311.417 103.738 346.954 100.34 379.22 109.186C388.418 111.702 397.308 115.233 405.725 119.714C408.136 120.999 410.284 117.337 407.869 116.049C377.117 99.6563 340.202 95.8826 306.621 105.021C297.253 107.575 288.192 111.141 279.597 115.657C277.176 116.928 279.321 120.592 281.741 119.321L281.741 119.321Z" fill="#3F3D56"/>
<path d="M408.908 146.097C408.931 145.733 408.843 145.37 408.656 145.056C408.469 144.743 408.193 144.492 407.862 144.338C383.226 131.451 355.294 126.224 327.66 129.33C327.487 129.344 327.328 129.371 327.141 129.385H327.134C326.964 129.4 326.795 129.426 326.627 129.461C310.191 131.351 294.247 136.261 279.598 143.943C279.279 144.133 279.014 144.403 278.831 144.726C278.647 145.049 278.551 145.414 278.551 145.785V198.566C278.557 198.891 278.636 199.21 278.783 199.5C278.93 199.79 279.141 200.042 279.4 200.238C279.659 200.435 279.96 200.569 280.279 200.632C280.598 200.695 280.927 200.685 281.241 200.602C281.893 200.415 282.544 200.235 283.21 200.062C298.019 196.057 313.222 193.682 328.548 192.977C328.874 192.963 329.199 192.949 329.539 192.935C342.022 192.4 354.527 192.849 366.939 194.279C367.199 194.294 367.459 194.321 367.716 194.362C368.354 194.431 369.005 194.507 369.643 194.591C369.9 194.618 370.142 194.646 370.378 194.688C372.86 194.999 375.321 195.352 377.789 195.733C381.352 196.301 384.915 196.934 388.478 197.631C388.7 197.673 388.929 197.728 389.158 197.77C394.877 198.905 400.569 200.221 406.232 201.676C406.548 201.757 406.877 201.766 407.197 201.701C407.516 201.637 407.816 201.501 408.075 201.303C408.334 201.106 408.545 200.852 408.692 200.562C408.838 200.271 408.917 199.951 408.922 199.626V146.18C408.924 146.152 408.92 146.123 408.908 146.097V146.097Z" fill="#3F3D56"/>
<path d="M330.991 132.208C329.435 131.446 327.651 131.29 325.985 131.768C325.25 132.044 324.576 132.463 324.004 133C323.432 133.538 322.972 134.184 322.651 134.901C322.074 136.275 321.705 137.727 321.554 139.21C321.466 139.793 321.461 140.529 322.047 140.801C322.26 140.878 322.49 140.896 322.713 140.852C322.935 140.808 323.141 140.704 323.308 140.551C323.611 140.253 323.861 139.905 324.047 139.522C325.065 137.939 326.467 136.637 328.123 135.738C329.778 134.839 331.634 134.371 333.518 134.378L335.086 135.002C333.852 133.892 332.475 132.952 330.991 132.208V132.208Z" fill="#FF6582"/>
<path d="M347.965 144.373C346.748 142.583 345.306 140.672 343.047 140.087C340.431 139.41 337.745 140.755 335.465 142.082C328.688 146.025 322.125 150.325 315.804 154.964L315.811 155.033L330.483 154.134C334.016 153.917 337.671 153.67 340.793 152.184C341.915 151.482 343.168 151.016 344.476 150.814C345.287 150.858 346.082 151.062 346.814 151.414C347.546 151.767 348.202 152.261 348.742 152.867C355.503 159.27 357.46 169.061 365.046 174.687C360.219 164.119 354.505 153.978 347.965 144.373V144.373Z" fill="white"/>
<path d="M329.541 192.935C329.202 192.949 328.876 192.963 328.55 192.977C326.186 192.128 323.764 191.379 321.314 190.728C319.728 190.303 318.114 189.921 316.5 189.596C314.673 189.2 312.832 188.889 310.991 188.62C307.487 188.111 303.954 187.813 300.414 187.729C300.387 187.732 300.36 187.729 300.334 187.721C300.308 187.712 300.285 187.699 300.265 187.681C300.244 187.663 300.228 187.641 300.217 187.616C300.206 187.591 300.201 187.565 300.201 187.538C300.201 187.511 300.206 187.484 300.217 187.46C300.228 187.435 300.244 187.413 300.265 187.395C300.285 187.377 300.308 187.363 300.334 187.355C300.36 187.347 300.387 187.344 300.414 187.347C300.867 187.347 301.32 187.361 301.759 187.389C305.307 187.52 308.844 187.865 312.351 188.422C314.178 188.719 316.004 189.073 317.817 189.469C319.459 189.837 321.102 190.247 322.716 190.7C325.024 191.35 327.299 192.095 329.541 192.935Z" fill="white"/>
<path d="M370.38 194.688C370.14 194.646 369.899 194.617 369.644 194.589C368.667 193.783 367.676 193.019 366.642 192.269C365.353 191.335 364.022 190.458 362.663 189.638C359.652 187.812 356.509 186.214 353.26 184.856C348.123 182.719 342.806 181.043 337.372 179.848C331.173 178.492 324.899 177.509 318.582 176.906C312.266 176.255 305.922 175.859 299.578 175.463C299.309 175.449 299.295 175.053 299.578 175.067C300.371 175.123 301.164 175.166 301.971 175.222C308.386 175.619 314.801 176.071 321.173 176.793C327.491 177.469 333.758 178.556 339.935 180.046C345.208 181.345 350.355 183.111 355.314 185.323C358.166 186.603 360.928 188.073 363.583 189.723C365.268 190.784 366.897 191.916 368.454 193.118C369.106 193.627 369.757 194.137 370.38 194.688Z" fill="white"/>
<path d="M367.718 194.363C367.46 194.321 367.2 194.293 366.939 194.278C366.642 194.037 366.33 193.811 366.019 193.585C363.839 192.026 361.564 190.604 359.208 189.326C357.068 188.164 354.87 187.111 352.623 186.172C347.489 184.028 342.171 182.352 336.735 181.164C330.536 179.807 324.261 178.824 317.944 178.221C311.629 177.57 305.285 177.175 298.941 176.778C298.672 176.75 298.672 176.368 298.941 176.382C299.748 176.439 300.541 176.481 301.334 176.538C307.749 176.934 314.163 177.387 320.536 178.108C326.854 178.785 333.121 179.872 339.298 181.362C344.572 182.658 349.718 184.424 354.676 186.639C356.545 187.487 358.372 188.407 360.156 189.411C362.802 190.863 365.33 192.518 367.718 194.363Z" fill="white"/>
<path d="M389.157 197.773C388.931 197.73 388.704 197.674 388.477 197.631C388.222 197.362 387.982 197.079 387.741 196.796C386.523 195.396 385.32 193.981 384.13 192.552C379.443 186.979 374.997 181.235 370.805 175.378C367.208 170.37 363.796 165.263 360.567 160.057C359.024 157.596 357.537 155.106 356.078 152.588C354.945 150.636 353.841 148.679 352.765 146.717C352.453 146.151 352.156 145.585 351.859 145.019C351.164 143.69 350.471 142.346 349.735 141.03C348.934 139.418 347.759 138.021 346.307 136.956C345.582 136.471 344.743 136.183 343.872 136.121C342.644 136.126 341.437 136.437 340.36 137.026C332.438 140.712 324.964 145.293 318.086 150.678C311.368 155.898 305.293 161.896 299.989 168.545C299.819 168.744 299.451 168.56 299.606 168.347C300.244 167.555 300.895 166.763 301.546 165.985C306.644 159.961 312.385 154.51 318.666 149.73C318.68 149.716 318.709 149.702 318.723 149.688C319.275 149.249 319.828 148.825 320.394 148.415C323.901 145.835 327.551 143.454 331.326 141.285C333.252 140.167 335.22 139.106 337.231 138.102C337.726 137.847 338.236 137.593 338.746 137.352C339.256 137.097 339.766 136.857 340.275 136.616C341.284 136.102 342.388 135.799 343.518 135.725C347.455 135.669 349.479 139.63 350.881 142.303C351.32 143.138 351.774 143.973 352.213 144.807C353.912 147.962 355.682 151.103 357.523 154.201C358.641 156.125 359.802 158.035 360.978 159.93C362.663 162.632 364.39 165.306 366.189 167.966C366.189 167.967 366.189 167.969 366.19 167.971C366.19 167.973 366.191 167.974 366.193 167.976C366.194 167.977 366.195 167.978 366.197 167.979C366.199 167.979 366.201 167.98 366.202 167.98H366.203C368.284 171.12 370.451 174.204 372.689 177.274C376.526 182.523 380.548 187.653 384.753 192.666C386.198 194.392 387.666 196.094 389.157 197.773Z" fill="white"/>
<path d="M338.637 135.293L338.245 135.465C337.348 133.951 336.09 132.682 334.584 131.771C333.078 130.86 331.37 130.335 329.611 130.242C323.814 129.831 318.721 133.691 318.258 138.846C318.07 140.969 318.685 143.085 319.982 144.776L319.619 144.991C318.268 143.229 317.627 141.026 317.823 138.815C318.305 133.447 323.609 129.427 329.646 129.856C331.477 129.952 333.256 130.499 334.824 131.447C336.393 132.396 337.703 133.717 338.637 135.293V135.293Z" fill="#FF6582"/>
<path d="M309.99 145.723C308.469 145.062 306.812 144.772 305.156 144.878C303.5 144.983 301.893 145.48 300.468 146.329C305.671 147.126 310.829 148.197 315.92 149.536C313.812 148.437 312.163 146.716 309.99 145.723Z" fill="white"/>
<path d="M300.439 146.324L299.866 146.738C300.06 146.593 300.261 146.458 300.468 146.329L300.439 146.324Z" fill="white"/>
<path d="M317.693 148.726C317.465 148.499 317.238 148.273 317.008 148.047C315.245 146.13 313.123 144.579 310.761 143.48C309.559 142.974 308.269 142.708 306.964 142.697C305.616 142.729 304.284 142.987 303.022 143.462C302.428 143.673 301.848 143.912 301.276 144.167C300.623 144.459 299.981 144.771 299.343 145.085C298.144 145.675 296.96 146.291 295.793 146.933C293.469 148.21 291.219 149.584 289.041 151.056C287.912 151.819 286.806 152.607 285.724 153.421C284.717 154.176 283.731 154.952 282.765 155.748C282.558 155.918 282.25 155.643 282.456 155.474C282.711 155.263 282.969 155.053 283.226 154.846C283.954 154.262 284.693 153.688 285.443 153.126C286.812 152.099 288.216 151.111 289.656 150.163C291.895 148.688 294.211 147.314 296.605 146.039C297.8 145.402 299.013 144.793 300.242 144.21C300.613 144.034 300.988 143.862 301.368 143.699C302.235 143.31 303.129 142.986 304.044 142.73C305.357 142.354 306.73 142.234 308.087 142.377C309.388 142.542 310.649 142.93 311.818 143.524C314.133 144.82 316.222 146.484 318.002 148.45C318.188 148.637 317.881 148.912 317.693 148.726Z" fill="white"/>
<path d="M106.104 95.8728C138.022 85.699 173.632 88.3925 203.87 102.725C212.498 106.794 220.647 111.807 228.166 117.674C230.293 119.342 233.319 116.359 231.169 114.674C203.396 93.1523 168.499 82.9287 133.49 86.0569C123.805 86.9228 114.243 88.842 104.974 91.7804C102.379 92.6073 103.488 96.7063 106.103 95.8728L106.104 95.8728Z" fill="#3F3D56"/>
<path d="M106.104 124.167C138.022 113.993 173.632 116.686 203.87 131.019C212.498 135.087 220.647 140.101 228.166 145.968C230.293 147.636 233.319 144.653 231.169 142.967C203.396 121.446 168.499 111.223 133.49 114.351C123.805 115.217 114.243 117.136 104.974 120.074C102.379 120.901 103.488 125 106.103 124.167L106.104 124.167Z" fill="#3F3D56"/>
<path d="M106.104 152.46C138.022 142.286 173.632 144.979 203.87 159.312C212.498 163.38 220.647 168.394 228.166 174.261C230.293 175.929 233.319 172.946 231.169 171.26C203.396 149.739 168.499 139.516 133.49 142.644C123.805 143.51 114.243 145.429 104.974 148.367C102.379 149.194 103.488 153.293 106.103 152.46L106.104 152.46Z" fill="#3F3D56"/>
<path d="M106.104 180.754C138.022 170.58 173.632 173.273 203.87 187.606C212.498 191.674 220.647 196.688 228.166 202.555C230.293 204.223 233.319 201.24 231.169 199.554C203.396 178.033 168.499 167.81 133.49 170.938C123.805 171.804 114.243 173.723 104.974 176.661C102.379 177.488 103.488 181.587 106.103 180.754L106.104 180.754Z" fill="#3F3D56"/>
<path d="M106.104 209.047C138.022 198.873 173.632 201.566 203.87 215.899C212.498 219.967 220.647 224.981 228.166 230.848C230.293 232.516 233.319 229.533 231.169 227.847C203.396 206.326 168.499 196.103 133.49 199.231C123.805 200.097 114.243 202.016 104.974 204.954C102.379 205.781 103.488 209.88 106.103 209.047H106.104Z" fill="#3F3D56"/>
<path d="M221.103 33.512V101.359C221.103 102.707 218.744 103.836 215.565 104.145C215.537 104.144 215.51 104.147 215.485 104.155C214.955 104.195 214.395 104.225 213.825 104.225C212.072 104.257 210.328 103.973 208.676 103.386C208.526 103.326 208.376 103.256 208.226 103.196C208.086 103.116 207.937 103.047 207.797 102.967C207.007 102.497 206.547 101.948 206.547 101.359V27.6592C211.551 29.2094 216.419 31.1669 221.103 33.512V33.512Z" fill="#5FA054"/>
<path d="M251.613 49.248H249.533V291.185H251.613V49.248Z" fill="#E6E6E6"/>
<path d="M477.776 214.871C479.25 214.736 480.677 214.28 481.957 213.534C483.236 212.789 484.336 211.772 485.179 210.556C486.023 209.34 486.589 207.954 486.838 206.496C487.087 205.037 487.013 203.542 486.622 202.115L529.788 181.985L555.776 139.987L535.349 131.748L517.817 165.591L473.444 195.132C471.089 195.948 469.115 197.599 467.896 199.772C466.678 201.946 466.3 204.49 466.834 206.923C467.368 209.356 468.777 211.509 470.793 212.974C472.81 214.439 475.294 215.113 477.776 214.871V214.871Z" fill="#FFB6B6"/>
<path d="M571.807 99.7546C571.807 99.7546 576.894 101.414 571.31 111.272C566.84 119.164 545.065 164.624 536.177 173.55C537.112 175.047 537.522 176.812 537.343 178.567C537.163 180.323 536.404 181.969 535.185 183.246L514.667 166.98C514.275 161.064 518.194 160.477 520.516 160.677L525.237 143.964L541.7 102.736L568.151 98.4902L571.807 99.7546Z" fill="#5FA054"/>
<path d="M572.25 22.4806C573.22 18.5622 580.257 15.6689 568.202 10.1983C565.276 8.87069 565.398 4.29852 562.923 2.25094C560.448 0.203352 556.824 -0.745933 553.947 0.685248C551.379 1.96329 549.931 4.85554 549.623 7.70573C549.475 10.5744 549.806 13.4476 550.604 16.2074L550.37 16.5485C555.145 20.1991 559.921 23.8496 564.696 27.5001C566.451 28.8416 568.745 30.2463 570.711 29.2397C572.938 28.1002 571.649 24.9065 572.25 22.4806Z" fill="#2F2E41"/>
</g>
<defs>
<clipPath id="clip0_215_92">
<rect width="669" height="511" fill="white"/>
</clipPath>
</defs>
</svg>
